<svg width="20" height="20" viewBox="0 0 20 20" fill="none" xmlns="http://www.w3.org/2000/svg">
<path d="M6.33331 10H13.6666H6.33331ZM9.99998 13.6667V6.33337V13.6667ZM7.24998 19.1667H12.75C17.3333 19.1667 19.1666 17.3334 19.1666 12.75V7.25004C19.1666 2.66671 17.3333 0.833374 12.75 0.833374H7.24998C2.66665 0.833374 0.833313 2.66671 0.833313 7.25004V12.75C0.833313 17.3334 2.66665 19.1667 7.24998 19.1667Z" fill="#0065B0"/>
<path d="M6.33331 10H13.6666M9.99998 13.6667V6.33337M7.24998 19.1667H12.75C17.3333 19.1667 19.1666 17.3334 19.1666 12.75V7.25004C19.1666 2.66671 17.3333 0.833374 12.75 0.833374H7.24998C2.66665 0.833374 0.833313 2.66671 0.833313 7.25004V12.75C0.833313 17.3334 2.66665 19.1667 7.24998 19.1667Z" stroke="white" stroke-width="1.5" stroke-linecap="round" stroke-linejoin="round"/>
</svg>
