<svg width="40" height="40" viewBox="0 0 40 40" fill="none" xmlns="http://www.w3.org/2000/svg">
<circle cx="20" cy="20" r="19.5" fill="#EAF6FF" stroke="#EAF6FF"/>
<path d="M24.147 16.944C24.147 15.8006 23.6928 14.704 22.8843 13.8955C22.0758 13.087 20.9793 12.6328 19.8359 12.6328C18.6925 12.6328 17.5959 13.087 16.7874 13.8955C15.9789 14.704 15.5247 15.8006 15.5247 16.944C15.5247 21.9736 13.3691 23.4107 13.3691 23.4107H26.3026C26.3026 23.4107 24.147 21.9736 24.147 16.944Z" stroke="#4CB7F7" stroke-width="1.5" stroke-linecap="round" stroke-linejoin="round"/>
<path d="M21.0789 26.2852C20.9525 26.5029 20.7712 26.6837 20.5531 26.8093C20.3349 26.935 20.0876 27.0011 19.8358 27.0011C19.5841 27.0011 19.3367 26.935 19.1186 26.8093C18.9004 26.6837 18.7191 26.5029 18.5928 26.2852" stroke="#4CB7F7" stroke-width="1.5" stroke-linecap="round" stroke-linejoin="round"/>
</svg>
