<svg width="11" height="11" viewBox="0 0 11 11" fill="none" xmlns="http://www.w3.org/2000/svg">
<path d="M8.87625 0.845045H8.46595V0.429688C8.46595 0.192371 8.27366 0 8.03645 0C7.79924 0 7.60696 0.192371 7.60696 0.429688V0.845045H3.39302V0.429688C3.39302 0.192371 3.20073 0 2.96352 0C2.72631 0 2.53403 0.192371 2.53403 0.429688V0.845045H2.12375C0.952708 0.845045 0 1.79818 0 2.96972V8.8753C0 10.0469 0.952708 11 2.12375 11H8.87627C10.0473 11 11 10.0469 11 8.8753V2.96972C11 1.79818 10.0473 0.845045 8.87625 0.845045ZM2.12375 1.70442H2.53403V2.54231C2.53403 2.77963 2.72631 2.972 2.96352 2.972C3.20073 2.972 3.39302 2.77963 3.39302 2.54231V1.70442H7.60698V2.54231C7.60698 2.77963 7.79926 2.972 8.03648 2.972C8.27369 2.972 8.46597 2.77963 8.46597 2.54231V1.70442H8.87627C9.57364 1.70442 10.141 2.27204 10.141 2.96972V3.3802H0.858992V2.96972C0.858992 2.27204 1.42636 1.70442 2.12375 1.70442ZM8.87625 10.1406H2.12375C1.42636 10.1406 0.858992 9.57301 0.858992 8.8753V4.23958H10.141V8.8753C10.141 9.57301 9.57364 10.1406 8.87625 10.1406ZM3.81537 5.92969C3.81537 6.167 3.62308 6.35938 3.38587 6.35938H2.5412C2.30399 6.35938 2.1117 6.167 2.1117 5.92969C2.1117 5.69237 2.30399 5.5 2.5412 5.5H3.38587C3.62306 5.5 3.81537 5.69237 3.81537 5.92969ZM8.88832 5.92969C8.88832 6.167 8.69603 6.35938 8.45882 6.35938H7.61415C7.37694 6.35938 7.18466 6.167 7.18466 5.92969C7.18466 5.69237 7.37694 5.5 7.61415 5.5H8.45882C8.69601 5.5 8.88832 5.69237 8.88832 5.92969ZM6.34939 5.92969C6.34939 6.167 6.15711 6.35938 5.9199 6.35938H5.07523C4.83802 6.35938 4.64573 6.167 4.64573 5.92969C4.64573 5.69237 4.83802 5.5 5.07523 5.5H5.9199C6.15709 5.5 6.34939 5.69237 6.34939 5.92969ZM3.81537 8.46484C3.81537 8.70216 3.62308 8.89453 3.38587 8.89453H2.5412C2.30399 8.89453 2.1117 8.70216 2.1117 8.46484C2.1117 8.22753 2.30399 8.03516 2.5412 8.03516H3.38587C3.62306 8.03516 3.81537 8.22753 3.81537 8.46484ZM8.88832 8.46484C8.88832 8.70216 8.69603 8.89453 8.45882 8.89453H7.61415C7.37694 8.89453 7.18466 8.70216 7.18466 8.46484C7.18466 8.22753 7.37694 8.03516 7.61415 8.03516H8.45882C8.69601 8.03516 8.88832 8.22753 8.88832 8.46484ZM6.34939 8.46484C6.34939 8.70216 6.15711 8.89453 5.9199 8.89453H5.07523C4.83802 8.89453 4.64573 8.70216 4.64573 8.46484C4.64573 8.22753 4.83802 8.03516 5.07523 8.03516H5.9199C6.15709 8.03516 6.34939 8.22753 6.34939 8.46484Z" fill="#FAA61A"/>
</svg>
