<svg width="32" height="32" viewBox="0 0 32 32" fill="none" xmlns="http://www.w3.org/2000/svg">
<rect width="32" height="32" rx="16" fill="white"/>
<path d="M8 23.4068L9.14796 19.1384C8.22216 17.4756 7.92802 15.5353 8.31953 13.6735C8.71103 11.8118 9.76191 10.1534 11.2793 9.00266C12.7968 7.85197 14.6789 7.28618 16.5805 7.40911C18.4821 7.53204 20.2754 8.33544 21.6315 9.67189C22.9876 11.0083 23.8155 12.7882 23.9632 14.6849C24.111 16.5815 23.5686 18.4677 22.4358 19.9974C21.3029 21.5271 19.6555 22.5976 17.7958 23.0125C15.9362 23.4274 13.989 23.1589 12.3116 22.2562L8 23.4068ZM12.5195 20.659L12.7862 20.8169C14.0011 21.5358 15.4202 21.8333 16.8222 21.663C18.2242 21.4928 19.5304 20.8643 20.5372 19.8755C21.544 18.8867 22.195 17.5932 22.3886 16.1965C22.5821 14.7998 22.3075 13.3784 21.6075 12.1538C20.9074 10.9292 19.8212 9.97024 18.5182 9.42628C17.2152 8.88232 15.7686 8.78394 14.4038 9.14649C13.0389 9.50904 11.8325 10.3121 10.9726 11.4307C10.1127 12.5492 9.64754 13.9202 9.64963 15.3302C9.64849 16.4993 9.97236 17.6458 10.5852 18.6421L10.7524 18.9173L10.1106 21.2997L12.5195 20.659Z" fill="#4CB7F7"/>
<path fill-rule="evenodd" clip-rule="evenodd" d="M18.9913 16.4283C18.835 16.3024 18.652 16.2138 18.4562 16.1692C18.2604 16.1247 18.057 16.1253 17.8614 16.1711C17.5677 16.2929 17.3778 16.7531 17.188 16.9832C17.148 17.0384 17.0892 17.0771 17.0226 17.0921C16.956 17.107 16.8863 17.0972 16.8265 17.0645C15.751 16.6439 14.8495 15.8727 14.2684 14.8761C14.2188 14.8139 14.1954 14.735 14.203 14.6559C14.2106 14.5767 14.2486 14.5037 14.3091 14.452C14.5208 14.2427 14.6762 13.9836 14.761 13.6985C14.7799 13.384 14.7077 13.0707 14.5531 12.7961C14.4336 12.411 14.2062 12.0681 13.8978 11.8079C13.7387 11.7365 13.5623 11.7125 13.3899 11.739C13.2175 11.7654 13.0564 11.841 12.9261 11.9568C12.6999 12.1517 12.5203 12.3947 12.4006 12.668C12.281 12.9413 12.2242 13.2379 12.2346 13.536C12.2353 13.7034 12.2566 13.8701 12.2979 14.0324C12.4028 14.4222 12.5642 14.7946 12.7769 15.1378C12.9304 15.4007 13.0979 15.6553 13.2786 15.9004C13.866 16.7053 14.6042 17.3887 15.4525 17.9127C15.8782 18.179 16.3331 18.3955 16.8084 18.558C17.3021 18.7814 17.8471 18.8671 18.3857 18.8061C18.6926 18.7597 18.9833 18.6388 19.2323 18.4539C19.4814 18.269 19.6811 18.0258 19.8139 17.7458C19.8919 17.5766 19.9156 17.3875 19.8817 17.2043C19.8003 16.8298 19.2986 16.6087 18.9913 16.4283Z" fill="#4CB7F7"/>
</svg>
