<svg width="100" height="100" viewBox="0 0 100 100" fill="none" xmlns="http://www.w3.org/2000/svg">
<rect width="100" height="100" rx="50" fill="#FF6900"/>
<path d="M69.4599 62L53.4599 34C53.111 33.3844 52.6051 32.8723 51.9937 32.5161C51.3823 32.1599 50.6874 31.9722 49.9799 31.9722C49.2723 31.9722 48.5774 32.1599 47.966 32.5161C47.3547 32.8723 46.8487 33.3844 46.4999 34L30.4999 62C30.1472 62.6107 29.9623 63.3038 29.9639 64.009C29.9654 64.7142 30.1534 65.4065 30.5088 66.0156C30.8641 66.6248 31.3742 67.1291 31.9872 67.4776C32.6003 67.8261 33.2947 68.0063 33.9999 68H65.9999C66.7017 67.9992 67.3909 67.8139 67.9984 67.4625C68.6059 67.1112 69.1103 66.6061 69.4609 65.9982C69.8115 65.3902 69.9959 64.7007 69.9958 63.9989C69.9956 63.2971 69.8108 62.6077 69.4599 62Z" stroke="white" stroke-width="5" stroke-linecap="round" stroke-linejoin="round"/>
<path d="M50 44V52" stroke="white" stroke-width="5" stroke-linecap="round" stroke-linejoin="round"/>
<path d="M50 60H50.0196" stroke="white" stroke-width="5" stroke-linecap="round" stroke-linejoin="round"/>
</svg>
