<svg width="259" height="184" viewBox="0 0 259 184" fill="none" xmlns="http://www.w3.org/2000/svg">
<g clip-path="url(#clip0_352_1164)">
<path d="M224 179C224 179 255.59 186.63 257 159" stroke="#0D47A1" stroke-width="4" stroke-miterlimit="10"/>
<path d="M35 181C35 181 3.41 188.63 2 161" stroke="#0D47A1" stroke-width="4" stroke-miterlimit="10"/>
<path d="M224 5.00006C224 5.00006 255.59 -2.62994 257 25.0001" stroke="#0D47A1" stroke-width="4" stroke-miterlimit="10"/>
<path d="M36 3.00006C36 3.00006 4.41 -4.62994 3 23.0001" stroke="#0D47A1" stroke-width="4" stroke-miterlimit="10"/>
</g>
<path d="M135.321 34.6666C136.824 34.6666 138.299 35.0732 139.59 35.8434C140.881 36.6136 141.94 37.7187 142.654 39.0416L144.679 42.7916C145.393 44.1145 146.452 45.2196 147.743 45.9898C149.034 46.76 150.509 47.1666 152.012 47.1666H160.333C162.543 47.1666 164.663 48.0446 166.226 49.6074C167.788 51.1702 168.666 53.2898 168.666 55.5V93C168.666 95.2101 167.788 97.3297 166.226 98.8925C164.663 100.455 162.543 101.333 160.333 101.333H93.6663C91.4562 101.333 89.3366 100.455 87.7738 98.8925C86.211 97.3297 85.333 95.2101 85.333 93V55.5C85.333 53.2898 86.211 51.1702 87.7738 49.6074C89.3366 48.0446 91.4562 47.1666 93.6663 47.1666H101.987C103.489 47.1667 104.963 46.761 106.253 45.9923C107.543 45.2237 108.602 44.1207 109.316 42.8L111.354 39.0333C112.069 37.7126 113.127 36.6096 114.417 35.8409C115.707 35.0723 117.181 34.6665 118.683 34.6666H135.321Z" stroke="#0D47A1" stroke-opacity="0.4" stroke-width="6" stroke-linecap="round" stroke-linejoin="round"/>
<path d="M127 84.6666C133.904 84.6666 139.5 79.0702 139.5 72.1666C139.5 65.2631 133.904 59.6666 127 59.6666C120.096 59.6666 114.5 65.2631 114.5 72.1666C114.5 79.0702 120.096 84.6666 127 84.6666Z" stroke="#0D47A1" stroke-opacity="0.4" stroke-width="6" stroke-linecap="round" stroke-linejoin="round"/>
<path d="M50.6825 142V140.864H56.6505L55.6265 141.776V138.288C55.6265 137.499 55.5358 136.875 55.3545 136.416C55.1732 135.957 54.8745 135.632 54.4585 135.44C54.0532 135.237 53.5038 135.136 52.8105 135.136H51.5145V134H52.8105C53.6638 134 54.3945 134.133 55.0025 134.4C55.6105 134.667 56.0745 135.115 56.3945 135.744C56.7145 136.363 56.8745 137.211 56.8745 138.288V142H50.6825ZM65.1319 142V140.864H66.8599V142H65.1319ZM61.3399 145.536C60.9665 145.536 60.5665 145.504 60.1399 145.44C59.7239 145.387 59.2652 145.307 58.7639 145.2L58.9559 144.192C59.5212 144.267 59.9905 144.32 60.3639 144.352C60.7479 144.384 61.0732 144.4 61.3399 144.4C62.2252 144.4 62.8705 144.229 63.2759 143.888C63.6812 143.557 63.8839 143.072 63.8839 142.432V134.72L64.5239 135.136H61.8199C61.2012 135.136 60.7212 135.211 60.3799 135.36C60.0492 135.509 59.8199 135.792 59.6919 136.208C59.5639 136.613 59.4999 137.211 59.4999 138C59.4999 138.789 59.5639 139.392 59.6919 139.808C59.8199 140.213 60.0492 140.491 60.3799 140.64C60.7212 140.789 61.2012 140.864 61.8199 140.864H63.8839V142H61.8199C60.8919 142 60.1665 141.861 59.6439 141.584C59.1319 141.296 58.7692 140.859 58.5559 140.272C58.3532 139.675 58.2519 138.917 58.2519 138C58.2519 137.083 58.3532 136.331 58.5559 135.744C58.7692 135.147 59.1319 134.709 59.6439 134.432C60.1665 134.144 60.8919 134 61.8199 134H65.1319V142.416C65.1319 143.077 64.9772 143.643 64.6679 144.112C64.3692 144.581 63.9372 144.933 63.3719 145.168C62.8065 145.413 62.1292 145.536 61.3399 145.536ZM66.8599 142V140.864C66.9239 140.864 66.9772 140.88 67.0199 140.912C67.0625 140.933 67.0945 140.971 67.1159 141.024C67.1372 141.067 67.1532 141.125 67.1639 141.2C67.1745 141.264 67.1799 141.339 67.1799 141.424C67.1799 141.509 67.1745 141.589 67.1639 141.664C67.1532 141.739 67.1372 141.803 67.1159 141.856C67.0945 141.899 67.0625 141.936 67.0199 141.968C66.9772 141.989 66.9239 142 66.8599 142ZM66.6969 142V140.864H74.6969L74.2489 141.264V138.416C74.2489 137.84 74.1689 137.365 74.0089 136.992C73.8595 136.608 73.6302 136.325 73.3209 136.144C73.0222 135.952 72.6435 135.856 72.1849 135.856H68.6969L67.7849 134.48L68.4729 133.152C68.6009 132.917 68.7342 132.677 68.8729 132.432C69.0115 132.187 69.1822 131.904 69.3849 131.584C69.5875 131.264 69.8435 130.875 70.1529 130.416L71.1929 131.04C70.8835 131.509 70.6329 131.899 70.4409 132.208C70.2489 132.517 70.0835 132.784 69.9449 133.008C69.8169 133.232 69.6942 133.456 69.5769 133.68L68.7769 135.216L68.4569 134.72H72.1849C72.8569 134.72 73.4062 134.837 73.8329 135.072C74.2702 135.296 74.6062 135.595 74.8409 135.968C75.0862 136.341 75.2569 136.747 75.3529 137.184C75.4489 137.611 75.4969 138.021 75.4969 138.416V142H66.6969ZM66.6969 142C66.6329 142 66.5795 141.989 66.5369 141.968C66.4942 141.936 66.4622 141.899 66.4409 141.856C66.4195 141.803 66.4035 141.739 66.3929 141.664C66.3822 141.589 66.3769 141.509 66.3769 141.424C66.3769 141.307 66.3875 141.211 66.4089 141.136C66.4195 141.051 66.4515 140.987 66.5049 140.944C66.5475 140.891 66.6115 140.864 66.6969 140.864V142ZM76.6759 145.536C76.5372 145.536 76.3932 145.525 76.2439 145.504C76.0839 145.493 75.9292 145.483 75.7799 145.472L75.9239 144.336C76.0732 144.347 76.2119 144.357 76.3399 144.368C76.4679 144.389 76.5799 144.4 76.6759 144.4C77.1772 144.4 77.5825 144.208 77.8919 143.824C78.2012 143.451 78.3559 142.928 78.3559 142.256V134H79.6039V142.256C79.6039 142.907 79.4759 143.477 79.2199 143.968C78.9745 144.469 78.6332 144.853 78.1959 145.12C77.7585 145.397 77.2519 145.536 76.6759 145.536ZM83.338 142V140.864H85.29V142H83.338ZM82.106 142V130.528H83.338V142H82.106ZM85.29 142V140.864C85.354 140.864 85.4073 140.88 85.45 140.912C85.4927 140.933 85.5247 140.971 85.546 141.024C85.5673 141.067 85.5833 141.125 85.594 141.2C85.6047 141.264 85.61 141.339 85.61 141.424C85.61 141.509 85.6047 141.589 85.594 141.664C85.5833 141.739 85.5673 141.803 85.546 141.856C85.5247 141.899 85.4927 141.936 85.45 141.968C85.4073 141.989 85.354 142 85.29 142ZM88.0998 142V140.864H89.8278V142H88.0998ZM85.1238 142C85.0598 142 85.0064 141.989 84.9638 141.968C84.9211 141.936 84.8891 141.899 84.8678 141.856C84.8464 141.803 84.8304 141.739 84.8198 141.664C84.8091 141.589 84.8038 141.509 84.8038 141.424C84.8038 141.307 84.8144 141.211 84.8358 141.136C84.8464 141.051 84.8784 140.987 84.9318 140.944C84.9744 140.891 85.0384 140.864 85.1238 140.864V142ZM85.1238 142V140.864H87.4278L86.8518 141.328V134H88.0998V142H85.1238ZM89.8278 142V140.864C89.8918 140.864 89.9451 140.88 89.9878 140.912C90.0304 140.933 90.0624 140.971 90.0838 141.024C90.1051 141.067 90.1211 141.125 90.1318 141.2C90.1424 141.264 90.1478 141.339 90.1478 141.424C90.1478 141.509 90.1424 141.589 90.1318 141.664C90.1211 141.739 90.1051 141.803 90.0838 141.856C90.0624 141.899 90.0304 141.936 89.9878 141.968C89.9451 141.989 89.8918 142 89.8278 142ZM86.8518 144.88V143.44H88.0998V144.88H86.8518ZM91.5979 142V130.528H92.8459V142H91.5979ZM89.6619 142V140.864H91.5979V142H89.6619ZM89.6619 142C89.5979 142 89.5445 141.989 89.5019 141.968C89.4592 141.936 89.4272 141.899 89.4059 141.856C89.3845 141.803 89.3685 141.739 89.3579 141.664C89.3472 141.589 89.3419 141.509 89.3419 141.424C89.3419 141.307 89.3525 141.211 89.3739 141.136C89.3845 141.051 89.4165 140.987 89.4699 140.944C89.5125 140.891 89.5765 140.864 89.6619 140.864V142ZM95.4391 142V130.528H96.6711V142H95.4391ZM108.906 142V140.864H110.634V142H108.906ZM105.114 145.536C104.74 145.536 104.34 145.504 103.914 145.44C103.498 145.387 103.039 145.307 102.538 145.2L102.73 144.192C103.295 144.267 103.764 144.32 104.138 144.352C104.522 144.384 104.847 144.4 105.114 144.4C105.999 144.4 106.644 144.229 107.05 143.888C107.455 143.557 107.658 143.072 107.658 142.432V134.72L108.298 135.136H105.594C104.975 135.136 104.495 135.211 104.154 135.36C103.823 135.509 103.594 135.792 103.466 136.208C103.338 136.613 103.274 137.211 103.274 138C103.274 138.789 103.338 139.392 103.466 139.808C103.594 140.213 103.823 140.491 104.154 140.64C104.495 140.789 104.975 140.864 105.594 140.864H107.658V142H105.594C104.666 142 103.94 141.861 103.418 141.584C102.906 141.296 102.543 140.859 102.33 140.272C102.127 139.675 102.026 138.917 102.026 138C102.026 137.083 102.127 136.331 102.33 135.744C102.543 135.147 102.906 134.709 103.418 134.432C103.94 134.144 104.666 134 105.594 134H108.906V142.416C108.906 143.077 108.751 143.643 108.442 144.112C108.143 144.581 107.711 144.933 107.146 145.168C106.58 145.413 105.903 145.536 105.114 145.536ZM110.634 142V140.864C110.698 140.864 110.751 140.88 110.794 140.912C110.836 140.933 110.868 140.971 110.89 141.024C110.911 141.067 110.927 141.125 110.938 141.2C110.948 141.264 110.954 141.339 110.954 141.424C110.954 141.509 110.948 141.589 110.938 141.664C110.927 141.739 110.911 141.803 110.89 141.856C110.868 141.899 110.836 141.936 110.794 141.968C110.751 141.989 110.698 142 110.634 142ZM118.391 142V140.864H120.119V142H118.391ZM110.471 142C110.407 142 110.353 141.989 110.311 141.968C110.268 141.936 110.236 141.899 110.215 141.856C110.193 141.803 110.177 141.739 110.167 141.664C110.156 141.589 110.151 141.509 110.151 141.424C110.151 141.307 110.161 141.211 110.183 141.136C110.193 141.051 110.225 140.987 110.279 140.944C110.321 140.891 110.385 140.864 110.471 140.864V142ZM110.471 142V140.864H117.527L117.143 141.2V137.232C117.143 136.539 116.924 136.021 116.487 135.68C116.06 135.328 115.404 135.152 114.519 135.152C114.241 135.152 113.841 135.179 113.319 135.232C112.796 135.275 112.247 135.339 111.671 135.424L111.527 134.4C111.964 134.293 112.444 134.203 112.967 134.128C113.489 134.043 113.996 134 114.487 134C115.297 134 115.991 134.128 116.567 134.384C117.153 134.629 117.601 134.992 117.911 135.472C118.231 135.952 118.391 136.539 118.391 137.232V142H110.471ZM120.119 142V140.864C120.183 140.864 120.236 140.88 120.279 140.912C120.321 140.933 120.353 140.971 120.375 141.024C120.396 141.067 120.412 141.125 120.423 141.2C120.433 141.264 120.439 141.339 120.439 141.424C120.439 141.509 120.433 141.589 120.423 141.664C120.412 141.739 120.396 141.803 120.375 141.856C120.353 141.899 120.321 141.936 120.279 141.968C120.236 141.989 120.183 142 120.119 142ZM119.946 142V140.864H122.25L121.674 141.328V134H122.922V142H119.946ZM119.946 142C119.882 142 119.829 141.989 119.786 141.968C119.744 141.936 119.712 141.899 119.69 141.856C119.669 141.803 119.653 141.739 119.642 141.664C119.632 141.589 119.626 141.509 119.626 141.424C119.626 141.307 119.637 141.211 119.658 141.136C119.669 141.051 119.701 140.987 119.754 140.944C119.797 140.891 119.861 140.864 119.946 140.864V142ZM121.674 132.56V131.12H122.922V132.56H121.674ZM128.934 142V130.528H130.166V142H128.934ZM138.057 142V134H139.305V141.328L138.729 140.864H141.033V142H138.057ZM134.601 136.72V135.568H138.057V136.72H134.601ZM131.673 145.536C131.535 145.536 131.391 145.525 131.241 145.504C131.081 145.493 130.927 145.483 130.777 145.472L130.921 144.336C131.071 144.347 131.209 144.357 131.337 144.368C131.465 144.389 131.577 144.4 131.673 144.4C132.175 144.4 132.58 144.208 132.889 143.824C133.199 143.451 133.353 142.928 133.353 142.256V134H134.601V142.256C134.601 142.907 134.473 143.477 134.217 143.968C133.972 144.469 133.631 144.853 133.193 145.12C132.756 145.397 132.249 145.536 131.673 145.536ZM141.033 142V140.864C141.097 140.864 141.151 140.88 141.193 140.912C141.236 140.933 141.268 140.971 141.289 141.024C141.311 141.067 141.327 141.125 141.337 141.2C141.348 141.264 141.353 141.339 141.353 141.424C141.353 141.509 141.348 141.589 141.337 141.664C141.327 141.739 141.311 141.803 141.289 141.856C141.268 141.899 141.236 141.936 141.193 141.968C141.151 141.989 141.097 142 141.033 142ZM136.969 144.88V143.44H138.217V144.88H136.969ZM139.161 144.88V143.44H140.409V144.88H139.161ZM140.864 142V140.864H149.616L148.688 141.52V138.08C148.688 137.333 148.603 136.747 148.432 136.32C148.262 135.893 147.968 135.589 147.552 135.408C147.147 135.227 146.592 135.136 145.888 135.136C145.44 135.136 144.992 135.168 144.544 135.232C144.107 135.296 143.766 135.381 143.52 135.488L144.272 134.72C144.208 134.976 144.144 135.301 144.08 135.696C144.016 136.08 143.963 136.496 143.92 136.944C143.878 137.392 143.856 137.84 143.856 138.288C143.856 138.747 143.878 139.195 143.92 139.632C143.963 140.069 144.011 140.448 144.064 140.768C144.118 141.088 144.16 141.312 144.192 141.44L143.008 141.776C142.966 141.637 142.912 141.397 142.848 141.056C142.795 140.715 142.742 140.304 142.688 139.824C142.646 139.344 142.624 138.832 142.624 138.288C142.624 137.765 142.646 137.259 142.688 136.768C142.742 136.267 142.8 135.813 142.864 135.408C142.939 135.003 143.008 134.677 143.072 134.432C143.307 134.336 143.68 134.24 144.192 134.144C144.704 134.048 145.27 134 145.888 134C146.784 134 147.531 134.133 148.128 134.4C148.736 134.667 149.19 135.099 149.488 135.696C149.787 136.283 149.936 137.077 149.936 138.08V142H140.864ZM140.864 142C140.8 142 140.747 141.989 140.704 141.968C140.662 141.936 140.63 141.899 140.608 141.856C140.587 141.803 140.571 141.739 140.56 141.664C140.55 141.589 140.544 141.509 140.544 141.424C140.544 141.307 140.555 141.211 140.576 141.136C140.587 141.051 140.619 140.987 140.672 140.944C140.715 140.891 140.779 140.864 140.864 140.864V142ZM153.733 142V140.864H155.685V142H153.733ZM152.501 142V130.528H153.733V142H152.501ZM155.685 142V140.864C155.749 140.864 155.802 140.88 155.845 140.912C155.888 140.933 155.92 140.971 155.941 141.024C155.962 141.067 155.978 141.125 155.989 141.2C156 141.264 156.005 141.339 156.005 141.424C156.005 141.509 156 141.589 155.989 141.664C155.978 141.739 155.962 141.803 155.941 141.856C155.92 141.899 155.888 141.936 155.845 141.968C155.802 141.989 155.749 142 155.685 142ZM164.319 142V140.864H166.047V142H164.319ZM155.519 142C155.455 142 155.401 141.989 155.359 141.968C155.316 141.936 155.284 141.899 155.263 141.856C155.241 141.803 155.225 141.739 155.215 141.664C155.204 141.589 155.199 141.509 155.199 141.424C155.199 141.307 155.209 141.211 155.231 141.136C155.241 141.051 155.273 140.987 155.327 140.944C155.369 140.891 155.433 140.864 155.519 140.864V142ZM155.519 142V140.864H163.519L163.071 141.264V138.416C163.071 137.84 162.991 137.365 162.831 136.992C162.681 136.608 162.452 136.325 162.143 136.144C161.844 135.952 161.465 135.856 161.007 135.856H157.519L156.607 134.48L157.295 133.152C157.423 132.917 157.556 132.677 157.695 132.432C157.833 132.187 158.004 131.904 158.207 131.584C158.409 131.264 158.665 130.875 158.975 130.416L160.015 131.04C159.705 131.509 159.455 131.899 159.263 132.208C159.071 132.517 158.905 132.784 158.767 133.008C158.639 133.232 158.516 133.456 158.399 133.68L157.599 135.216L157.279 134.72H161.007C161.679 134.72 162.228 134.837 162.655 135.072C163.092 135.296 163.428 135.595 163.663 135.968C163.908 136.341 164.079 136.747 164.175 137.184C164.271 137.611 164.319 138.021 164.319 138.416V142H155.519ZM166.047 142V140.864C166.111 140.864 166.164 140.88 166.207 140.912C166.249 140.933 166.281 140.971 166.303 141.024C166.324 141.067 166.34 141.125 166.351 141.2C166.361 141.264 166.367 141.339 166.367 141.424C166.367 141.509 166.361 141.589 166.351 141.664C166.34 141.739 166.324 141.803 166.303 141.856C166.281 141.899 166.249 141.936 166.207 141.968C166.164 141.989 166.111 142 166.047 142ZM167.821 142V130.528H169.069V142H167.821ZM165.885 142V140.864H167.821V142H165.885ZM165.885 142C165.821 142 165.768 141.989 165.725 141.968C165.682 141.936 165.65 141.899 165.629 141.856C165.608 141.803 165.592 141.739 165.581 141.664C165.57 141.589 165.565 141.509 165.565 141.424C165.565 141.307 165.576 141.211 165.597 141.136C165.608 141.051 165.64 140.987 165.693 140.944C165.736 140.891 165.8 140.864 165.885 140.864V142ZM171.662 142V130.528H172.894V142H171.662ZM181.817 142C180.889 142 180.163 141.861 179.641 141.584C179.129 141.296 178.766 140.859 178.553 140.272C178.35 139.675 178.249 138.917 178.249 138C178.249 137.083 178.35 136.331 178.553 135.744C178.766 135.147 179.129 134.709 179.641 134.432C180.163 134.144 180.889 134 181.817 134H185.129V141.36H183.881V134.592L184.521 135.136H181.817C181.198 135.136 180.718 135.211 180.377 135.36C180.046 135.509 179.817 135.792 179.689 136.208C179.561 136.613 179.497 137.211 179.497 138C179.497 138.789 179.561 139.392 179.689 139.808C179.817 140.213 180.046 140.491 180.377 140.64C180.718 140.789 181.198 140.864 181.817 140.864H186.857V142H181.817ZM186.857 142V140.864C186.921 140.864 186.974 140.88 187.017 140.912C187.059 140.933 187.091 140.971 187.113 141.024C187.134 141.067 187.15 141.125 187.161 141.2C187.171 141.264 187.177 141.339 187.177 141.424C187.177 141.509 187.171 141.589 187.161 141.664C187.15 141.739 187.134 141.803 187.113 141.856C187.091 141.899 187.059 141.936 187.017 141.968C186.974 141.989 186.921 142 186.857 142ZM191.506 133.136C191.154 133.136 190.888 133.008 190.706 132.752C190.525 132.485 190.434 132.123 190.434 131.664V131.168H191.01V131.664C191.01 131.995 191.053 132.229 191.138 132.368C191.224 132.496 191.346 132.56 191.506 132.56C191.752 132.56 191.912 132.427 191.986 132.16C192.072 131.893 192.061 131.461 191.954 130.864L192.514 130.752C192.653 131.488 192.642 132.069 192.482 132.496C192.322 132.923 191.997 133.136 191.506 133.136ZM189.938 133.136C189.448 133.136 189.122 132.923 188.962 132.496C188.802 132.069 188.792 131.488 188.93 130.752L189.49 130.864C189.384 131.461 189.373 131.893 189.458 132.16C189.544 132.427 189.704 132.56 189.938 132.56C190.098 132.56 190.221 132.496 190.306 132.368C190.392 132.229 190.434 131.995 190.434 131.664V131.168H191.01V131.664C191.01 132.123 190.92 132.485 190.738 132.752C190.557 133.008 190.29 133.136 189.938 133.136ZM186.529 142V140.864H193.585L193.201 141.2V137.232C193.201 136.539 192.982 136.021 192.545 135.68C192.118 135.328 191.462 135.152 190.577 135.152C190.299 135.152 189.899 135.179 189.377 135.232C188.854 135.275 188.305 135.339 187.729 135.424L187.585 134.4C188.022 134.293 188.502 134.203 189.025 134.128C189.547 134.043 190.054 134 190.545 134C191.355 134 192.049 134.128 192.625 134.384C193.211 134.629 193.659 134.992 193.969 135.472C194.289 135.952 194.449 136.539 194.449 137.232V142H186.529ZM186.529 142C186.465 142 186.411 141.989 186.369 141.968C186.326 141.936 186.294 141.899 186.273 141.856C186.251 141.803 186.235 141.739 186.225 141.664C186.214 141.589 186.209 141.509 186.209 141.424C186.209 141.307 186.219 141.211 186.241 141.136C186.251 141.051 186.283 140.987 186.337 140.944C186.379 140.891 186.443 140.864 186.529 140.864V142ZM189.921 144.88V143.44H191.169V144.88H189.921ZM198.967 145.536C198.593 145.536 198.193 145.504 197.767 145.44C197.351 145.387 196.892 145.307 196.391 145.2L196.583 144.192C197.148 144.267 197.617 144.32 197.991 144.352C198.375 144.384 198.7 144.4 198.967 144.4C199.852 144.4 200.497 144.229 200.903 143.888C201.308 143.557 201.511 143.072 201.511 142.432V134.72L202.151 135.136H199.447C198.828 135.136 198.348 135.211 198.007 135.36C197.676 135.509 197.447 135.792 197.319 136.208C197.191 136.613 197.127 137.211 197.127 138C197.127 138.789 197.191 139.392 197.319 139.808C197.447 140.213 197.676 140.491 198.007 140.64C198.348 140.789 198.828 140.864 199.447 140.864H201.511V142H199.447C198.519 142 197.793 141.861 197.271 141.584C196.759 141.296 196.396 140.859 196.183 140.272C195.98 139.675 195.879 138.917 195.879 138C195.879 137.083 195.98 136.331 196.183 135.744C196.396 135.147 196.759 134.709 197.271 134.432C197.793 134.144 198.519 134 199.447 134H202.759V142.416C202.759 143.077 202.604 143.643 202.295 144.112C201.996 144.581 201.564 144.933 200.999 145.168C200.433 145.413 199.756 145.536 198.967 145.536Z" fill="#555555"/>
<defs>
<clipPath id="clip0_352_1164">
<rect width="258.99" height="183.94" fill="white"/>
</clipPath>
</defs>
</svg>
