<?xml version="1.0" encoding="UTF-8"?>
<svg version="1.1" xmlns="http://www.w3.org/2000/svg" width="40" height="40">
<path d="M0 0 C4.93118269 3.48790971 8.5680539 7.03910339 10.5625 12.8125 C11.21618007 19.32243717 11.46933101 25.28904926 7.5625 30.8125 C3.59106263 35.42795424 -0.07287047 38.47464862 -6.27734375 39.09765625 C-13.77681652 39.31086747 -18.33689161 38.48046536 -24.125 33.5 C-29.10546536 27.71189161 -29.93586747 23.15181652 -29.72265625 15.65234375 C-29.09964862 9.44787047 -26.05295424 5.78393737 -21.4375 1.8125 C-15.20820182 -2.59358896 -7.02670166 -2.42740603 0 0 Z " fill="#FAFAFA" transform="translate(29.4375,1.1875)"/>
<path d="M0 0 C0.33 1.32 0.66 2.64 1 4 C1.66 4 2.32 4 3 4 C3.33 2.68 3.66 1.36 4 0 C4 1.32 4 2.64 4 4 C5.32 4 6.64 4 8 4 C8.33 3.34 8.66 2.68 9 2 C9.928125 2.2784375 9.928125 2.2784375 10.875 2.5625 C13.04160178 3.23686176 13.04160178 3.23686176 15 2 C14.29063563 8.38427935 12.69587876 12.31354201 7.85546875 16.625 C3.07245394 20.16946571 -2.19683109 20.67873321 -8 20 C-14.66111204 18.21577356 -19.39188243 13.87607718 -23 8 C-23.22265625 4.70703125 -23.22265625 4.70703125 -23 2 C-22.01 2.495 -22.01 2.495 -21 3 C-19.57457046 3.07177389 -18.14582459 3.08392397 -16.71875 3.0625 C-15.87699219 3.05476563 -15.03523437 3.04703125 -14.16796875 3.0390625 C-13.28753906 3.02617187 -12.40710937 3.01328125 -11.5 3 C-9.76047836 2.97453116 -8.02088465 2.95348439 -6.28125 2.9375 C-5.50845703 2.92589844 -4.73566406 2.91429687 -3.93945312 2.90234375 C-2 3 -2 3 0 4 C0 2.68 0 1.36 0 0 Z " fill="#FEFEFE" transform="translate(24,19)"/>
<path d="M0 0 C0.66 0 1.32 0 2 0 C2.33 0.66 2.66 1.32 3 2 C3.66 1.34 4.32 0.68 5 0 C19.375 0 19.375 0 23 1 C22.67 2.65 22.34 4.3 22 6 C21.443125 5.814375 20.88625 5.62875 20.3125 5.4375 C18.0171854 4.84849992 18.0171854 4.84849992 15.8125 5.46875 C12.39072779 6.11508475 9.16759518 6.09502425 5.6875 6.0625 C4.43324219 6.05347656 3.17898437 6.04445313 1.88671875 6.03515625 C0.93410156 6.02355469 -0.01851562 6.01195312 -1 6 C-0.67 4.02 -0.34 2.04 0 0 Z " fill="#A9A9A9" transform="translate(15,17)"/>
<path d="M0 0 C-0.33 1.65 -0.66 3.3 -1 5 C-1.61875 4.814375 -2.2375 4.62875 -2.875 4.4375 C-5.04160178 3.76313824 -5.04160178 3.76313824 -7 5 C-7.66 4.67 -8.32 4.34 -9 4 C-8.1875 2.0625 -8.1875 2.0625 -7 0 C-3.86650268 -1.04449911 -3.01031744 -0.93423645 0 0 Z " fill="#ABABAB" transform="translate(38,18)"/>
<path d="M0 0 C0.66 0 1.32 0 2 0 C2.33 0.66 2.66 1.32 3 2 C3.66 1.34 4.32 0.68 5 0 C5.99 0 6.98 0 8 0 C8 0.99 8 1.98 8 3 C7.34 3 6.68 3 6 3 C6 3.99 6 4.98 6 6 C3.69 6 1.38 6 -1 6 C-0.67 4.02 -0.34 2.04 0 0 Z " fill="#A1A1A1" transform="translate(15,17)"/>
<path d="M0 0 C2.0625 0.4375 2.0625 0.4375 4 1 C4 1.66 4 2.32 4 3 C3.01 3.33 2.02 3.66 1 4 C1.99 4.33 2.98 4.66 4 5 C2.68 5.33 1.36 5.66 0 6 C-0.38218767 4.34385343 -0.71395102 2.67542976 -1 1 C-0.67 0.67 -0.34 0.34 0 0 Z " fill="#A2A2A2" transform="translate(3,17)"/>
<path d="M0 0 C0.99 0 1.98 0 3 0 C3 1.32 3 2.64 3 4 C3.66 4 4.32 4 5 4 C5 4.66 5 5.32 5 6 C3.35 6 1.7 6 0 6 C0 4.02 0 2.04 0 0 Z " fill="#A4A4A4" transform="translate(8,17)"/>
</svg>
