<svg width="24" height="24" viewBox="0 0 24 24" fill="none" xmlns="http://www.w3.org/2000/svg">
<g clip-path="url(#clip0_2222_6985)">
<path d="M12 2C6.48583 2 2 6.48583 2 12C2 17.5142 6.48583 22 12 22C17.5142 22 22 17.5142 22 12C22 6.48583 17.5142 2 12 2ZM17.8333 12C17.8333 12.4602 17.4602 12.8333 17 12.8333H12.5C11.7636 12.8333 11.1667 12.2364 11.1667 11.5V7C11.1667 6.53976 11.5398 6.16667 12 6.16667C12.4602 6.16667 12.8333 6.53976 12.8333 7V11.1667H17C17.4602 11.1667 17.8333 11.5398 17.8333 12Z" fill="url(#paint0_linear_2222_6985)"/>
</g>
<defs>
<linearGradient id="paint0_linear_2222_6985" x1="12" y1="2" x2="12" y2="22" gradientUnits="userSpaceOnUse">
<stop stop-color="#4D99F2"/>
<stop offset="1" stop-color="#4CC8FA"/>
</linearGradient>
<clipPath id="clip0_2222_6985">
<rect width="20" height="20" fill="white" transform="translate(2 2)"/>
</clipPath>
</defs>
</svg>
