<svg width="24" height="24" viewBox="0 0 24 24" fill="none" xmlns="http://www.w3.org/2000/svg">
<path d="M10 16V9.5C10 8.83696 10.2634 8.20107 10.7322 7.73223C11.2011 7.26339 11.837 7 12.5 7C13.163 7 13.7989 7.26339 14.2678 7.73223C14.7366 8.20107 15 8.83696 15 9.5" stroke="#4CB7F7" stroke-width="2" stroke-linecap="round" stroke-linejoin="round"/>
<path d="M8 12H12" stroke="#4CB7F7" stroke-width="2" stroke-linecap="round" stroke-linejoin="round"/>
<path d="M8 16H15" stroke="#4CB7F7" stroke-width="2" stroke-linecap="round" stroke-linejoin="round"/>
<path d="M12 22C17.5228 22 22 17.5228 22 12C22 6.47715 17.5228 2 12 2C6.47715 2 2 6.47715 2 12C2 17.5228 6.47715 22 12 22Z" stroke="#4CB7F7" stroke-width="2" stroke-linecap="round" stroke-linejoin="round"/>
</svg>
