<svg width="40" height="40" viewBox="0 0 40 40" fill="none" xmlns="http://www.w3.org/2000/svg">
<circle cx="20" cy="20" r="19.5" fill="#EAF6FF" stroke="#EAF6FF"/>
<path d="M28.9869 20.4727C28.8932 22.2089 28.2986 23.8807 27.275 25.2861C26.2514 26.6916 24.8426 27.7704 23.2189 28.3923C21.5953 29.0141 19.8262 29.1523 18.1257 28.7903C16.4251 28.4282 14.8659 27.5813 13.6364 26.3519C12.4069 25.1225 11.5598 23.5633 11.1975 21.8628C10.8353 20.1623 10.9733 18.3933 11.595 16.7695C12.2167 15.1458 13.2954 13.7369 14.7007 12.7132C16.106 11.6894 17.7778 11.0946 19.5139 11.0007C19.9189 10.9787 20.1309 11.4607 19.9159 11.8037C19.1968 12.9543 18.8889 14.3146 19.0424 15.6627C19.1959 17.0108 19.8018 18.267 20.7612 19.2264C21.7206 20.1858 22.9769 20.7917 24.325 20.9452C25.673 21.0988 27.0334 20.7908 28.1839 20.0717C28.5279 19.8567 29.0089 20.0677 28.9869 20.4727Z" stroke="#4CB7F7" stroke-width="2" stroke-linecap="round" stroke-linejoin="round"/>
</svg>
