<svg width="24" height="24" viewBox="0 0 24 24" fill="none" xmlns="http://www.w3.org/2000/svg">
<path d="M0.356226 11.151L11.1562 0.351C11.6242 -0.117 12.3862 -0.117 12.8482 0.351L23.6482 11.151C24.1162 11.619 24.1162 12.381 23.6482 12.849L12.8482 23.643V23.649C12.3802 24.117 11.6182 24.117 11.1502 23.649L0.350208 12.849C-0.117737 12.375 -0.117737 11.619 0.356226 11.151ZM9.60226 14.997V11.997H14.4022V15.597H16.8023V10.797C16.8028 10.6393 16.7721 10.483 16.712 10.3371C16.6519 10.1913 16.5635 10.0588 16.452 9.94727C16.3405 9.83573 16.208 9.74736 16.0621 9.68725C15.9163 9.62714 15.76 9.59648 15.6023 9.59703H9.60226V6.59699L5.40224 10.797L9.60226 14.997Z" fill="#4CB7F7"/>
</svg>
