<svg width="27" height="18" viewBox="0 0 27 18" fill="none" xmlns="http://www.w3.org/2000/svg">
<path d="M0 12.8066C0 12.2544 0.447715 11.8066 1 11.8066H25.6667C26.219 11.8066 26.6667 12.2544 26.6667 12.8066V16.7099C26.6667 17.2622 26.219 17.7099 25.6667 17.7099H0.999999C0.447714 17.7099 0 17.2622 0 16.7099V12.8066Z" fill="black"/>
<path d="M0 6.90332C0 6.35104 0.447715 5.90332 1 5.90332H25.6667C26.219 5.90332 26.6667 6.35104 26.6667 6.90332V10.8066C26.6667 11.3589 26.219 11.8066 25.6667 11.8066H0.999999C0.447714 11.8066 0 11.3589 0 10.8066V6.90332Z" fill="white"/>
<path d="M0 1C0 0.447717 0.447715 0 1 0H25.6667C26.219 0 26.6667 0.447715 26.6667 1V4.90328C26.6667 5.45556 26.219 5.90328 25.6667 5.90328H0.999999C0.447714 5.90328 0 5.45557 0 4.90328V1Z" fill="#CE1126"/>
<path d="M13.4493 9.03429L14.6563 10.1549L14.5704 8.11974C14.5578 7.81131 14.2898 7.88205 14.0951 7.99333C13.8978 8.11974 13.6728 8.11974 13.4351 8.03629C13.1974 8.11974 12.9724 8.11974 12.7751 7.99333C12.5805 7.88207 12.3125 7.81131 12.2998 8.11974L12.2139 10.1549L13.4493 9.03429H13.4493Z" fill="white" stroke="#C09300" stroke-width="1.016" stroke-linejoin="round"/>
<path d="M12.4389 8.04858L12.3555 10.0282L12.2139 10.1545L12.2998 8.11939C12.3402 8.09159 12.411 8.04858 12.4388 8.04858H12.4389ZM12.6086 8.19029L12.5377 9.84622L12.3962 9.9911L12.4821 8.07899C12.5099 8.10679 12.5934 8.17504 12.6085 8.1902L12.6086 8.19029ZM12.7628 8.31666L12.7072 9.69778L12.5934 9.80899L12.6642 8.23323C12.6919 8.26103 12.7475 8.3015 12.7627 8.31666H12.7628ZM12.9297 8.38751L12.874 9.56462L12.7628 9.65495L12.8184 8.34455C12.8462 8.35719 12.9018 8.38751 12.9296 8.38751H12.9297ZM13.0839 8.38751L13.0433 9.36841L12.9295 9.47967L12.9725 8.40015C13.0003 8.40015 13.0711 8.40015 13.0838 8.38751H13.0839Z" fill="#C09300"/>
<path d="M14.4312 8.04885L14.5146 10.0285L14.6562 10.1548L14.5703 8.11965C14.5299 8.09185 14.4591 8.04885 14.4313 8.04885H14.4312ZM14.2616 8.19055L14.3324 9.84648L14.4739 9.99136L14.388 8.07925C14.3602 8.10705 14.2767 8.1753 14.2616 8.19046L14.2616 8.19055ZM14.1073 8.31692L14.163 9.69804L14.2767 9.80925L14.206 8.23349C14.1782 8.26129 14.1226 8.30176 14.1074 8.31692H14.1073ZM13.9404 8.38777L13.9961 9.56488L14.1073 9.65521L14.0517 8.34481C14.0239 8.35746 13.9683 8.38777 13.9405 8.38777H13.9404ZM13.7862 8.38777L13.8268 9.36868L13.9406 9.47993L13.8976 8.40042C13.8698 8.40042 13.799 8.40042 13.7863 8.38777H13.7862Z" fill="white" stroke="#C09300" stroke-width="0.8"/>
<path d="M13.4907 9.25757L13.6601 10.0287L13.6045 10.0843L13.5463 10.0413L13.4503 9.35358L13.4907 10.0413L13.435 10.1121L13.3794 10.0414L13.4198 9.35369L13.3238 10.0414L13.2656 10.0844L13.21 10.0288L13.3793 9.25768H13.4906L13.4907 9.25757Z" fill="#C09300" stroke="#C09300" stroke-width="0.859"/>
<path d="M13.056 8.91848L12.7197 10.1118L13.1824 10.1826L13.3796 9.28505L13.0559 8.91846L13.056 8.91848Z" fill="white" stroke="#C09300" stroke-width="0.951" stroke-linejoin="round"/>
<path d="M12.9453 9.32582L12.9858 9.42439L13.2044 9.21558" stroke="#C09300" stroke-width="1.016" stroke-linejoin="round"/>
<path d="M13.0959 9.07886L13.1416 9.50795L13.2808 9.32591M13.2251 9.39663L13.3011 9.6588M13.3309 9.56248L13.1772 9.79583M13.2252 10.0288L13.1759 9.79627L13.133 9.55968L13.03 9.69909L12.9849 9.53827L12.8408 9.68605L12.9141 9.95483L13.0152 9.78854L13.0708 9.95796L13.1746 9.79647" stroke="#C09300" stroke-width="1.016" stroke-linejoin="round"/>
<path d="M12.8184 10.0841L12.9118 9.95288L12.9726 10.1548L13.0561 10.0132L13.1117 10.1827" stroke="#C09300" stroke-width="1.016" stroke-linejoin="round"/>
<path d="M13.8141 8.91877L14.1504 10.1121L13.6877 10.1829L13.4906 9.28534L13.8142 8.91875L13.8141 8.91877Z" fill="white" stroke="#C09300" stroke-width="0.951" stroke-linejoin="round"/>
<path d="M13.9258 9.32575L13.8853 9.42432L13.6667 9.21551" stroke="#C09300" stroke-width="1.016" stroke-linejoin="round"/>
<path d="M13.7742 9.07888L13.7285 9.50798L13.5894 9.32593M13.645 9.39665L13.569 9.65882M13.5392 9.5625L13.6929 9.79585M13.645 10.0288L13.6942 9.79629L13.7371 9.5597L13.8401 9.69912L13.8852 9.53829L14.0293 9.68607L13.956 9.95485L13.8549 9.78856L13.7993 9.95798L13.6955 9.79649" stroke="#C09300" stroke-width="1.016" stroke-linejoin="round"/>
<path d="M14.0518 10.0842L13.9583 9.95303L13.8975 10.155L13.814 10.0134L13.7584 10.1829" stroke="#C09300" stroke-width="1.016" stroke-linejoin="round"/>
<path d="M13.4352 10.6452C13.7866 10.6452 14.123 10.6174 14.3202 10.5617C14.4036 10.5466 14.4036 10.5036 14.4036 10.448C14.4871 10.4202 14.4441 10.3216 14.5022 10.3216C14.4441 10.3368 14.4314 10.223 14.3606 10.2382C14.3606 10.1396 14.262 10.1269 14.1786 10.1547C14.0117 10.2104 13.7159 10.223 13.4352 10.223C13.1545 10.2103 12.8612 10.2103 12.6918 10.1547C12.6083 10.1269 12.5098 10.1396 12.5098 10.2382C12.4389 10.223 12.4263 10.3368 12.3682 10.3216C12.4263 10.3216 12.3833 10.4202 12.4668 10.448C12.4668 10.5036 12.4668 10.5466 12.5527 10.5617C12.7473 10.6174 13.0836 10.6452 13.4351 10.6452L13.4352 10.6452Z" fill="white" stroke="white" stroke-width="1.902" stroke-linecap="round" stroke-linejoin="round"/>
<path d="M12.9568 10.1114C13.0706 10.1265 13.197 10.1392 13.2957 10.1265C13.3512 10.1265 13.3917 10.2226 13.2805 10.2378C13.1682 10.247 13.0552 10.2419 12.9442 10.2226C12.8734 10.21 12.7192 10.1822 12.6205 10.1543C12.5219 10.1114 12.5927 10.028 12.6483 10.0406C12.7489 10.0729 12.8521 10.0966 12.9568 10.1114H12.9568ZM13.9126 10.1114C13.7988 10.1265 13.6725 10.1392 13.5763 10.1265C13.5181 10.1265 13.4777 10.2226 13.589 10.2378C13.7012 10.247 13.8142 10.2419 13.9252 10.2226C13.996 10.21 14.1503 10.1822 14.2488 10.1543C14.3475 10.1114 14.2767 10.028 14.221 10.0406C14.1204 10.0729 14.0173 10.0966 13.9126 10.1114Z" fill="white" stroke="white" stroke-width="1.016" stroke-linecap="round" stroke-linejoin="round"/>
<path d="M12.6083 10.056C12.5223 10.0409 12.4818 10.1394 12.5097 10.195C12.5223 10.1672 12.5805 10.1672 12.5931 10.1394C12.6083 10.0965 12.5805 10.0965 12.6083 10.056ZM12.9445 10.3146C12.9445 10.259 13.0001 10.2658 13.0001 10.2102C13.0001 10.1824 12.985 10.1394 12.9572 10.1394C12.9427 10.1403 12.9292 10.1465 12.9189 10.1567C12.9087 10.167 12.9025 10.1806 12.9015 10.195C12.8889 10.2507 12.9445 10.2589 12.9445 10.3145V10.3146ZM13.3448 10.1545C13.4282 10.1545 13.4199 10.2658 13.3795 10.3214C13.3795 10.281 13.3086 10.2658 13.3086 10.238C13.3086 10.195 13.3725 10.195 13.3448 10.1545H13.3448ZM14.2618 10.056C14.3477 10.0409 14.3882 10.1394 14.3604 10.195C14.3478 10.1672 14.2896 10.1672 14.277 10.1394C14.2618 10.0965 14.2897 10.0965 14.2618 10.056H14.2618ZM13.9255 10.3146C13.9255 10.259 13.87 10.2658 13.87 10.2102C13.87 10.1824 13.8851 10.1394 13.9129 10.1394C13.9274 10.1403 13.9409 10.1465 13.9512 10.1568C13.9614 10.167 13.9676 10.1806 13.9686 10.195C13.9812 10.2507 13.9256 10.2589 13.9256 10.3145L13.9255 10.3146ZM13.5254 10.1545C13.442 10.1545 13.4502 10.2658 13.4907 10.3214C13.4907 10.281 13.5614 10.2658 13.5614 10.238C13.5614 10.195 13.4975 10.195 13.5254 10.1545Z" fill="white" stroke="white" stroke-width="1.016" stroke-linecap="round" stroke-linejoin="round"/>
<path d="M12.6358 10.084C12.6659 10.0839 12.6953 10.0937 12.7193 10.1118L12.6357 10.084L12.6358 10.084ZM12.7746 10.127C12.8088 10.1308 12.8421 10.1402 12.8733 10.1548L12.7746 10.1269L12.7746 10.127ZM13.2805 10.1826C13.2527 10.1826 13.197 10.1826 13.1819 10.1952L13.2804 10.1825L13.2805 10.1826ZM13.1262 10.1826C13.1111 10.1673 13.0555 10.1673 13.0277 10.1826H13.1263H13.1262ZM14.2338 10.084C14.2037 10.0843 14.1745 10.094 14.1503 10.1118L14.2338 10.084ZM14.0947 10.127C14.0605 10.1308 14.0272 10.1402 13.9961 10.1548L14.0948 10.1269L14.0947 10.127ZM13.589 10.1826C13.6168 10.1826 13.6724 10.1826 13.6876 10.1952L13.5889 10.1825L13.589 10.1826ZM13.7432 10.1826C13.7584 10.1673 13.814 10.1673 13.8418 10.1826H13.7432Z" fill="white" stroke="white" stroke-width="0.713" stroke-linecap="round" stroke-linejoin="round"/>
<path d="M12.6122 10.3064C12.6102 10.3062 12.6082 10.3056 12.6064 10.3045C12.6046 10.3034 12.6031 10.302 12.6019 10.3003C12.6008 10.2985 12.6 10.2966 12.5998 10.2945C12.5995 10.2925 12.5996 10.2904 12.6002 10.2884C12.6031 10.2776 12.6117 10.2715 12.6198 10.2744C12.625 10.2762 12.6345 10.2858 12.6345 10.2892C12.6345 10.2931 12.6296 10.3024 12.6274 10.3024C12.6262 10.3026 12.625 10.3032 12.6242 10.3042C12.6225 10.3054 12.6205 10.3062 12.6185 10.3066C12.6164 10.307 12.6143 10.3069 12.6122 10.3064V10.3064ZM13.5804 10.3755C13.5781 10.3741 13.5761 10.3723 13.5745 10.3701C13.573 10.3679 13.5719 10.3654 13.5713 10.3628C13.5721 10.3586 13.574 10.3546 13.5769 10.3515C13.5798 10.3483 13.5835 10.346 13.5877 10.3448C13.5931 10.346 13.5982 10.3486 13.6023 10.3524C13.6037 10.354 13.6047 10.3557 13.6053 10.3577C13.6059 10.3596 13.606 10.3617 13.6058 10.3637C13.6055 10.3657 13.6048 10.3676 13.6038 10.3694C13.6027 10.3711 13.6013 10.3726 13.5996 10.3737C13.5936 10.3767 13.5868 10.3773 13.5804 10.3755V10.3755ZM13.5867 10.4192C13.5835 10.4185 13.5806 10.4167 13.5787 10.4141C13.5767 10.4114 13.5758 10.4082 13.576 10.4049C13.5753 10.3964 13.5762 10.395 13.5852 10.3901L13.5917 10.3866L13.5978 10.3893C13.6062 10.3931 13.61 10.3972 13.6103 10.4028C13.6102 10.4062 13.609 10.4095 13.607 10.4123C13.605 10.4151 13.6022 10.4172 13.599 10.4184C13.5973 10.4197 13.5952 10.4204 13.593 10.4206C13.5908 10.4208 13.5886 10.4203 13.5867 10.4193V10.4192Z" fill="#C09300"/>
<path d="M12.6903 10.2271C12.6833 10.2283 12.6767 10.2311 12.6711 10.2354C12.6596 10.238 12.6463 10.2451 12.6353 10.2376C12.6244 10.2342 12.6099 10.2369 12.6083 10.2502C12.6091 10.2531 12.6106 10.2557 12.6127 10.2578C12.6147 10.26 12.6172 10.2616 12.62 10.2626C12.6227 10.2636 12.6257 10.264 12.6287 10.2637C12.6316 10.2633 12.6344 10.2623 12.6369 10.2607C12.6441 10.2512 12.6639 10.2457 12.6661 10.2618C12.658 10.274 12.6589 10.2901 12.6523 10.3031C12.651 10.3111 12.648 10.3188 12.6435 10.3256C12.6353 10.3251 12.6271 10.3268 12.6198 10.3306C12.6142 10.3309 12.6087 10.3324 12.6037 10.3351C12.5988 10.3377 12.5945 10.3415 12.5912 10.346C12.5834 10.3557 12.5779 10.367 12.5752 10.3791C12.5771 10.3919 12.5917 10.3955 12.6027 10.3962C12.6145 10.3994 12.6262 10.4036 12.6379 10.4072C12.6571 10.4115 12.675 10.4184 12.6942 10.4226C12.7221 10.431 12.7514 10.4349 12.7795 10.4424C12.7824 10.4435 12.7853 10.4442 12.7883 10.4447C12.8 10.4471 12.8061 10.4344 12.807 10.4248C12.8129 10.4044 12.8173 10.3836 12.823 10.3631C12.827 10.3549 12.8318 10.3364 12.8159 10.3405C12.8079 10.3476 12.7982 10.3525 12.7878 10.3549C12.7724 10.3557 12.7812 10.3715 12.7873 10.378C12.7879 10.3835 12.7874 10.389 12.7859 10.3943C12.7844 10.3996 12.7819 10.4045 12.7785 10.4088C12.7693 10.4146 12.7578 10.4078 12.7481 10.4055C12.738 10.4057 12.7178 10.4005 12.7272 10.3868C12.7306 10.3766 12.7309 10.3655 12.7349 10.3554C12.7391 10.3444 12.7419 10.3329 12.7432 10.3213C12.7369 10.3076 12.726 10.3257 12.7173 10.3273C12.7114 10.3314 12.6891 10.3332 12.7008 10.3438C12.7109 10.3515 12.7032 10.3649 12.7013 10.3747C12.7007 10.3883 12.6866 10.3915 12.6755 10.3884C12.6645 10.3879 12.649 10.3796 12.6584 10.3675C12.6606 10.3574 12.6641 10.3474 12.6661 10.3372C12.6703 10.3249 12.6738 10.3132 12.6782 10.3009C12.6802 10.29 12.6839 10.2796 12.6892 10.27C12.6896 10.2579 12.6977 10.2475 12.6975 10.2353C12.6967 10.2293 12.694 10.2272 12.6904 10.2271L12.6903 10.2271ZM12.627 10.3549C12.6283 10.3546 12.6297 10.3548 12.6309 10.3554C12.6353 10.3573 12.6353 10.3609 12.6309 10.3648C12.6294 10.3662 12.6278 10.3673 12.6259 10.3681C12.6176 10.3674 12.6152 10.3662 12.6149 10.3632C12.6145 10.3602 12.6154 10.3597 12.6209 10.3571C12.6228 10.3561 12.6249 10.3554 12.627 10.3549H12.627ZM12.6087 10.4434C12.5999 10.4351 12.6014 10.4291 12.6143 10.4195C12.6199 10.4154 12.6231 10.4159 12.6295 10.4217C12.6393 10.4305 12.6397 10.4362 12.6311 10.4437C12.6297 10.4453 12.628 10.4465 12.6261 10.4473C12.6242 10.4481 12.6221 10.4485 12.6201 10.4483C12.6179 10.4485 12.6157 10.4482 12.6138 10.4473C12.6118 10.4464 12.6101 10.4451 12.6088 10.4434H12.6087ZM12.6625 10.4596C12.6605 10.4591 12.6586 10.4582 12.6569 10.457C12.6552 10.4557 12.6539 10.4542 12.6528 10.4524C12.6518 10.4506 12.6511 10.4486 12.6509 10.4465C12.6507 10.4445 12.6509 10.4424 12.6515 10.4404C12.6537 10.4328 12.655 10.432 12.6663 10.4319C12.6789 10.4318 12.6813 10.4338 12.6814 10.4449C12.6814 10.4512 12.681 10.4526 12.6779 10.4555C12.6758 10.4573 12.6733 10.4585 12.6706 10.4592C12.668 10.4599 12.6652 10.4601 12.6625 10.4596ZM14.233 10.461C14.229 10.4576 14.2282 10.4562 14.2282 10.4519C14.2282 10.4447 14.2323 10.4393 14.2414 10.4353C14.2534 10.4298 14.2583 10.4306 14.2629 10.4386C14.2689 10.4491 14.2686 10.4535 14.2614 10.4606C14.2574 10.4645 14.2567 10.4648 14.2475 10.4648C14.2384 10.4649 14.2376 10.4647 14.2331 10.461L14.233 10.461ZM12.7339 10.4812C12.7308 10.4804 12.7281 10.4786 12.7263 10.476C12.7245 10.4733 12.7237 10.4702 12.724 10.467C12.724 10.4611 12.7244 10.4602 12.7284 10.457C12.7314 10.4547 12.735 10.4532 12.7387 10.4526C12.7404 10.4521 12.7423 10.4521 12.7441 10.4525C12.7458 10.4529 12.7475 10.4538 12.7488 10.455C12.7585 10.4618 12.7606 10.4686 12.755 10.4751C12.7527 10.4783 12.7493 10.4807 12.7454 10.4818C12.7416 10.4829 12.7375 10.4826 12.7338 10.4811L12.7339 10.4812ZM13.1202 10.4985C13.1188 10.4968 13.1156 10.4957 13.1153 10.4934C13.1154 10.4836 13.1168 10.4739 13.1195 10.4644C13.1198 10.4551 13.121 10.4457 13.1229 10.4366C13.1262 10.4202 13.1262 10.4035 13.13 10.3872C13.13 10.3788 13.1311 10.3705 13.1334 10.3624C13.1361 10.3497 13.1336 10.3364 13.1374 10.3238C13.137 10.3191 13.1424 10.3065 13.1472 10.3139C13.1545 10.3238 13.1629 10.3327 13.1722 10.3407C13.1799 10.3451 13.1728 10.3517 13.1675 10.3539C13.1643 10.3555 13.1617 10.3582 13.1602 10.3615C13.1586 10.3647 13.1582 10.3684 13.1589 10.3719C13.1571 10.3791 13.1557 10.3863 13.1546 10.3936C13.1531 10.4046 13.1534 10.4156 13.152 10.4266C13.1499 10.4376 13.1489 10.4487 13.1489 10.4599C13.1491 10.4669 13.1458 10.4733 13.1462 10.4803C13.1465 10.4879 13.144 10.4953 13.139 10.501C13.136 10.5026 13.1326 10.5032 13.1292 10.5027C13.1258 10.5023 13.1227 10.5008 13.1202 10.4985V10.4985ZM13.6437 10.3258C13.6353 10.3324 13.6274 10.3396 13.62 10.3473C13.6095 10.3552 13.6286 10.3598 13.631 10.3666C13.6331 10.3771 13.6343 10.3878 13.6343 10.3985C13.6375 10.4083 13.6388 10.4186 13.6382 10.4288C13.6373 10.4398 13.623 10.4374 13.6167 10.4437C13.608 10.4473 13.6045 10.4558 13.598 10.4618C13.594 10.4709 13.592 10.4806 13.5919 10.4905C13.5925 10.4983 13.5866 10.5072 13.5919 10.5141C13.5926 10.5151 13.5934 10.5165 13.5941 10.5174C13.5959 10.52 13.6001 10.518 13.6029 10.5185C13.6118 10.5192 13.6208 10.5182 13.6294 10.5158C13.6507 10.5128 13.6722 10.5111 13.6938 10.5108C13.707 10.5112 13.7197 10.5066 13.7329 10.507C13.7433 10.5092 13.7479 10.4981 13.7478 10.4899C13.7419 10.4784 13.747 10.4647 13.7423 10.453C13.7397 10.4407 13.7382 10.4281 13.7379 10.4155C13.7377 10.4134 13.737 10.4114 13.7357 10.4097C13.7344 10.408 13.7326 10.4068 13.7306 10.4061C13.7285 10.4055 13.7264 10.4055 13.7243 10.4061C13.7223 10.4067 13.7205 10.4078 13.7191 10.4095C13.7131 10.4156 13.7034 10.4168 13.6988 10.4244C13.6935 10.435 13.7098 10.435 13.7125 10.4431C13.7147 10.4515 13.7156 10.4603 13.7153 10.469C13.7173 10.4794 13.706 10.48 13.6988 10.4811C13.6893 10.4846 13.676 10.487 13.6707 10.4756C13.6682 10.467 13.6669 10.4581 13.6669 10.4492C13.6666 10.4334 13.6628 10.418 13.6619 10.4024C13.661 10.383 13.6576 10.3638 13.6564 10.3445C13.6562 10.3365 13.6551 10.3234 13.6437 10.3258H13.6437ZM13.6326 10.4712L13.6381 10.4717L13.6387 10.4783L13.6392 10.4849L13.6321 10.4871C13.6297 10.4879 13.6273 10.4884 13.6249 10.4888C13.6238 10.4881 13.6227 10.4874 13.6216 10.4866C13.6177 10.4838 13.6187 10.4798 13.6238 10.4745C13.6248 10.4732 13.6262 10.4721 13.6277 10.4716C13.6293 10.471 13.631 10.4708 13.6326 10.4712L13.6326 10.4712ZM13.1045 10.3076C13.0979 10.31 13.0893 10.3198 13.0825 10.3198C13.0671 10.3209 13.0691 10.336 13.0803 10.3412C13.081 10.3463 13.0811 10.3515 13.0808 10.3566C13.083 10.3706 13.0742 10.3818 13.0759 10.3958C13.0751 10.4112 13.0705 10.426 13.0698 10.4415C13.0654 10.4574 13.0654 10.4738 13.0627 10.4899C13.0608 10.5044 13.0503 10.4993 13.0412 10.4955C13.0412 10.4892 13.0407 10.483 13.0406 10.4767C13.0445 10.4623 13.0329 10.4581 13.0214 10.4563C13.0189 10.4566 13.0163 10.4563 13.014 10.4553C13.0117 10.4543 13.0096 10.4528 13.0081 10.4508C13.0065 10.4488 13.0055 10.4464 13.0051 10.4439C13.0048 10.4414 13.005 10.4389 13.0059 10.4365C13.0111 10.4304 13.0242 10.4321 13.0324 10.431C13.0497 10.4346 13.049 10.4114 13.0401 10.4035C13.034 10.3923 13.0189 10.3874 13.0148 10.3759C13.0151 10.3683 13.0133 10.3607 13.0096 10.354C13.0059 10.3473 13.0005 10.3418 12.9938 10.3379C12.9847 10.3384 12.9758 10.3417 12.9686 10.3473C12.9613 10.3529 12.9559 10.3606 12.953 10.3693C12.9451 10.3715 12.9371 10.374 12.9294 10.377C12.9169 10.3801 12.8991 10.4018 12.9161 10.4101C12.9258 10.4127 12.9549 10.4194 12.9421 10.4326C12.9384 10.4378 12.933 10.4416 12.9269 10.4433C12.9208 10.445 12.9143 10.4446 12.9084 10.442C12.8957 10.442 12.8815 10.4358 12.882 10.4211C12.881 10.4075 12.8782 10.3942 12.8737 10.3814C12.8711 10.3666 12.8543 10.3701 12.8534 10.3836C12.8506 10.3857 12.8484 10.3883 12.8468 10.3913C12.8452 10.3943 12.8442 10.3976 12.844 10.401C12.8438 10.4044 12.8443 10.4078 12.8456 10.411C12.8468 10.4142 12.8487 10.417 12.8512 10.4194C12.853 10.426 12.8535 10.433 12.8526 10.4398C12.8516 10.4466 12.8493 10.4532 12.8456 10.4591C12.8423 10.4745 12.8253 10.475 12.8132 10.48C12.8072 10.4823 12.7845 10.4786 12.7928 10.4916C12.8063 10.4974 12.8212 10.4993 12.8357 10.4971C12.8429 10.4959 12.8497 10.4932 12.8556 10.489C12.8616 10.4848 12.8664 10.4792 12.8699 10.4728C12.8796 10.463 12.8963 10.4681 12.909 10.4679C12.9226 10.4679 12.9365 10.4774 12.9497 10.4712C12.9535 10.4613 12.9712 10.4448 12.9767 10.4619C12.9766 10.4652 12.9772 10.4684 12.9786 10.4714C12.9799 10.4745 12.982 10.4771 12.9846 10.4792C12.9871 10.4813 12.9901 10.4827 12.9933 10.4835C12.9966 10.4842 12.9999 10.4841 13.0031 10.4834C13.0183 10.4825 13.0127 10.4941 13.0125 10.5032C13.0132 10.5104 13.016 10.5172 13.0205 10.5229C13.025 10.5285 13.031 10.5328 13.0378 10.5351C13.0425 10.5362 13.0474 10.5362 13.0521 10.5351C13.0653 10.531 13.0795 10.5251 13.0835 10.5103C13.0874 10.4979 13.0905 10.4852 13.0929 10.4723C13.0968 10.4525 13.0993 10.4325 13.1006 10.4123C13.1055 10.394 13.1041 10.3747 13.1078 10.3561C13.1102 10.3423 13.1119 10.3286 13.1133 10.3148C13.1117 10.3075 13.1085 10.3062 13.1045 10.3077V10.3076ZM12.985 10.3809C12.9877 10.3812 12.9891 10.3845 12.9894 10.3902C12.9893 10.3929 12.9899 10.3955 12.9913 10.3978C12.9927 10.4 12.9947 10.4018 12.9971 10.4029C13.0003 10.4037 13.0001 10.4072 12.9966 10.4095C12.9928 10.4114 12.9886 10.4122 12.9845 10.4117C12.9804 10.412 12.9763 10.4114 12.9725 10.41C12.9687 10.4086 12.9653 10.4063 12.9624 10.4035L12.9591 10.4002L12.9641 10.3969C12.9676 10.3941 12.9709 10.3912 12.974 10.3881C12.979 10.3829 12.9823 10.3806 12.985 10.3809ZM14.1488 10.2421C14.1389 10.2426 14.1291 10.2441 14.1196 10.2465C14.1013 10.2454 14.092 10.2646 14.1097 10.274C14.1203 10.3011 14.1369 10.2684 14.1537 10.2707C14.1791 10.2757 14.1812 10.303 14.1852 10.3236C14.1873 10.3439 14.1917 10.3638 14.1984 10.3831C14.2153 10.402 14.1857 10.4138 14.173 10.3991C14.1623 10.3874 14.1392 10.373 14.1262 10.3892C14.1103 10.3959 14.1096 10.4172 14.0964 10.4233C14.0752 10.4299 14.0725 10.4036 14.0612 10.3925C14.0509 10.378 14.031 10.3767 14.0149 10.3716C14.0073 10.3561 14.0113 10.3302 13.9956 10.3198C13.9824 10.3251 13.9584 10.3498 13.9786 10.3611C13.9983 10.378 13.97 10.3858 13.961 10.3974C13.95 10.4127 13.944 10.431 13.9439 10.4497C13.9217 10.462 13.9174 10.4359 13.9147 10.4195C13.9129 10.3999 13.8964 10.4056 13.8849 10.4129C13.8682 10.4196 13.8598 10.4356 13.848 10.4481C13.8476 10.46 13.8477 10.472 13.8486 10.4839C13.8524 10.4982 13.8698 10.4915 13.8805 10.4905C13.8978 10.4833 13.9047 10.5015 13.891 10.512C13.8816 10.5239 13.8519 10.5176 13.8546 10.5368C13.8644 10.5377 13.8741 10.5377 13.8839 10.5368C13.894 10.535 13.9034 10.5302 13.9109 10.523C13.9184 10.5158 13.9235 10.5066 13.9257 10.4965C13.9282 10.4779 13.9551 10.4813 13.9698 10.4773C13.9881 10.472 14.0102 10.4706 14.0144 10.4938C14.0269 10.507 14.054 10.5217 14.0678 10.5037C14.0745 10.4996 14.0798 10.4937 14.0833 10.4867C14.0868 10.4797 14.0883 10.4719 14.0876 10.4641C14.0848 10.4502 14.11 10.4497 14.1163 10.4575C14.1254 10.4726 14.1542 10.4681 14.1681 10.4597C14.1828 10.4488 14.186 10.4296 14.2071 10.4293C14.2386 10.42 14.2712 10.4145 14.3019 10.4029C14.3267 10.3975 14.2982 10.3818 14.292 10.3726C14.273 10.3633 14.2566 10.4016 14.2352 10.3825C14.2187 10.3699 14.2198 10.3459 14.2137 10.3275C14.2096 10.3035 14.2106 10.276 14.1934 10.257C14.1875 10.2513 14.1805 10.2471 14.1728 10.2445C14.165 10.2419 14.1568 10.2411 14.1488 10.2421ZM14.0287 10.409C14.0319 10.4093 14.0349 10.4105 14.0375 10.4123C14.041 10.4138 14.0439 10.4162 14.0463 10.4192C14.0486 10.4222 14.0501 10.4257 14.0507 10.4294C14.0507 10.4331 14.0498 10.4334 14.0441 10.436C14.0414 10.4375 14.0384 10.4386 14.0353 10.4393C14.0321 10.4393 14.0243 10.433 14.0243 10.4305C14.0239 10.4277 14.0231 10.4249 14.0221 10.4222C14.02 10.4166 14.0203 10.4166 14.0232 10.4129C14.025 10.4104 14.0265 10.409 14.0287 10.409V10.409ZM14.1438 10.415C14.1465 10.4146 14.1492 10.415 14.1516 10.4161C14.1539 10.4173 14.1559 10.4193 14.1571 10.4217C14.1602 10.4275 14.1581 10.4319 14.1499 10.4354C14.1474 10.4366 14.1448 10.4375 14.1422 10.4382C14.1398 10.4371 14.1376 10.4358 14.1356 10.4343C14.1308 10.4312 14.1301 10.4297 14.1301 10.4261C14.1301 10.4205 14.1362 10.4155 14.1438 10.415ZM13.9863 10.4167C13.9882 10.4164 13.99 10.4174 13.9924 10.4194C13.9939 10.4207 13.9951 10.4223 13.996 10.4241C13.9968 10.4259 13.9973 10.4279 13.9973 10.4299C13.9978 10.4335 13.9978 10.4373 13.9973 10.4409C13.9965 10.4449 13.9964 10.4447 13.9874 10.4448C13.9761 10.4448 13.9751 10.4437 13.9753 10.4332C13.9754 10.4266 13.9755 10.4248 13.9791 10.4211C13.981 10.4189 13.9835 10.4174 13.9863 10.4167L13.9863 10.4167ZM13.8893 10.442C13.8912 10.4424 13.893 10.4433 13.8944 10.4447C13.8957 10.4461 13.8967 10.4478 13.8971 10.4497C13.8982 10.4554 13.8972 10.4579 13.8927 10.4602C13.8878 10.4623 13.8824 10.4627 13.8773 10.4613C13.8759 10.4605 13.8748 10.4593 13.874 10.458C13.8728 10.4558 13.873 10.4548 13.8745 10.4536C13.8756 10.4527 13.8767 10.4514 13.8767 10.4508C13.8773 10.449 13.8782 10.4474 13.8795 10.4459C13.8806 10.4444 13.8821 10.4432 13.8838 10.4425C13.8856 10.4418 13.8875 10.4416 13.8893 10.442V10.442ZM14.0524 10.4629C14.0552 10.4629 14.058 10.4639 14.0601 10.4657C14.0609 10.4663 14.0615 10.4671 14.0619 10.468C14.0623 10.4689 14.0625 10.4698 14.0624 10.4708C14.0624 10.4718 14.0621 10.4727 14.0616 10.4736C14.0611 10.4744 14.0604 10.4751 14.0596 10.4756C14.0531 10.4774 14.0462 10.4774 14.0397 10.4756C14.0389 10.4754 14.0381 10.4749 14.0376 10.4742C14.0371 10.4735 14.0369 10.4726 14.037 10.4717C14.037 10.4693 14.0376 10.4678 14.0419 10.4657C14.0452 10.4641 14.0487 10.4631 14.0524 10.463L14.0524 10.4629ZM13.7498 10.5479C13.7481 10.5468 13.7456 10.5458 13.7481 10.5439C13.7517 10.5393 13.7569 10.536 13.7626 10.5348C13.7723 10.5304 13.7807 10.5237 13.7869 10.5151C13.7878 10.5092 13.7943 10.5061 13.7943 10.4999C13.7949 10.4915 13.7944 10.4831 13.7928 10.4748C13.7903 10.4674 13.7851 10.4613 13.7783 10.4576C13.7739 10.454 13.7664 10.453 13.7648 10.4468C13.7638 10.4407 13.7692 10.4361 13.7711 10.4307C13.775 10.4233 13.7783 10.4155 13.7826 10.4083C13.7871 10.4032 13.7942 10.408 13.7965 10.4129C13.8 10.4177 13.8027 10.423 13.8045 10.4287C13.8101 10.4344 13.8142 10.4415 13.8165 10.4492C13.82 10.4542 13.8223 10.4601 13.8231 10.4662C13.8231 10.4736 13.8272 10.4801 13.827 10.4875C13.8277 10.4974 13.8266 10.5075 13.8236 10.517C13.8211 10.5222 13.8162 10.5253 13.8129 10.5299C13.8074 10.5354 13.8009 10.5398 13.7938 10.5429C13.7887 10.5445 13.7858 10.5504 13.7794 10.549C13.7703 10.5498 13.7612 10.5498 13.7521 10.549C13.7527 10.5499 13.7494 10.5473 13.7499 10.548L13.7498 10.5479ZM13.629 10.5558C13.6248 10.5514 13.6238 10.5495 13.6238 10.5452C13.6238 10.5409 13.6246 10.5391 13.6288 10.5349C13.6365 10.5271 13.6403 10.5269 13.6536 10.5337C13.6664 10.5401 13.6707 10.5407 13.6718 10.5361C13.673 10.5315 13.6802 10.5277 13.6873 10.5277C13.6911 10.5274 13.6948 10.5287 13.6977 10.5312C13.7021 10.5347 13.7023 10.5352 13.7025 10.5432C13.7026 10.5512 13.7025 10.5517 13.6973 10.5562C13.696 10.558 13.6942 10.5593 13.6921 10.56C13.69 10.5607 13.6877 10.5607 13.6856 10.5601C13.6825 10.5603 13.6794 10.5593 13.677 10.5574C13.6745 10.5555 13.6727 10.5528 13.672 10.5498C13.6711 10.5454 13.6696 10.5443 13.6684 10.5473C13.6674 10.5487 13.6659 10.5497 13.6642 10.55C13.6589 10.5519 13.6542 10.5549 13.6502 10.5588C13.6475 10.5606 13.6443 10.5614 13.641 10.561C13.6387 10.5614 13.6364 10.5611 13.6343 10.5601C13.6322 10.5592 13.6304 10.5577 13.6291 10.5557L13.629 10.5558ZM13.2797 10.3989C13.2736 10.3992 13.2678 10.4014 13.2631 10.4053C13.2584 10.4092 13.2552 10.4145 13.2538 10.4204C13.2565 10.4337 13.2675 10.4467 13.2604 10.4606C13.2653 10.4785 13.247 10.4853 13.2345 10.4749C13.2289 10.4571 13.2213 10.44 13.212 10.4238C13.1978 10.4198 13.1916 10.4424 13.1816 10.4502C13.1866 10.4634 13.201 10.4755 13.2026 10.4921C13.2038 10.5004 13.2025 10.5088 13.1989 10.5164C13.1952 10.524 13.1894 10.5303 13.1822 10.5345C13.1701 10.5461 13.1536 10.5419 13.1387 10.5444C13.1206 10.555 13.1519 10.5588 13.1602 10.5593C13.1692 10.561 13.1786 10.5605 13.1874 10.558C13.1963 10.5556 13.2045 10.5511 13.2114 10.545C13.225 10.5385 13.2239 10.5151 13.24 10.5125C13.268 10.5113 13.2958 10.5169 13.3237 10.5175C13.3387 10.5211 13.3619 10.5157 13.3722 10.5268C13.3733 10.5358 13.377 10.5442 13.3827 10.5511C13.3885 10.5581 13.3961 10.5632 13.4047 10.566C13.4135 10.5684 13.4227 10.5575 13.4317 10.5555C13.4487 10.55 13.4435 10.529 13.4537 10.5207C13.4828 10.5192 13.5122 10.5195 13.5413 10.5191C13.5468 10.5192 13.5485 10.5114 13.5523 10.5081C13.5517 10.4969 13.5513 10.4857 13.5495 10.4745C13.5439 10.4603 13.5505 10.442 13.5402 10.4299C13.5256 10.4259 13.5131 10.4393 13.4983 10.4404C13.49 10.4437 13.4826 10.4492 13.4772 10.4564C13.4718 10.4636 13.4684 10.4722 13.4675 10.4811C13.4578 10.497 13.4423 10.4783 13.4477 10.4652C13.4481 10.4593 13.4479 10.4534 13.4471 10.4475C13.4382 10.4368 13.4226 10.4403 13.4102 10.4387C13.3923 10.4394 13.3748 10.4356 13.3568 10.436C13.341 10.4365 13.3251 10.4356 13.3095 10.4332C13.2913 10.4327 13.2938 10.4149 13.2907 10.4024C13.2875 10.4001 13.2837 10.3989 13.2797 10.3991V10.3989ZM13.315 10.4639C13.3209 10.4641 13.3268 10.4647 13.3326 10.4656C13.3402 10.4668 13.3483 10.463 13.3557 10.4656C13.3729 10.4685 13.3901 10.4678 13.4075 10.4694C13.4118 10.47 13.4158 10.4721 13.4185 10.4755C13.4185 10.4875 13.4185 10.4997 13.4185 10.5118C13.418 10.5164 13.4199 10.5224 13.4158 10.5256C13.4145 10.5266 13.413 10.5274 13.4114 10.5278C13.4088 10.5272 13.4065 10.5261 13.4044 10.5246C13.4023 10.5231 13.4005 10.5212 13.3992 10.519C13.3989 10.5127 13.3991 10.5065 13.3998 10.5003C13.3996 10.4986 13.4005 10.4961 13.3998 10.4947C13.3961 10.492 13.3917 10.4905 13.3871 10.4903C13.3721 10.4898 13.3575 10.4888 13.3425 10.4881C13.33 10.4887 13.3175 10.4879 13.3051 10.4859C13.3004 10.4842 13.2942 10.4848 13.2913 10.4799C13.2872 10.4751 13.2931 10.4694 13.2974 10.4672C13.3029 10.4648 13.3089 10.4637 13.315 10.4639L13.315 10.4639ZM13.5138 10.4683C13.5166 10.4683 13.5175 10.4692 13.5188 10.4744C13.5196 10.4777 13.5205 10.4817 13.521 10.4832C13.5216 10.4854 13.5206 10.486 13.5177 10.4871C13.5088 10.4903 13.5003 10.49 13.4973 10.486C13.4959 10.4841 13.4975 10.4783 13.5 10.476C13.5038 10.4722 13.5085 10.4695 13.5138 10.4683H13.5138Z" fill="#C09300"/>
<path d="M13.4347 9.47161C13.6018 9.34382 13.7364 9.17851 13.8278 8.98904C13.9192 8.79957 13.9647 8.59126 13.9606 8.38095C13.9459 8.38396 13.9309 8.38548 13.9159 8.38549C13.7952 8.38549 13.5073 8.31644 13.4402 8.22876C13.3683 8.30807 13.0741 8.38549 12.9542 8.38549C12.9392 8.38552 12.9242 8.384 12.9095 8.38095C12.9052 8.59122 12.9505 8.79955 13.0417 8.98904C13.133 9.17853 13.2676 9.34386 13.4347 9.47161Z" fill="white" stroke="#C09300" stroke-width="0.92"/>
<path d="M13.9147 8.42836C13.9098 8.42867 13.9048 8.42882 13.8998 8.42882C13.7904 8.42882 13.5363 8.37273 13.4384 8.28857C13.3359 8.3663 13.0777 8.4288 12.9701 8.4288C12.965 8.42875 12.96 8.42824 12.9551 8.42728C12.9548 8.45178 12.9561 8.4772 12.9576 8.50031C12.9636 8.58707 12.9783 8.673 13.0015 8.7568C13.0719 9.01586 13.2238 9.24543 13.4346 9.41165C13.6456 9.24527 13.7976 9.01553 13.8681 8.75627C13.8914 8.67249 13.9062 8.58658 13.9122 8.49983C13.9137 8.47718 13.915 8.45237 13.9148 8.42836H13.9147Z" fill="white" stroke="#C09300" stroke-width="0.733"/>
<path d="M13.2476 8.37561C13.1577 8.40535 13.0644 8.42331 12.97 8.42901C12.965 8.42894 12.96 8.42839 12.9551 8.42738C12.9549 8.45188 12.9563 8.47755 12.9579 8.50066C12.9637 8.58727 12.9783 8.67308 13.0014 8.75675C13.0487 8.92992 13.1326 9.09089 13.2476 9.22876V8.37561ZM13.6111 8.37402V9.24204C13.7317 9.10115 13.8196 8.93523 13.8683 8.75626C13.8914 8.67259 13.906 8.58679 13.9118 8.50017C13.9133 8.47752 13.9147 8.45259 13.9146 8.42855C13.9096 8.42886 13.9047 8.42912 13.8997 8.42912C13.8014 8.42404 13.7043 8.4055 13.6111 8.37405L13.6111 8.37402Z" fill="#C09300"/>
<path d="M13.6517 8.1651C13.6634 8.1658 13.6358 8.10222 13.6358 8.10222C13.6669 8.13401 13.7843 8.14161 13.7843 8.14161C13.7138 8.11048 13.6433 7.87554 13.6517 7.6883C13.6593 7.50033 13.6247 7.4264 13.5971 7.39873C13.5618 7.36348 13.4485 7.33241 13.3739 7.32823C13.3317 7.32602 13.3386 7.36 13.3386 7.36C13.2605 7.33995 13.1825 7.33237 13.1472 7.35585C13.114 7.37789 13.1071 7.48853 13.1313 7.46918C13.19 7.42219 13.2412 7.46504 13.2764 7.51617C13.3075 7.56112 13.3054 7.68824 13.2605 7.83681C13.2135 7.99297 13.085 8.14917 13.085 8.14917C13.1548 8.14917 13.2529 8.087 13.2529 8.087L13.2294 8.18442C13.2775 8.16053 13.3221 8.13031 13.3621 8.09457L13.4326 8.16851C13.4543 8.14222 13.4779 8.11752 13.5031 8.09457C13.5435 8.13384 13.5957 8.15863 13.6517 8.16507V8.1651Z" fill="white" stroke="#C09300" stroke-width="0.974"/>
<path d="M13.3663 7.71534C13.3663 7.71534 13.3269 8.00487 13.2529 8.08711M13.4285 7.70776C13.4285 7.70776 13.4133 8.00078 13.3621 8.09474M13.4836 7.71957C13.4836 7.71957 13.4836 8.04021 13.503 8.0948M13.5534 7.73543C13.5534 7.73543 13.5693 8.00492 13.6357 8.10238" stroke="#C09300" stroke-width="1.016"/>
<path d="M13.2956 7.57511C13.2938 7.55438 13.2875 7.53432 13.2769 7.51637C13.2417 7.46526 13.1906 7.42239 13.1318 7.46938C13.1318 7.46938 13.1519 7.40721 13.1947 7.40514C13.2279 7.40307 13.3032 7.42999 13.3695 7.54332C13.3695 7.54332 13.3205 7.5323 13.3087 7.54265C13.2867 7.562 13.2955 7.57513 13.2955 7.57513L13.2956 7.57511Z" fill="#C09300" stroke="#C09300" stroke-width="0.283"/>
<path d="M13.1254 7.39246C13.1286 7.3782 13.1363 7.36535 13.1474 7.35584C13.1827 7.33236 13.2608 7.33994 13.3388 7.35998C13.3388 7.35998 13.3319 7.32615 13.3741 7.32822C13.4487 7.33236 13.562 7.36347 13.5973 7.39872C13.6085 7.41107 13.6174 7.42534 13.6235 7.44084H13.6222C13.6049 7.4166 13.5558 7.41806 13.5441 7.41942C13.5255 7.42031 13.507 7.42284 13.4888 7.427C13.4749 7.42909 13.4615 7.43378 13.4494 7.44082C13.4418 7.44703 13.4356 7.46985 13.4238 7.46985C13.4052 7.46985 13.4066 7.46505 13.4018 7.4595C13.3956 7.45192 13.3921 7.44082 13.3859 7.44152C13.3666 7.445 13.3355 7.42978 13.2961 7.39869C13.2567 7.36761 13.2415 7.35998 13.1903 7.36344C13.1775 7.36325 13.1648 7.36608 13.1533 7.37173C13.1418 7.37737 13.1317 7.38566 13.124 7.39592L13.1254 7.39246H13.1254Z" fill="#C09300" stroke="#C09300" stroke-width="0.283"/>
<path d="M13.4143 7.43819C13.4257 7.43819 13.435 7.42891 13.435 7.41746C13.435 7.40601 13.4257 7.39673 13.4143 7.39673C13.4028 7.39673 13.3936 7.40601 13.3936 7.41746C13.3936 7.42891 13.4028 7.43819 13.4143 7.43819Z" fill="white"/>
</svg>
