<svg width="259" height="184" viewBox="0 0 259 184" fill="none" xmlns="http://www.w3.org/2000/svg">
<g clip-path="url(#clip0_226_1231)">
<path d="M224 179C224 179 255.59 186.63 257 159" stroke="#0D47A1" stroke-width="4" stroke-miterlimit="10"/>
<path d="M35 181C35 181 3.41 188.63 2 161" stroke="#0D47A1" stroke-width="4" stroke-miterlimit="10"/>
<path d="M224 5.00006C224 5.00006 255.59 -2.62994 257 25.0001" stroke="#0D47A1" stroke-width="4" stroke-miterlimit="10"/>
<path d="M36 3.00006C36 3.00006 4.41 -4.62994 3 23.0001" stroke="#0D47A1" stroke-width="4" stroke-miterlimit="10"/>
</g>
<rect x="77" y="18" width="100" height="100" rx="50" fill="#FF6900"/>
<path d="M146.46 80L130.46 52C130.111 51.3844 129.605 50.8723 128.994 50.5161C128.382 50.1599 127.688 49.9722 126.98 49.9722C126.272 49.9722 125.577 50.1599 124.966 50.5161C124.355 50.8723 123.849 51.3844 123.5 52L107.5 80C107.147 80.6107 106.962 81.3038 106.964 82.009C106.966 82.7142 107.154 83.4065 107.509 84.0156C107.864 84.6248 108.374 85.1291 108.987 85.4776C109.6 85.8261 110.295 86.0063 111 86H143C143.702 85.9992 144.391 85.8139 144.999 85.4625C145.606 85.1112 146.11 84.6061 146.461 83.9982C146.812 83.3902 146.996 82.7007 146.996 81.9989C146.996 81.2971 146.811 80.6077 146.46 80Z" stroke="white" stroke-width="5" stroke-linecap="round" stroke-linejoin="round"/>
<path d="M127 62V70" stroke="white" stroke-width="5" stroke-linecap="round" stroke-linejoin="round"/>
<path d="M127 78H127.02" stroke="white" stroke-width="5" stroke-linecap="round" stroke-linejoin="round"/>
<path d="M82.0129 142V140.864H83.7409V142H82.0129ZM77.6929 145.968C76.8502 145.968 76.0875 145.813 75.4049 145.504C74.7222 145.195 74.1835 144.763 73.7889 144.208C73.3942 143.653 73.1969 143.019 73.1969 142.304C73.1969 142.08 73.2129 141.787 73.2449 141.424C73.2875 141.051 73.3355 140.64 73.3889 140.192C73.4529 139.733 73.5222 139.275 73.5969 138.816C73.6715 138.347 73.7409 137.904 73.8049 137.488L75.0369 137.68C74.9195 138.416 74.8129 139.099 74.7169 139.728C74.6315 140.347 74.5622 140.88 74.5089 141.328C74.4662 141.765 74.4449 142.091 74.4449 142.304C74.4449 142.795 74.5782 143.227 74.8449 143.6C75.1222 143.984 75.5062 144.283 75.9969 144.496C76.4875 144.72 77.0529 144.832 77.6929 144.832C78.3329 144.832 78.8822 144.731 79.3409 144.528C79.7995 144.325 80.1515 144.043 80.3969 143.68C80.6422 143.317 80.7649 142.891 80.7649 142.4V130.528H82.0129V142.4C82.0129 143.147 81.8155 143.787 81.4209 144.32C81.0369 144.853 80.5195 145.259 79.8689 145.536C79.2182 145.824 78.4929 145.968 77.6929 145.968ZM83.7409 142V140.864C83.8049 140.864 83.8582 140.88 83.9009 140.912C83.9435 140.933 83.9755 140.971 83.9969 141.024C84.0182 141.067 84.0342 141.125 84.0449 141.2C84.0555 141.264 84.0609 141.339 84.0609 141.424C84.0609 141.509 84.0555 141.589 84.0449 141.664C84.0342 141.739 84.0182 141.803 83.9969 141.856C83.9755 141.899 83.9435 141.936 83.9009 141.968C83.8582 141.989 83.8049 142 83.7409 142ZM91.4994 142V140.864H93.2274V142H91.4994ZM83.5794 142C83.5154 142 83.462 141.989 83.4194 141.968C83.3767 141.936 83.3447 141.899 83.3234 141.856C83.302 141.803 83.286 141.739 83.2754 141.664C83.2647 141.589 83.2594 141.509 83.2594 141.424C83.2594 141.307 83.27 141.211 83.2914 141.136C83.302 141.051 83.334 140.987 83.3874 140.944C83.43 140.891 83.494 140.864 83.5794 140.864V142ZM83.5794 142V140.864H90.6354L90.2514 141.2V137.232C90.2514 136.539 90.0327 136.021 89.5954 135.68C89.1687 135.328 88.5127 135.152 87.6274 135.152C87.35 135.152 86.95 135.179 86.4274 135.232C85.9047 135.275 85.3554 135.339 84.7794 135.424L84.6354 134.4C85.0727 134.293 85.5527 134.203 86.0754 134.128C86.598 134.043 87.1047 134 87.5954 134C88.406 134 89.0994 134.128 89.6754 134.384C90.262 134.629 90.71 134.992 91.0194 135.472C91.3394 135.952 91.4994 136.539 91.4994 137.232V142H83.5794ZM93.2274 142V140.864C93.2914 140.864 93.3447 140.88 93.3874 140.912C93.43 140.933 93.462 140.971 93.4834 141.024C93.5047 141.067 93.5207 141.125 93.5314 141.2C93.542 141.264 93.5474 141.339 93.5474 141.424C93.5474 141.509 93.542 141.589 93.5314 141.664C93.5207 141.739 93.5047 141.803 93.4834 141.856C93.462 141.899 93.43 141.936 93.3874 141.968C93.3447 141.989 93.2914 142 93.2274 142ZM86.9714 144.88V143.44H88.2194V144.88H86.9714ZM105.087 142V140.864H106.815V142H105.087ZM93.055 142C92.991 142 92.9377 141.989 92.895 141.968C92.8523 141.936 92.8203 141.899 92.799 141.856C92.7777 141.803 92.7617 141.739 92.751 141.664C92.7403 141.589 92.735 141.509 92.735 141.424C92.735 141.307 92.7457 141.211 92.767 141.136C92.7777 141.051 92.8097 140.987 92.863 140.944C92.9057 140.891 92.9697 140.864 93.055 140.864V142ZM101.471 142C101.108 142 100.751 141.931 100.399 141.792C100.058 141.653 99.727 141.435 99.407 141.136L100.223 140.288C100.468 140.491 100.687 140.64 100.879 140.736C101.071 140.821 101.268 140.864 101.471 140.864H104.319L103.839 141.376V137.552C103.839 137.36 103.818 137.088 103.775 136.736C103.743 136.384 103.69 135.989 103.615 135.552C103.551 135.104 103.471 134.656 103.375 134.208L104.591 134C104.666 134.373 104.74 134.789 104.815 135.248C104.89 135.707 104.954 136.144 105.007 136.56C105.06 136.965 105.087 137.296 105.087 137.552V142H101.471ZM93.055 142V140.864H95.391L95.071 141.184V135.6H96.303V142H93.055ZM96.303 142V140.864H98.111C98.4737 140.864 98.7457 140.811 98.927 140.704C99.119 140.597 99.2523 140.384 99.327 140.064C99.4017 139.744 99.439 139.275 99.439 138.656V134.8H100.687V138.656C100.687 139.488 100.596 140.149 100.415 140.64C100.244 141.131 99.9723 141.483 99.599 141.696C99.2257 141.899 98.7297 142 98.111 142H96.303ZM106.815 142V140.864C106.879 140.864 106.932 140.88 106.975 140.912C107.018 140.933 107.05 140.971 107.071 141.024C107.092 141.067 107.108 141.125 107.119 141.2C107.13 141.264 107.135 141.339 107.135 141.424C107.135 141.509 107.13 141.589 107.119 141.664C107.108 141.739 107.092 141.803 107.071 141.856C107.05 141.899 107.018 141.936 106.975 141.968C106.932 141.989 106.879 142 106.815 142ZM106.656 142V140.864H115.408L114.48 141.52V138.08C114.48 137.333 114.394 136.747 114.224 136.32C114.053 135.893 113.76 135.589 113.344 135.408C112.938 135.227 112.384 135.136 111.68 135.136C111.232 135.136 110.784 135.168 110.336 135.232C109.898 135.296 109.557 135.381 109.312 135.488L110.064 134.72C110 134.976 109.936 135.301 109.872 135.696C109.808 136.08 109.754 136.496 109.712 136.944C109.669 137.392 109.648 137.84 109.648 138.288C109.648 138.747 109.669 139.195 109.712 139.632C109.754 140.069 109.802 140.448 109.856 140.768C109.909 141.088 109.952 141.312 109.984 141.44L108.8 141.776C108.757 141.637 108.704 141.397 108.64 141.056C108.586 140.715 108.533 140.304 108.48 139.824C108.437 139.344 108.416 138.832 108.416 138.288C108.416 137.765 108.437 137.259 108.48 136.768C108.533 136.267 108.592 135.813 108.656 135.408C108.73 135.003 108.8 134.677 108.864 134.432C109.098 134.336 109.472 134.24 109.984 134.144C110.496 134.048 111.061 134 111.68 134C112.576 134 113.322 134.133 113.92 134.4C114.528 134.667 114.981 135.099 115.28 135.696C115.578 136.283 115.728 137.077 115.728 138.08V142H106.656ZM106.656 142C106.592 142 106.538 141.989 106.496 141.968C106.453 141.936 106.421 141.899 106.4 141.856C106.378 141.803 106.362 141.739 106.352 141.664C106.341 141.589 106.336 141.509 106.336 141.424C106.336 141.307 106.346 141.211 106.368 141.136C106.378 141.051 106.41 140.987 106.464 140.944C106.506 140.891 106.57 140.864 106.656 140.864V142ZM126.635 142V134H127.883V141.328L127.307 140.864H129.611V142H126.635ZM123.179 136.72V135.568H126.635V136.72H123.179ZM120.251 145.536C120.112 145.536 119.968 145.525 119.819 145.504C119.659 145.493 119.504 145.483 119.355 145.472L119.499 144.336C119.648 144.347 119.787 144.357 119.915 144.368C120.043 144.389 120.155 144.4 120.251 144.4C120.752 144.4 121.158 144.208 121.467 143.824C121.776 143.451 121.931 142.928 121.931 142.256V134H123.179V142.256C123.179 142.907 123.051 143.477 122.795 143.968C122.55 144.469 122.208 144.853 121.771 145.12C121.334 145.397 120.827 145.536 120.251 145.536ZM129.611 142V140.864C129.675 140.864 129.728 140.88 129.771 140.912C129.814 140.933 129.846 140.971 129.867 141.024C129.888 141.067 129.904 141.125 129.915 141.2C129.926 141.264 129.931 141.339 129.931 141.424C129.931 141.509 129.926 141.589 129.915 141.664C129.904 141.739 129.888 141.803 129.867 141.856C129.846 141.899 129.814 141.936 129.771 141.968C129.728 141.989 129.675 142 129.611 142ZM125.547 144.88V143.44H126.795V144.88H125.547ZM127.739 144.88V143.44H128.987V144.88H127.739ZM132.914 141.952C132.338 141.461 131.895 140.901 131.586 140.272C131.287 139.632 131.138 138.955 131.138 138.24C131.138 137.632 131.245 137.072 131.458 136.56C131.671 136.037 131.965 135.584 132.338 135.2C132.711 134.816 133.154 134.523 133.666 134.32C134.178 134.107 134.727 134 135.314 134C135.623 134 135.954 134.032 136.306 134.096C136.669 134.16 137.015 134.251 137.346 134.368L136.914 135.44C136.647 135.344 136.375 135.269 136.098 135.216C135.831 135.163 135.575 135.136 135.33 135.136C134.765 135.136 134.258 135.269 133.81 135.536C133.362 135.803 133.01 136.171 132.754 136.64C132.509 137.099 132.386 137.632 132.386 138.24C132.386 138.795 132.498 139.317 132.722 139.808C132.957 140.288 133.293 140.715 133.73 141.088L132.914 141.952ZM129.442 142V140.864H137.538V142H129.442ZM129.442 142C129.378 142 129.325 141.989 129.282 141.968C129.239 141.936 129.207 141.899 129.186 141.856C129.165 141.803 129.149 141.739 129.138 141.664C129.127 141.589 129.122 141.509 129.122 141.424C129.122 141.307 129.133 141.211 129.154 141.136C129.165 141.051 129.197 140.987 129.25 140.944C129.293 140.891 129.357 140.864 129.442 140.864V142ZM134.098 132.56V131.12H135.346V132.56H134.098ZM142.736 142V140.864H148.704L147.68 141.776V138.288C147.68 137.499 147.59 136.875 147.408 136.416C147.227 135.957 146.928 135.632 146.512 135.44C146.107 135.237 145.558 135.136 144.864 135.136H143.568V134H144.864C145.718 134 146.448 134.133 147.056 134.4C147.664 134.667 148.128 135.115 148.448 135.744C148.768 136.363 148.928 137.211 148.928 138.288V142H142.736ZM157.186 142V140.864H158.914V142H157.186ZM153.394 145.536C153.02 145.536 152.62 145.504 152.194 145.44C151.778 145.387 151.319 145.307 150.818 145.2L151.01 144.192C151.575 144.267 152.044 144.32 152.418 144.352C152.802 144.384 153.127 144.4 153.394 144.4C154.279 144.4 154.924 144.229 155.33 143.888C155.735 143.557 155.938 143.072 155.938 142.432V134.72L156.578 135.136H153.874C153.255 135.136 152.775 135.211 152.434 135.36C152.103 135.509 151.874 135.792 151.746 136.208C151.618 136.613 151.554 137.211 151.554 138C151.554 138.789 151.618 139.392 151.746 139.808C151.874 140.213 152.103 140.491 152.434 140.64C152.775 140.789 153.255 140.864 153.874 140.864H155.938V142H153.874C152.946 142 152.22 141.861 151.698 141.584C151.186 141.296 150.823 140.859 150.61 140.272C150.407 139.675 150.306 138.917 150.306 138C150.306 137.083 150.407 136.331 150.61 135.744C150.823 135.147 151.186 134.709 151.698 134.432C152.22 134.144 152.946 134 153.874 134H157.186V142.416C157.186 143.077 157.031 143.643 156.722 144.112C156.423 144.581 155.991 144.933 155.426 145.168C154.86 145.413 154.183 145.536 153.394 145.536ZM158.914 142V140.864C158.978 140.864 159.031 140.88 159.074 140.912C159.116 140.933 159.148 140.971 159.17 141.024C159.191 141.067 159.207 141.125 159.218 141.2C159.228 141.264 159.234 141.339 159.234 141.424C159.234 141.509 159.228 141.589 159.218 141.664C159.207 141.739 159.191 141.803 159.17 141.856C159.148 141.899 159.116 141.936 159.074 141.968C159.031 141.989 158.978 142 158.914 142ZM158.751 142V140.864H166.751L166.303 141.264V138.416C166.303 137.84 166.223 137.365 166.063 136.992C165.913 136.608 165.684 136.325 165.375 136.144C165.076 135.952 164.697 135.856 164.239 135.856H160.751L159.839 134.48L160.527 133.152C160.655 132.917 160.788 132.677 160.927 132.432C161.065 132.187 161.236 131.904 161.439 131.584C161.641 131.264 161.897 130.875 162.207 130.416L163.247 131.04C162.937 131.509 162.687 131.899 162.495 132.208C162.303 132.517 162.137 132.784 161.999 133.008C161.871 133.232 161.748 133.456 161.631 133.68L160.831 135.216L160.511 134.72H164.239C164.911 134.72 165.46 134.837 165.887 135.072C166.324 135.296 166.66 135.595 166.895 135.968C167.14 136.341 167.311 136.747 167.407 137.184C167.503 137.611 167.551 138.021 167.551 138.416V142H158.751ZM158.751 142C158.687 142 158.633 141.989 158.591 141.968C158.548 141.936 158.516 141.899 158.495 141.856C158.473 141.803 158.457 141.739 158.447 141.664C158.436 141.589 158.431 141.509 158.431 141.424C158.431 141.307 158.441 141.211 158.463 141.136C158.473 141.051 158.505 140.987 158.559 140.944C158.601 140.891 158.665 140.864 158.751 140.864V142ZM168.73 145.536C168.591 145.536 168.447 145.525 168.298 145.504C168.138 145.493 167.983 145.483 167.834 145.472L167.978 144.336C168.127 144.347 168.266 144.357 168.394 144.368C168.522 144.389 168.634 144.4 168.73 144.4C169.231 144.4 169.636 144.208 169.946 143.824C170.255 143.451 170.41 142.928 170.41 142.256V134H171.658V142.256C171.658 142.907 171.53 143.477 171.274 143.968C171.028 144.469 170.687 144.853 170.25 145.12C169.812 145.397 169.306 145.536 168.73 145.536ZM175.392 142V140.864H177.344V142H175.392ZM174.16 142V130.528H175.392V142H174.16ZM177.344 142V140.864C177.408 140.864 177.461 140.88 177.504 140.912C177.546 140.933 177.578 140.971 177.6 141.024C177.621 141.067 177.637 141.125 177.648 141.2C177.658 141.264 177.664 141.339 177.664 141.424C177.664 141.509 177.658 141.589 177.648 141.664C177.637 141.739 177.621 141.803 177.6 141.856C177.578 141.899 177.546 141.936 177.504 141.968C177.461 141.989 177.408 142 177.344 142ZM177.178 142V140.864H179.482L178.906 141.328V134H180.154V142H177.178ZM177.178 142C177.114 142 177.06 141.989 177.018 141.968C176.975 141.936 176.943 141.899 176.922 141.856C176.9 141.803 176.884 141.739 176.874 141.664C176.863 141.589 176.858 141.509 176.858 141.424C176.858 141.307 176.868 141.211 176.89 141.136C176.9 141.051 176.932 140.987 176.986 140.944C177.028 140.891 177.092 140.864 177.178 140.864V142ZM178.906 144.88V143.44H180.154V144.88H178.906Z" fill="#555555"/>
<defs>
<clipPath id="clip0_226_1231">
<rect width="258.99" height="183.94" fill="white"/>
</clipPath>
</defs>
</svg>
