<svg width="90" height="90" viewBox="0 0 90 90" fill="none" xmlns="http://www.w3.org/2000/svg">
<path d="M3.12698 27.0657C2.97772 27.0665 2.82863 27.0554 2.68115 27.0324C1.86141 26.9148 1.12189 26.4766 0.625013 25.8141C0.128136 25.1516 -0.0854587 24.3189 0.0311462 23.4991C0.878803 17.5707 3.62629 12.0772 7.86124 7.84304C12.0962 3.60883 17.5902 0.862327 23.5186 0.015721C24.3216 -0.0651054 25.1247 0.167844 25.7598 0.665796C26.3949 1.16375 26.8127 1.88809 26.9258 2.68715C27.0389 3.48622 26.8384 4.29805 26.3664 4.95266C25.8945 5.60728 25.1875 6.05391 24.3936 6.19906C19.8051 6.85753 15.5536 8.9853 12.2761 12.2635C8.9987 15.5417 6.8719 19.7937 6.21448 24.3824C6.10913 25.1264 5.73885 25.8075 5.17166 26.3004C4.60446 26.7934 3.87845 27.0651 3.12698 27.0657Z" fill="#0D47A1"/>
<path d="M3.12698 27.0657C2.97772 27.0665 2.82863 27.0554 2.68115 27.0324C1.86141 26.9148 1.12189 26.4766 0.625013 25.8141C0.128136 25.1516 -0.0854587 24.3189 0.0311462 23.4991C0.878803 17.5707 3.62629 12.0772 7.86124 7.84304C12.0962 3.60883 17.5902 0.862327 23.5186 0.015721C24.3216 -0.0651054 25.1247 0.167844 25.7598 0.665796C26.3949 1.16375 26.8127 1.88809 26.9258 2.68715C27.0389 3.48622 26.8384 4.29805 26.3664 4.95266C25.8945 5.60728 25.1875 6.05391 24.3936 6.19906C19.8051 6.85753 15.5536 8.9853 12.2761 12.2635C8.9987 15.5417 6.8719 19.7937 6.21448 24.3824C6.10913 25.1264 5.73885 25.8075 5.17166 26.3004C4.60446 26.7934 3.87845 27.0651 3.12698 27.0657Z" fill="#0D47A1"/>
<path d="M15.627 27.0655C15.4777 27.0664 15.3286 27.0552 15.1811 27.0322C14.3614 26.9146 13.6219 26.4764 13.125 25.8139C12.6281 25.1514 12.4145 24.3188 12.5311 23.4989C12.9282 20.7267 14.2131 18.1579 16.1933 16.1777C18.1735 14.1975 20.7423 12.9126 23.5145 12.5155C23.9213 12.4515 24.3368 12.4696 24.7364 12.569C25.1361 12.6683 25.5117 12.8468 25.8412 13.0939C26.1706 13.3409 26.4471 13.6516 26.6544 14.0074C26.8617 14.3633 26.9954 14.7571 27.0478 15.1655C27.1644 15.9854 26.9508 16.8181 26.4539 17.4806C25.9571 18.1431 25.2175 18.5813 24.3978 18.6989C22.9643 18.9067 21.6365 19.5724 20.6122 20.5966C19.588 21.6209 18.9223 22.9487 18.7145 24.3822C18.6083 25.1259 18.2378 25.8064 17.6708 26.2992C17.1038 26.792 16.3782 27.0641 15.627 27.0655Z" fill="#0D47A1"/>
<path d="M15.627 27.0657C15.4777 27.0665 15.3286 27.0554 15.1811 27.0324C14.3614 26.9148 13.6219 26.4766 13.125 25.8141C12.6281 25.1516 12.4145 24.3189 12.5311 23.4991C12.9282 20.7269 14.2131 18.1581 16.1933 16.1779C18.1735 14.1977 20.7423 12.9127 23.5145 12.5157C23.9213 12.4516 24.3368 12.4698 24.7364 12.5691C25.1361 12.6685 25.5117 12.847 25.8412 13.094C26.1706 13.3411 26.4471 13.6518 26.6544 14.0076C26.8617 14.3635 26.9954 14.7573 27.0478 15.1657C27.1644 15.9856 26.9508 16.8182 26.4539 17.4807C25.9571 18.1432 25.2175 18.5814 24.3978 18.6991C22.9643 18.9069 21.6365 19.5726 20.6122 20.5968C19.588 21.621 18.9223 22.9489 18.7145 24.3824C18.6083 25.1261 18.2378 25.8066 17.6708 26.2994C17.1038 26.7922 16.3782 27.0642 15.627 27.0657ZM86.452 27.0657C85.7005 27.0651 84.9745 26.7934 84.4073 26.3004C83.8401 25.8075 83.4698 25.1264 83.3645 24.3824C82.7071 19.7937 80.5803 15.5417 77.3028 12.2635C74.0254 8.9853 69.7738 6.85753 65.1853 6.19906C64.3915 6.05391 63.6845 5.60728 63.2125 4.95266C62.7405 4.29805 62.5401 3.48622 62.6532 2.68715C62.7662 1.88809 63.1841 1.16375 63.8192 0.665796C64.4542 0.167844 65.2573 -0.0651054 66.0603 0.015721C71.9888 0.862327 77.4828 3.60883 81.7177 7.84304C85.9527 12.0772 88.7002 17.5707 89.5478 23.4991C89.6644 24.3189 89.4508 25.1516 88.954 25.8141C88.4571 26.4766 87.7176 26.9148 86.8978 27.0324C86.7503 27.0554 86.6012 27.0665 86.452 27.0657Z" fill="#0D47A1"/>
<path d="M86.4522 27.0657C85.7008 27.0651 84.9747 26.7934 84.4075 26.3004C83.8403 25.8075 83.4701 25.1264 83.3647 24.3824C82.7073 19.7937 80.5805 15.5417 77.3031 12.2635C74.0256 8.9853 69.7741 6.85753 65.1856 6.19906C64.3917 6.05391 63.6847 5.60728 63.2128 4.95266C62.7408 4.29805 62.5403 3.48622 62.6534 2.68715C62.7665 1.88809 63.1843 1.16375 63.8194 0.665796C64.4545 0.167844 65.2576 -0.0651054 66.0605 0.015721C71.989 0.862327 77.483 3.60883 81.718 7.84304C85.9529 12.0772 88.7004 17.5707 89.5481 23.4991C89.6647 24.3189 89.4511 25.1516 88.9542 25.8141C88.4573 26.4766 87.7178 26.9148 86.8981 27.0324C86.7506 27.0554 86.6015 27.0665 86.4522 27.0657Z" fill="#0D47A1"/>
<path d="M73.952 27.0657C73.2008 27.0642 72.4752 26.7922 71.9082 26.2994C71.3412 25.8066 70.9707 25.126 70.8645 24.3823C70.6579 22.9483 69.9927 21.6198 68.9682 20.5953C67.9437 19.5708 66.6151 18.9056 65.1811 18.699C64.3614 18.5814 63.6219 18.1432 63.125 17.4807C62.6281 16.8182 62.4145 15.9856 62.5311 15.1657C62.583 14.757 62.7164 14.3629 62.9235 14.0067C63.1306 13.6506 63.4071 13.3397 63.7367 13.0925C64.0663 12.8454 64.4422 12.6669 64.842 12.5678C65.2419 12.4687 65.6576 12.451 66.0645 12.5157C68.8374 12.9107 71.4073 14.1951 73.3879 16.1756C75.3684 18.1562 76.6527 20.7261 77.0478 23.499C77.1644 24.3189 76.9508 25.1515 76.4539 25.814C75.9571 26.4765 75.2176 26.9147 74.3978 27.0323C74.2503 27.0554 74.1012 27.0665 73.952 27.0657Z" fill="#0D47A1"/>
<path d="M73.952 27.0658C73.2008 27.0644 72.4753 26.7923 71.9082 26.2995C71.3412 25.8068 70.9707 25.1262 70.8645 24.3825C70.658 22.9485 69.9927 21.6199 68.9682 20.5955C67.9438 19.571 66.6152 18.9057 65.1812 18.6992C64.3615 18.5816 63.6219 18.1434 63.1251 17.4809C62.6282 16.8184 62.4146 15.9857 62.5312 15.1658C62.583 14.7571 62.7164 14.363 62.9235 14.0069C63.1306 13.6508 63.4072 13.3399 63.7368 13.0927C64.0663 12.8455 64.4422 12.6671 64.8421 12.568C65.242 12.4689 65.6577 12.4512 66.0645 12.5158C68.8375 12.9109 71.4073 14.1952 73.3879 16.1758C75.3685 18.1564 76.6528 20.7262 77.0479 23.4992C77.1645 24.3191 76.9509 25.1517 76.454 25.8142C75.9571 26.4767 75.2176 26.9149 74.3979 27.0325C74.2504 27.0555 74.1013 27.0667 73.952 27.0658ZM77.6104 89.8325H11.9687C9.84495 89.8316 7.75977 89.2651 5.9275 88.1913C4.09523 87.1174 2.58199 85.575 1.54334 83.7226C0.504686 81.8701 -0.0219024 79.7745 0.0177054 77.6512C0.0573131 75.5278 0.661688 73.4533 1.7687 71.6408L34.5895 17.9408C35.6566 16.1926 37.1552 14.748 38.9414 13.7456C40.7275 12.7432 42.7413 12.2168 44.7895 12.2168C46.8377 12.2168 48.8515 12.7432 50.6377 13.7456C52.4239 14.748 53.9224 16.1926 54.9895 17.9408L87.8104 71.6492C88.9166 73.4612 89.5204 75.5351 89.5596 77.6577C89.5988 79.7804 89.0719 81.8752 88.0333 83.7268C86.9946 85.5783 85.4816 87.1199 83.6498 88.193C81.8179 89.2661 79.7334 89.832 77.6104 89.8325ZM44.7895 18.4658C43.8111 18.4615 42.8482 18.7106 41.9947 19.1889C41.1411 19.6672 40.4259 20.3583 39.9187 21.195L7.09787 74.8992C6.57036 75.7647 6.28282 76.755 6.26478 77.7684C6.24675 78.7819 6.49887 79.7818 6.99524 80.6655C7.49162 81.5492 8.21434 82.2848 9.08915 82.7968C9.96395 83.3087 10.9593 83.5785 11.9729 83.5783H77.6104C78.6236 83.5777 79.6184 83.3074 80.4926 82.7952C81.3668 82.283 82.089 81.5473 82.5848 80.6637C83.0807 79.7801 83.3325 78.7805 83.3143 77.7674C83.2961 76.7543 83.0085 75.7644 82.4812 74.8992L49.6604 21.1908C49.1527 20.3549 48.4372 19.6646 47.5837 19.1871C46.7302 18.7096 45.7676 18.4611 44.7895 18.4658Z" fill="#0D47A1"/>
</svg>
