<svg width="20" height="20" viewBox="0 0 20 20" fill="none" xmlns="http://www.w3.org/2000/svg">
<g clip-path="url(#clip0_7_863)">
<path d="M9.99996 13.3334C11.8409 13.3334 13.3333 11.841 13.3333 10C13.3333 8.15907 11.8409 6.66669 9.99996 6.66669C8.15901 6.66669 6.66663 8.15907 6.66663 10C6.66663 11.841 8.15901 13.3334 9.99996 13.3334Z" fill="#9E9E9E"/>
<path d="M19.3925 7.84919C18.1 5.74419 15.16 2.21252 10 2.21252C4.84004 2.21252 1.90004 5.74419 0.607543 7.84919C0.207983 8.49545 -0.00366211 9.24023 -0.00366211 10C-0.00366211 10.7598 0.207983 11.5046 0.607543 12.1509C1.90004 14.2559 4.84004 17.7875 10 17.7875C15.16 17.7875 18.1 14.2559 19.3925 12.1509C19.7921 11.5046 20.0037 10.7598 20.0037 10C20.0037 9.24023 19.7921 8.49545 19.3925 7.84919ZM10 15C9.01114 15 8.04444 14.7068 7.22219 14.1574C6.39995 13.608 5.75908 12.8271 5.38064 11.9134C5.00221 10.9998 4.90319 9.99448 5.09612 9.02457C5.28904 8.05467 5.76525 7.16375 6.46451 6.46449C7.16377 5.76523 8.05469 5.28902 9.02459 5.0961C9.9945 4.90317 10.9998 5.00219 11.9135 5.38063C12.8271 5.75906 13.608 6.39993 14.1574 7.22217C14.7068 8.04442 15 9.01112 15 10C14.9987 11.3257 14.4715 12.5967 13.5341 13.5341C12.5967 14.4715 11.3257 14.9987 10 15Z" fill="#9E9E9E"/>
</g>
<defs>
<clipPath id="clip0_7_863">
<rect width="20" height="20" fill="white"/>
</clipPath>
</defs>
</svg>
