<svg width="17" height="17" viewBox="0 0 17 17" fill="none" xmlns="http://www.w3.org/2000/svg">
<g clip-path="url(#clip0_1_8312)">
<path d="M3.20167 4.20324L0.986715 1.98899L1.98901 0.986694L16.0133 15.0117L15.011 16.0133L12.6664 13.6687C11.4206 14.4589 9.97528 14.8773 8.50001 14.875C4.68067 14.875 1.50309 12.1267 0.836548 8.49999C1.14115 6.85008 1.97104 5.34287 3.20238 4.20324H3.20167ZM10.4529 11.4552L9.41588 10.4182C9.01925 10.6079 8.57351 10.67 8.14013 10.5958C7.70674 10.5216 7.30703 10.3148 6.99612 10.0039C6.68521 9.69296 6.4784 9.29326 6.4042 8.85987C6.33 8.42648 6.39207 7.98074 6.58184 7.58411L5.54484 6.54711C5.09414 7.22817 4.89266 8.04406 4.97451 8.85662C5.05637 9.66919 5.41653 10.4285 5.99401 11.006C6.57149 11.5835 7.3308 11.9436 8.14337 12.0255C8.95594 12.1073 9.77183 11.9059 10.4529 11.4552ZM5.64826 2.66332C6.53155 2.31624 7.49417 2.12499 8.50001 2.12499C12.3193 2.12499 15.4969 4.87332 16.1635 8.49999C15.9464 9.67986 15.4586 10.7933 14.7383 11.7527L12.0041 9.01849C12.0854 8.47138 12.0373 7.91285 11.8638 7.38766C11.6904 6.86246 11.3963 6.38519 11.0052 5.99409C10.6141 5.60299 10.1368 5.30892 9.61163 5.13545C9.08643 4.96199 8.52791 4.91394 7.9808 4.99515L5.64826 2.66403V2.66332Z" fill="#A4A4A4"/>
</g>
<defs>
<clipPath id="clip0_1_8312">
<rect width="17" height="17" fill="white"/>
</clipPath>
</defs>
</svg>
