<svg width="24" height="24" viewBox="0 0 24 24" fill="none" xmlns="http://www.w3.org/2000/svg">
<rect width="24" height="24" rx="12" fill="white"/>
<path d="M6 10.2418C6.00001 9.5878 6.20256 8.94921 6.58088 8.41034C6.9592 7.87148 7.49551 7.4577 8.11896 7.22365C8.74241 6.98959 9.42368 6.94628 10.0728 7.09944C10.7219 7.25259 11.3083 7.59499 11.7546 8.08144C11.786 8.11435 11.824 8.1406 11.8662 8.15854C11.9084 8.17648 11.954 8.18574 12 8.18574C12.046 8.18574 12.0915 8.17648 12.1337 8.15854C12.1759 8.1406 12.2139 8.11435 12.2454 8.08144C12.6902 7.59183 13.2768 7.24655 13.927 7.09154C14.5771 6.93652 15.2601 6.97914 15.8849 7.2137C16.5097 7.44827 17.0468 7.86367 17.4246 8.40461C17.8025 8.94554 18.0031 9.58636 18 10.2418C18 11.5876 17.1 12.5925 16.2 13.4741L12.9048 16.5964C12.793 16.7222 12.6551 16.8232 12.5004 16.8928C12.3457 16.9624 12.1776 16.9989 12.0074 17C11.8371 17.001 11.6686 16.9666 11.513 16.8989C11.3573 16.8313 11.2182 16.732 11.1048 16.6076L7.79999 13.4741C6.9 12.5925 6 11.5935 6 10.2418Z" fill="#4CB7F7" stroke="#4CB7F7" stroke-width="2" stroke-linecap="round" stroke-linejoin="round"/>
</svg>
