<svg width="32" height="32" viewBox="0 0 32 32" fill="none" xmlns="http://www.w3.org/2000/svg">
<path d="M26.6667 10.6667H5.33333C4.59695 10.6667 4 11.2636 4 12V14.6667C4 15.4031 4.59695 16 5.33333 16H26.6667C27.403 16 28 15.4031 28 14.6667V12C28 11.2636 27.403 10.6667 26.6667 10.6667Z" stroke="#0D47A1" stroke-width="2" stroke-linecap="round" stroke-linejoin="round"/>
<path d="M16 10.6667V28" stroke="#0D47A1" stroke-width="2" stroke-linecap="round" stroke-linejoin="round"/>
<path d="M25.3332 16V25.3333C25.3332 26.0406 25.0522 26.7189 24.5521 27.219C24.052 27.719 23.3737 28 22.6665 28H9.33317C8.62593 28 7.94765 27.719 7.44755 27.219C6.94746 26.7189 6.6665 26.0406 6.6665 25.3333V16" stroke="#0D47A1" stroke-width="2" stroke-linecap="round" stroke-linejoin="round"/>
<path d="M9.99984 10.6667C9.11578 10.6667 8.26794 10.3155 7.64281 9.69036C7.01769 9.06524 6.6665 8.21739 6.6665 7.33334C6.6665 6.44928 7.01769 5.60144 7.64281 4.97631C8.26794 4.35119 9.11578 4 9.99984 4C11.2861 3.97759 12.5465 4.60168 13.6168 5.79088C14.6871 6.98009 15.5175 8.67921 15.9998 10.6667C16.4821 8.67921 17.3126 6.98009 18.3829 5.79088C19.4531 4.60168 20.7136 3.97759 21.9998 4C22.8839 4 23.7317 4.35119 24.3569 4.97631C24.982 5.60144 25.3332 6.44928 25.3332 7.33334C25.3332 8.21739 24.982 9.06524 24.3569 9.69036C23.7317 10.3155 22.8839 10.6667 21.9998 10.6667" stroke="#0D47A1" stroke-width="2" stroke-linecap="round" stroke-linejoin="round"/>
</svg>
