<svg width="24" height="24" viewBox="0 0 24 24" fill="none" xmlns="http://www.w3.org/2000/svg">
<path d="M10.3014 1.96326C11.2501 1.14714 12.6543 1.12097 13.6325 1.90271L13.6354 1.90564L21.4001 8.06091V8.06189C21.8342 8.42252 22.0836 8.95345 22.0837 9.51111V19.6742C22.0837 20.4668 21.7655 21.2284 21.1979 21.7904C20.6301 22.3526 19.8585 22.6684 19.0534 22.6664H16.7634C16.6461 22.6664 16.5351 22.6198 16.4548 22.5394C16.3748 22.4593 16.3319 22.3522 16.3327 22.2426V18.6683C16.3327 17.9634 16.0503 17.2885 15.5505 16.7924C15.0509 16.2965 14.3748 16.019 13.6716 16.0189H10.318C8.8554 16.019 7.65691 17.1986 7.65691 18.6683V21.5131L7.63152 21.5219L7.62566 22.2386C7.62398 22.4687 7.43374 22.6664 7.18425 22.6664H4.9489C3.26737 22.6664 1.91667 21.315 1.91667 19.6635V9.53455C1.93011 8.96777 2.19992 8.43449 2.65495 8.08435L2.66277 8.07849L2.6696 8.07263L10.2741 1.98572L10.2887 1.974L10.3014 1.96326Z"  stroke="#5C616F" stroke-width="2"/>
</svg>
