<svg width="32" height="32" viewBox="0 0 32 32" fill="none" xmlns="http://www.w3.org/2000/svg">
<g clip-path="url(#clip0_2222_6993)">
<path d="M32 0H0V32H32V0Z" fill="url(#paint0_radial_2222_6993)"/>
<path d="M32 0H0V32H32V0Z" fill="url(#paint1_radial_2222_6993)"/>
<path d="M16 6.98795C18.9157 6.98795 19.3133 6.98795 20.506 6.98795C21.5663 6.98795 22.0964 7.25301 22.494 7.38554C23.0241 7.6506 23.4217 7.78313 23.8193 8.18072C24.2169 8.57831 24.4819 8.9759 24.6145 9.50603C24.747 9.90362 24.8795 10.4337 25.012 11.494C25.012 12.6867 25.012 12.9518 25.012 16C25.012 19.0482 25.012 19.3133 25.012 20.506C25.012 21.5663 24.747 22.0964 24.6145 22.494C24.3494 23.0241 24.2169 23.4217 23.8193 23.8193C23.4217 24.2169 23.0241 24.4819 22.494 24.6145C22.0964 24.747 21.5663 24.8795 20.506 25.012C19.3133 25.012 19.0482 25.012 16 25.012C12.9518 25.012 12.6867 25.012 11.494 25.012C10.4337 25.012 9.90362 24.747 9.50603 24.6145C8.9759 24.3494 8.57831 24.2169 8.18072 23.8193C7.78313 23.4217 7.51807 23.0241 7.38554 22.494C7.25301 22.0964 7.12048 21.5663 6.98795 20.506C6.98795 19.3133 6.98795 19.0482 6.98795 16C6.98795 12.9518 6.98795 12.6867 6.98795 11.494C6.98795 10.4337 7.25301 9.90362 7.38554 9.50603C7.6506 8.9759 7.78313 8.57831 8.18072 8.18072C8.57831 7.78313 8.9759 7.51807 9.50603 7.38554C9.90362 7.25301 10.4337 7.12048 11.494 6.98795C12.6867 6.98795 13.0843 6.98795 16 6.98795ZM16 5C12.9518 5 12.6867 5 11.494 5C10.3012 5 9.50603 5.26506 8.84337 5.53012C8.18072 5.79518 7.51807 6.19277 6.85542 6.85542C6.19277 7.51807 5.92771 8.04819 5.53012 8.84337C5.26506 9.50603 5.13253 10.3012 5 11.494C5 12.6867 5 13.0843 5 16C5 19.0482 5 19.3133 5 20.506C5 21.6988 5.26506 22.494 5.53012 23.1566C5.79518 23.8193 6.19277 24.4819 6.85542 25.1446C7.51807 25.8072 8.04819 26.0723 8.84337 26.4699C9.50603 26.7349 10.3012 26.8675 11.494 27C12.6867 27 13.0843 27 16 27C18.9157 27 19.3133 27 20.506 27C21.6988 27 22.494 26.7349 23.1566 26.4699C23.8193 26.2048 24.4819 25.8072 25.1446 25.1446C25.8072 24.4819 26.0723 23.9518 26.4699 23.1566C26.7349 22.494 26.8675 21.6988 27 20.506C27 19.3133 27 18.9157 27 16C27 13.0843 27 12.6867 27 11.494C27 10.3012 26.7349 9.50603 26.4699 8.84337C26.2048 8.18072 25.8072 7.51807 25.1446 6.85542C24.4819 6.19277 23.9518 5.92771 23.1566 5.53012C22.494 5.26506 21.6988 5.13253 20.506 5C19.3133 5 19.0482 5 16 5Z" fill="white"/>
<path d="M16 10.3012C12.8193 10.3012 10.3012 12.8193 10.3012 16C10.3012 19.1807 12.8193 21.6988 16 21.6988C19.1807 21.6988 21.6988 19.1807 21.6988 16C21.6988 12.8193 19.1807 10.3012 16 10.3012ZM16 19.7108C14.012 19.7108 12.2892 18.1205 12.2892 16C12.2892 14.012 13.8795 12.2892 16 12.2892C17.988 12.2892 19.7108 13.8795 19.7108 16C19.7108 17.988 17.988 19.7108 16 19.7108Z" fill="white"/>
<path d="M21.8313 11.494C22.5633 11.494 23.1566 10.9006 23.1566 10.1687C23.1566 9.43673 22.5633 8.84337 21.8313 8.84337C21.0994 8.84337 20.506 9.43673 20.506 10.1687C20.506 10.9006 21.0994 11.494 21.8313 11.494Z" fill="white"/>
</g>
<defs>
<radialGradient id="paint0_radial_2222_6993" cx="0" cy="0" r="1" gradientUnits="userSpaceOnUse" gradientTransform="translate(11.3333 33.3333) rotate(-81.5289) scale(31.6789)">
<stop stop-color="#FFDD55"/>
<stop offset="0.1" stop-color="#FFDD55"/>
<stop offset="0.517936" stop-color="#FF442C"/>
<stop offset="1" stop-color="#FF1ED2"/>
</radialGradient>
<radialGradient id="paint1_radial_2222_6993" cx="0" cy="0" r="1" gradientUnits="userSpaceOnUse" gradientTransform="translate(6.66667 -2) rotate(77.1957) scale(15.0407 41.7941)">
<stop offset="0.096473" stop-color="#7000C9"/>
<stop offset="0.408416" stop-color="#9A00E2" stop-opacity="0.723958"/>
<stop offset="0.975495" stop-color="#AD00FF" stop-opacity="0"/>
</radialGradient>
<clipPath id="clip0_2222_6993">
<rect width="32" height="32" rx="10" fill="white"/>
</clipPath>
</defs>
</svg>
