<svg width="32" height="32" viewBox="0 0 32 32" fill="none" xmlns="http://www.w3.org/2000/svg">
<path d="M20.6362 17.1867L22.6562 28.5547C22.6788 28.6885 22.66 28.8261 22.6023 28.949C22.5446 29.0719 22.4508 29.1743 22.3334 29.2424C22.216 29.3105 22.0806 29.3412 21.9452 29.3303C21.8099 29.3194 21.6811 29.2674 21.5762 29.1813L16.8028 25.5987C16.5724 25.4265 16.2925 25.3335 16.0048 25.3335C15.7172 25.3335 15.4373 25.4265 15.2068 25.5987L10.4255 29.18C10.3206 29.2659 10.192 29.3178 10.0568 29.3287C9.92166 29.3397 9.78639 29.3091 9.66904 29.2412C9.5517 29.1732 9.45786 29.0711 9.40005 28.9485C9.34224 28.8258 9.32321 28.6884 9.34549 28.5547L11.3642 17.1867" stroke="#0D47A1" stroke-width="2" stroke-linecap="round" stroke-linejoin="round"/>
<path d="M16 18.6667C20.4183 18.6667 24 15.0849 24 10.6667C24 6.24838 20.4183 2.66666 16 2.66666C11.5817 2.66666 8 6.24838 8 10.6667C8 15.0849 11.5817 18.6667 16 18.6667Z" stroke="#0D47A1" stroke-width="2" stroke-linecap="round" stroke-linejoin="round"/>
</svg>
