<svg width="39" height="39" viewBox="0 0 39 39" fill="none" xmlns="http://www.w3.org/2000/svg">
<rect width="39" height="39" rx="10" fill="#4CB7F7"/>
<rect width="24" height="24" transform="translate(7 8)" fill="#4CB5F7"/>
<path d="M13.0278 16.6326L13.7517 16.8287L13.7517 16.8287L13.0278 16.6326ZM17.1584 12.3022L16.9271 11.5888L17.1584 12.3022ZM12.983 16.798L12.2591 16.6019L12.2591 16.6019L12.983 16.798ZM12.7896 20.8674L13.5288 20.7409V20.7409L12.7896 20.8674ZM12.8121 20.9989L12.0728 21.1255L12.0728 21.1255L12.8121 20.9989ZM13.2876 25.4572L13.4373 24.7223L13.2876 25.4572ZM13.6552 25.5321L13.8049 24.7971H13.8049L13.6552 25.5321ZM24.3448 25.5321L24.1951 24.7971H24.1951L24.3448 25.5321ZM24.7124 25.4572L24.8621 26.1921L24.7124 25.4572ZM25.1922 20.9737L25.9315 21.1003V21.1003L25.1922 20.9737ZM25.2161 20.8343L24.4769 20.7077V20.7077L25.2161 20.8343ZM25.0417 16.8262L24.3163 17.0166V17.0166L25.0417 16.8262ZM24.9793 16.5883L25.7047 16.398V16.398L24.9793 16.5883ZM20.9671 12.3084L21.2023 11.5962V11.5962L20.9671 12.3084ZM25.353 21.3008L24.9868 21.9553L25.353 21.3008ZM12.668 21.2892L12.3088 20.6308L12.668 21.2892ZM19.75 11C19.75 10.5858 19.4142 10.25 19 10.25C18.5858 10.25 18.25 10.5858 18.25 11H19H19.75ZM18.25 12.0047C18.25 12.419 18.5858 12.7547 19 12.7547C19.4142 12.7547 19.75 12.419 19.75 12.0047H19H18.25ZM16.0091 25.9034L16.0929 25.1581L15.1956 25.0572L15.2611 25.9578L16.0091 25.9034ZM21.9909 25.9034L22.7389 25.9578L22.8044 25.0572L21.9071 25.1581L21.9909 25.9034ZM21.9001 26.4772L22.6285 26.6563L21.9001 26.4772ZM21.8182 26.8106L21.0899 26.6315L21.8182 26.8106ZM19.7039 28.917L19.8784 29.6464H19.8784L19.7039 28.917ZM18.2961 28.917L18.1216 29.6464H18.1216L18.2961 28.917ZM16.1818 26.8106L15.4535 26.9896L16.1818 26.8106ZM16.0999 26.4772L16.8282 26.2981H16.8282L16.0999 26.4772ZM13.0278 16.6326L13.7517 16.8287C14.2392 15.0293 15.6205 13.5891 17.3896 13.0157L17.1584 12.3022L16.9271 11.5888C14.6795 12.3173 12.925 14.1442 12.3039 16.4364L13.0278 16.6326ZM12.983 16.798L13.7069 16.9942L13.7517 16.8287L13.0278 16.6326L12.3039 16.4364L12.2591 16.6019L12.983 16.798ZM12.7896 20.8674L13.5288 20.7409C13.3153 19.4939 13.3761 18.215 13.7069 16.9942L12.983 16.798L12.2591 16.6019C11.8713 18.0331 11.8 19.5322 12.0503 20.994L12.7896 20.8674ZM12.8121 20.9989L13.5513 20.8723L13.5288 20.7409L12.7896 20.8674L12.0503 20.994L12.0728 21.1255L12.8121 20.9989ZM11.5 23.2604H12.25C12.25 22.6932 12.5638 22.2003 13.0271 21.9476L12.668 21.2892L12.3088 20.6308C11.3807 21.137 10.75 22.1251 10.75 23.2604H11.5ZM13.2876 25.4572L13.4373 24.7223C12.7489 24.582 12.25 23.9725 12.25 23.2604H11.5H10.75C10.75 24.6807 11.7462 25.9085 13.1379 26.1921L13.2876 25.4572ZM13.6552 25.5321L13.8049 24.7971L13.4373 24.7223L13.2876 25.4572L13.1379 26.1921L13.5055 26.267L13.6552 25.5321ZM24.3448 25.5321L24.1951 24.7971C20.7666 25.4956 17.2334 25.4956 13.8049 24.7971L13.6552 25.5321L13.5055 26.267C17.1316 27.0057 20.8684 27.0057 24.4945 26.267L24.3448 25.5321ZM24.7124 25.4572L24.5627 24.7223L24.1951 24.7971L24.3448 25.5321L24.4945 26.267L24.8621 26.1921L24.7124 25.4572ZM26.5 23.2604H25.75C25.75 23.9725 25.2511 24.582 24.5627 24.7223L24.7124 25.4572L24.8621 26.1921C26.2538 25.9085 27.25 24.6807 27.25 23.2604H26.5ZM25.353 21.3008L24.9868 21.9553C25.4425 22.2103 25.75 22.6989 25.75 23.2604H26.5H27.25C27.25 22.1365 26.6319 21.157 25.7192 20.6463L25.353 21.3008ZM25.2161 20.8343L24.4769 20.7077L24.453 20.8471L25.1922 20.9737L25.9315 21.1003L25.9554 20.9608L25.2161 20.8343ZM25.0417 16.8262L24.3163 17.0166C24.6323 18.2211 24.6871 19.4799 24.4769 20.7077L25.2161 20.8343L25.9554 20.9608C26.2017 19.5223 26.1375 18.0474 25.7672 16.6359L25.0417 16.8262ZM24.9793 16.5883L24.2539 16.7787L24.3163 17.0166L25.0417 16.8262L25.7672 16.6359L25.7047 16.398L24.9793 16.5883ZM20.9671 12.3084L20.7319 13.0205C22.4622 13.592 23.7887 15.0057 24.2539 16.7787L24.9793 16.5883L25.7047 16.398C25.1113 14.1359 23.4174 12.3278 21.2023 11.5962L20.9671 12.3084ZM17.1584 12.3022L17.3896 13.0157C18.474 12.6642 19.6528 12.6642 20.7319 13.0205L20.9671 12.3084L21.2023 11.5962C19.8171 11.1387 18.3114 11.14 16.9271 11.5888L17.1584 12.3022ZM25.353 21.3008L25.7192 20.6463C25.8626 20.7265 25.966 20.8988 25.9315 21.1003L25.1922 20.9737L24.453 20.8471C24.3735 21.3114 24.6116 21.7453 24.9868 21.9553L25.353 21.3008ZM12.8121 20.9989L12.0728 21.1255C12.0358 20.9092 12.1471 20.719 12.3088 20.6308L12.668 21.2892L13.0271 21.9476C13.3967 21.746 13.6284 21.3228 13.5513 20.8723L12.8121 20.9989ZM19 11H18.25V12.0047H19H19.75V11H19ZM16.0091 25.9034L15.9253 26.6487C17.9687 26.8784 20.0313 26.8784 22.0747 26.6487L21.9909 25.9034L21.9071 25.1581C19.9751 25.3753 18.0249 25.3753 16.0929 25.1581L16.0091 25.9034ZM21.9001 26.4772L22.6285 26.6563C22.6849 26.4268 22.7218 26.1932 22.7389 25.9578L21.9909 25.9034L21.2429 25.849C21.2319 26.0003 21.2081 26.1506 21.1718 26.2981L21.9001 26.4772ZM21.8182 26.8106L22.5465 26.9896L22.6285 26.6563L21.9001 26.4772L21.1718 26.2981L21.0899 26.6315L21.8182 26.8106ZM19.7039 28.917L19.8784 29.6464C21.1945 29.3315 22.223 28.3052 22.5465 26.9896L21.8182 26.8106L21.0899 26.6315C20.8997 27.4047 20.2965 28.004 19.5294 28.1875L19.7039 28.917ZM18.2961 28.917L18.1216 29.6464C18.6991 29.7845 19.3009 29.7845 19.8784 29.6464L19.7039 28.917L19.5294 28.1875C19.1813 28.2708 18.8187 28.2708 18.4706 28.1875L18.2961 28.917ZM16.1818 26.8106L15.4535 26.9896C15.777 28.3052 16.8055 29.3315 18.1216 29.6464L18.2961 28.917L18.4706 28.1875C17.7035 28.004 17.1003 27.4047 16.9101 26.6315L16.1818 26.8106ZM16.0999 26.4772L15.3715 26.6563L15.4535 26.9896L16.1818 26.8106L16.9101 26.6315L16.8282 26.2981L16.0999 26.4772ZM16.0091 25.9034L15.2611 25.9578C15.2782 26.1932 15.3151 26.4268 15.3715 26.6563L16.0999 26.4772L16.8282 26.2981C16.7919 26.1506 16.7681 26.0003 16.7571 25.849L16.0091 25.9034Z" fill="white"/>
</svg>
