<svg width="32" height="32" viewBox="0 0 32 32" fill="none" xmlns="http://www.w3.org/2000/svg">
<path d="M16.02 6.91016C12.71 6.91016 10.02 9.60016 10.02 12.9102V15.8002C10.02 16.4102 9.76 17.3402 9.45 17.8602L8.3 19.7702C7.59 20.9502 8.08 22.2602 9.38 22.7002C13.69 24.1402 18.34 24.1402 22.65 22.7002C23.86 22.3002 24.39 20.8702 23.73 19.7702L22.58 17.8602C22.28 17.3402 22.02 16.4102 22.02 15.8002V12.9102C22.02 9.61016 19.32 6.91016 16.02 6.91016Z" stroke="#001D4F" stroke-width="1.5" stroke-miterlimit="10" stroke-linecap="round"/>
<path d="M17.87 7.20043C17.56 7.11043 17.24 7.04043 16.91 7.00043C15.95 6.88043 15.03 6.95043 14.17 7.20043C14.46 6.46043 15.18 5.94043 16.02 5.94043C16.86 5.94043 17.58 6.46043 17.87 7.20043Z" stroke="#001D4F" stroke-width="1.5" stroke-miterlimit="10" stroke-linecap="round" stroke-linejoin="round"/>
<path d="M19.02 23.0596C19.02 24.7096 17.67 26.0596 16.02 26.0596C15.2 26.0596 14.44 25.7196 13.9 25.1796C13.36 24.6396 13.02 23.8796 13.02 23.0596" stroke="#001D4F" stroke-width="1.5" stroke-miterlimit="10"/>
</svg>
