<svg width="10" height="11" viewBox="0 0 10 11" fill="none" xmlns="http://www.w3.org/2000/svg">
<path d="M0.625 7.10835C0.625 6.58161 0.625 6.31823 0.674315 6.10029C0.844463 5.34835 1.43166 4.76115 2.1836 4.591C2.40155 4.54169 2.66492 4.54169 3.19167 4.54169H6.80833C7.33508 4.54169 7.59845 4.54169 7.81639 4.591C8.56834 4.76115 9.15554 5.34835 9.32568 6.10029C9.375 6.31823 9.375 6.58161 9.375 7.10835C9.375 7.89847 9.375 8.29353 9.30103 8.62045C9.0458 9.74836 8.16501 10.6292 7.03709 10.8844C6.71018 10.9584 6.31512 10.9584 5.525 10.9584H4.475C3.68488 10.9584 3.28982 10.9584 2.96291 10.8844C1.83499 10.6292 0.954195 9.74836 0.698973 8.62045C0.625 8.29353 0.625 7.89847 0.625 7.10835Z" fill="#929292"/>
<path d="M7.625 4.54169V3.66669C7.625 2.21694 6.44975 1.04169 5 1.04169V1.04169C3.55025 1.04169 2.375 2.21694 2.375 3.66669V4.54169" stroke="#929292"/>
</svg>
