<svg width="16" height="16" viewBox="0 0 16 16" fill="none" xmlns="http://www.w3.org/2000/svg">
<path d="M1.3335 1.33337L14.6668 14.6667" stroke="#D4183D" stroke-linecap="round" stroke-linejoin="round"/>
<path d="M5.56689 1.79339C6.77398 1.32194 8.09229 1.21251 9.36059 1.47848C10.6289 1.74446 11.7922 2.37431 12.7081 3.29099C13.6241 4.20767 14.2531 5.37144 14.5181 6.63994C14.7831 7.90844 14.6726 9.22667 14.2002 10.4334" stroke="#D4183D" stroke-linecap="round" stroke-linejoin="round"/>
<path d="M12.7198 12.72C12.1 13.3399 11.3641 13.8316 10.5542 14.167C9.74438 14.5025 8.87638 14.6751 7.9998 14.6751C7.12321 14.6751 6.25521 14.5025 5.44535 14.167C4.63549 13.8316 3.89963 13.3399 3.2798 12.72C2.65996 12.1002 2.16827 11.3643 1.83282 10.5545C1.49736 9.74462 1.32471 8.87661 1.32471 8.00003C1.32471 7.12344 1.49736 6.25544 1.83282 5.44558C2.16827 4.63572 2.65996 3.89987 3.2798 3.28003" stroke="#D4183D" stroke-linecap="round" stroke-linejoin="round"/>
</svg>
