<svg width="56" height="56" viewBox="0 0 56 56" fill="none" xmlns="http://www.w3.org/2000/svg">
<rect width="56" height="56" rx="28" fill="url(#paint0_linear_91_893)"/>
<path d="M35 37V35C35 33.9391 34.5786 32.9217 33.8284 32.1716C33.0783 31.4214 32.0609 31 31 31H25C23.9391 31 22.9217 31.4214 22.1716 32.1716C21.4214 32.9217 21 33.9391 21 35V37" stroke="white" stroke-width="2" stroke-linecap="round" stroke-linejoin="round"/>
<path d="M28 27C30.2091 27 32 25.2091 32 23C32 20.7909 30.2091 19 28 19C25.7909 19 24 20.7909 24 23C24 25.2091 25.7909 27 28 27Z" stroke="white" stroke-width="2" stroke-linecap="round" stroke-linejoin="round"/>
<defs>
<linearGradient id="paint0_linear_91_893" x1="56" y1="14.7467" x2="-0.807833" y2="13.8313" gradientUnits="userSpaceOnUse">
<stop stop-color="#3895E7"/>
<stop offset="1" stop-color="#1150A9"/>
</linearGradient>
</defs>
</svg>
