<svg width="20" height="24" viewBox="0 0 20 24" fill="none" xmlns="http://www.w3.org/2000/svg">
<path d="M7.46837 15.291C9.15277 15.1424 10.8469 15.1424 12.5313 15.291L13.0691 15.3365C13.8047 15.409 14.5351 15.5226 15.2539 15.676C17.086 16.0534 18.4163 16.7229 19.0052 17.9648C19.4427 18.8888 19.4427 19.9614 19.005 20.8858C18.4146 22.1308 17.0671 22.806 15.2676 23.161L14.7223 23.2742C13.9936 23.414 13.2587 23.5095 12.5287 23.5594C11.159 23.6761 9.7828 23.6973 8.45532 23.6243C8.30899 23.6243 8.21077 23.6238 8.12424 23.6218L7.95594 23.6155C7.75132 23.605 7.56385 23.5836 7.48519 23.5605C6.56163 23.4978 5.64421 23.3641 4.76413 23.1655L4.4656 23.1032C2.79909 22.7329 1.56492 22.0649 0.994036 20.8845C0.777831 20.4264 0.666 19.9258 0.666649 19.4231C0.66477 18.9169 0.777514 18.4169 1.00176 17.9498C1.59631 16.7557 2.99319 16.0371 4.73925 15.6774C5.64389 15.4835 6.56103 15.354 7.46837 15.291ZM12.3841 16.9735C10.7977 16.8335 9.20202 16.8335 7.60007 16.9747C6.7562 17.0334 5.9175 17.1519 5.08371 17.3305C3.79237 17.5965 2.80506 18.1044 2.51136 18.6942C2.40321 18.9195 2.3475 19.1666 2.34842 19.4211C2.34811 19.677 2.40456 19.9298 2.51026 20.1538C2.81232 20.7783 3.74397 21.2451 5.10903 21.5126L5.5203 21.5997C6.20909 21.7363 6.91849 21.8304 7.70687 21.8899C7.80643 21.9099 7.91386 21.9222 8.04134 21.9287L8.50054 21.9366C9.79575 22.0066 11.0942 21.9866 12.4005 21.8755C13.2423 21.8178 14.0786 21.6964 14.9227 21.508L15.1852 21.4524C16.384 21.1806 17.2134 20.7358 17.4864 20.1601C17.7066 19.6951 17.7066 19.1552 17.4866 18.6906C17.1944 18.0744 16.2709 17.6096 14.9101 17.3293C14.0823 17.1526 13.2432 17.0341 12.3989 16.9747L12.3841 16.9735ZM10.005 0.333313C13.428 0.333313 16.2029 3.12006 16.2029 6.55768C16.2029 9.99531 13.428 12.7821 10.005 12.7821C6.58194 12.7821 3.80703 9.99531 3.80703 6.55768C3.80703 3.12006 6.58194 0.333313 10.005 0.333313ZM10.005 2.02226C7.51076 2.02226 5.4888 4.05284 5.4888 6.55768C5.4888 9.06253 7.51076 11.0931 10.005 11.0931C12.4992 11.0931 14.5211 9.06253 14.5211 6.55768C14.5211 4.05284 12.4992 2.02226 10.005 2.02226Z" fill="#5C616F"/>
</svg>
