<svg width="24" height="24" viewBox="0 0 24 24" fill="none" xmlns="http://www.w3.org/2000/svg">
<path d="M12 22C17.5228 22 22 17.5228 22 12C22 6.47715 17.5228 2 12 2C6.47715 2 2 6.47715 2 12C2 17.5228 6.47715 22 12 22Z" stroke="#8C8C8C" stroke-width="2" stroke-linecap="round" stroke-linejoin="round"/>
<path d="M9.09009 9.00001C9.32519 8.33167 9.78924 7.76811 10.4 7.40914C11.0108 7.05016 11.729 6.91894 12.4273 7.03872C13.1255 7.15849 13.7589 7.52153 14.2152 8.06353C14.6714 8.60554 14.9211 9.29153 14.9201 10C14.9201 12 11.9201 13 11.9201 13" stroke="#8C8C8C" stroke-width="2" stroke-linecap="round" stroke-linejoin="round"/>
<path d="M12 17H12.01" stroke="#8C8C8C" stroke-width="2" stroke-linecap="round" stroke-linejoin="round"/>
</svg>
