<svg width="40" height="40" viewBox="0 0 40 40" fill="none" xmlns="http://www.w3.org/2000/svg">
<circle cx="20" cy="20" r="19.5" fill="#EAF6FF" stroke="#EAF6FF"/>
<path d="M25 26.0001H21L16.55 28.96C15.89 29.4 15 28.9301 15 28.1301V26.0001C12 26.0001 10 24.0001 10 21.0001V15C10 12 12 10 15 10H25C28 10 30 12 30 15V21.0001C30 24.0001 28 26.0001 25 26.0001Z" stroke="#4CB7F7" stroke-width="1.5" stroke-miterlimit="10" stroke-linecap="round" stroke-linejoin="round"/>
<path d="M20.4955 21.0645H20.5045" stroke="#4CB7F7" stroke-width="1.5" stroke-linecap="round" stroke-linejoin="round"/>
<path d="M20.66 18.9297V18.7197C20.66 18.0397 21.08 17.6797 21.5 17.3897C21.91 17.1097 22.3199 16.7497 22.3199 16.0897C22.3199 15.1697 21.58 14.4297 20.66 14.4297C19.74 14.4297 19 15.1697 19 16.0897" stroke="#4CB7F7" stroke-width="1.5" stroke-linecap="round" stroke-linejoin="round"/>
</svg>
