<svg width="57" height="59" viewBox="0 0 57 59" fill="none" xmlns="http://www.w3.org/2000/svg">
<path d="M40.2857 -16C40.2857 -12.8572 39.044 -9.84309 36.8338 -7.62079C34.6235 -5.39848 31.6258 -4.15 28.5 -4.15C25.3742 -4.15 22.3765 -5.39848 20.1662 -7.62079C17.956 -9.84309 16.7143 -12.8572 16.7143 -16L8.85715 -16C6.7733 -16 4.77481 -15.1677 3.30131 -13.6861C1.82781 -12.2046 1 -10.1952 1 -8.1L1 55.1C1 57.1952 1.82781 59.2046 3.3013 60.6861C4.7748 62.1677 6.7733 63 8.85714 63L16.7143 63C16.7143 59.8572 17.956 56.8431 20.1662 54.6208C22.3765 52.3985 25.3742 51.15 28.5 51.15C31.6258 51.15 34.6235 52.3985 36.8338 54.6208C39.044 56.8431 40.2857 59.8572 40.2857 63L48.1429 63C50.2267 63 52.2252 62.1677 53.6987 60.6861C55.1722 59.2046 56 57.1952 56 55.1L56 -8.1C56 -10.1952 55.1722 -12.2046 53.6987 -13.6861C52.2252 -15.1677 50.2267 -16 48.1429 -16L40.2857 -16Z" fill="#4CB7F7" stroke="#4CB7F7" stroke-width="2" stroke-linecap="round" stroke-linejoin="round"/>
</svg>
