<svg width="32" height="32" viewBox="0 0 32 32" fill="none" xmlns="http://www.w3.org/2000/svg">
<path d="M4 9.33333V6.66667C4 5.95942 4.28095 5.28115 4.78105 4.78105C5.28115 4.28095 5.95942 4 6.66667 4H9.33333" stroke="#0D47A1" stroke-width="2" stroke-linecap="round" stroke-linejoin="round"/>
<path d="M22.6665 4H25.3332C26.0404 4 26.7187 4.28095 27.2188 4.78105C27.7189 5.28115 27.9998 5.95942 27.9998 6.66667V9.33333" stroke="#0D47A1" stroke-width="2" stroke-linecap="round" stroke-linejoin="round"/>
<path d="M27.9998 22.6667V25.3333C27.9998 26.0406 27.7189 26.7188 27.2188 27.2189C26.7187 27.719 26.0404 28 25.3332 28H22.6665" stroke="#0D47A1" stroke-width="2" stroke-linecap="round" stroke-linejoin="round"/>
<path d="M9.33333 28H6.66667C5.95942 28 5.28115 27.719 4.78105 27.2189C4.28095 26.7188 4 26.0406 4 25.3333V22.6667" stroke="#0D47A1" stroke-width="2" stroke-linecap="round" stroke-linejoin="round"/>
<path d="M10.6665 9.33334V22.6667" stroke="#0D47A1" stroke-width="2" stroke-linecap="round" stroke-linejoin="round"/>
<path d="M16 9.33334V22.6667" stroke="#0D47A1" stroke-width="2" stroke-linecap="round" stroke-linejoin="round"/>
<path d="M22.6665 9.33334V22.6667" stroke="#0D47A1" stroke-width="2" stroke-linecap="round" stroke-linejoin="round"/>
</svg>
