<svg width="100" height="100" viewBox="0 0 100 100" fill="none" xmlns="http://www.w3.org/2000/svg">
<path d="M58.3205 16.6665C59.8238 16.6665 61.2991 17.0731 62.5901 17.8433C63.8812 18.6135 64.9398 19.7186 65.6538 21.0415L67.6788 24.7915C68.3929 26.1144 69.4515 27.2195 70.7425 27.9897C72.0336 28.7599 73.5089 29.1665 75.0122 29.1665H83.333C85.5432 29.1665 87.6628 30.0445 89.2256 31.6073C90.7884 33.1701 91.6663 35.2897 91.6663 37.4998V74.9998C91.6663 77.21 90.7884 79.3296 89.2256 80.8924C87.6628 82.4552 85.5432 83.3332 83.333 83.3332H16.6663C14.4562 83.3332 12.3366 82.4552 10.7738 80.8924C9.21098 79.3296 8.33301 77.21 8.33301 74.9998V37.4998C8.33301 35.2897 9.21098 33.1701 10.7738 31.6073C12.3366 30.0445 14.4562 29.1665 16.6663 29.1665H24.9872C26.4889 29.1666 27.9628 28.7608 29.2529 27.9922C30.5431 27.2235 31.6015 26.1205 32.3163 24.7998L34.3538 21.0332C35.0687 19.7125 36.1271 18.6095 37.4173 17.8408C38.7074 17.0722 40.1813 16.6664 41.683 16.6665H58.3205Z" stroke="#0D47A1" stroke-opacity="0.4" stroke-width="6" stroke-linecap="round" stroke-linejoin="round"/>
<path d="M50 66.6665C56.9036 66.6665 62.5 61.0701 62.5 54.1665C62.5 47.2629 56.9036 41.6665 50 41.6665C43.0964 41.6665 37.5 47.2629 37.5 54.1665C37.5 61.0701 43.0964 66.6665 50 66.6665Z" stroke="#0D47A1" stroke-opacity="0.4" stroke-width="6" stroke-linecap="round" stroke-linejoin="round"/>
</svg>
