<svg width="29" height="29" viewBox="0 0 29 29" fill="none" xmlns="http://www.w3.org/2000/svg">
<path d="M6.04167 8.45833H8.45833H22.9583C24.2875 8.45833 25.375 7.37083 25.375 6.04167C25.375 4.7125 24.2875 3.625 22.9583 3.625H8.45833H6.04167C4.7125 3.625 3.625 4.7125 3.625 6.04167C3.625 7.37083 4.7125 8.45833 6.04167 8.45833Z" fill="#0D47A1"/>
<path d="M22.9583 12.0833H19.3333H6.04167C4.7125 12.0833 3.625 13.1708 3.625 14.4999C3.625 15.8291 4.7125 16.9166 6.04167 16.9166H19.3333H22.9583C24.2875 16.9166 25.375 15.8291 25.375 14.4999C25.375 13.1708 24.2875 12.0833 22.9583 12.0833Z" fill="#0D47A1"/>
<path d="M22.9583 20.5417H15.7083H6.04167C4.7125 20.5417 3.625 21.6292 3.625 22.9584C3.625 24.2876 4.7125 25.3751 6.04167 25.3751H15.7083H22.9583C24.2875 25.3751 25.375 24.2876 25.375 22.9584C25.375 21.6292 24.2875 20.5417 22.9583 20.5417Z" fill="#0D47A1"/>
</svg>
