<svg width="22" height="21" viewBox="0 0 22 21" fill="none" xmlns="http://www.w3.org/2000/svg">
<path d="M10 15.0005L12 17.0005C12.197 17.1975 12.4308 17.3537 12.6882 17.4603C12.9456 17.5669 13.2214 17.6218 13.5 17.6218C13.7786 17.6218 14.0544 17.5669 14.3118 17.4603C14.5692 17.3537 14.803 17.1975 15 17.0005C15.197 16.8035 15.3532 16.5697 15.4598 16.3123C15.5665 16.0549 15.6213 15.7791 15.6213 15.5005C15.6213 15.2219 15.5665 14.9461 15.4598 14.6887C15.3532 14.4313 15.197 14.1975 15 14.0005" stroke="#4CB7F7" stroke-width="2" stroke-linecap="round" stroke-linejoin="round"/>
<path d="M13.0002 12.0005L15.5002 14.5005C15.8981 14.8983 16.4376 15.1218 17.0002 15.1218C17.5628 15.1218 18.1024 14.8983 18.5002 14.5005C18.8981 14.1027 19.1215 13.5631 19.1215 13.0005C19.1215 12.4379 18.8981 11.8983 18.5002 11.5005L14.6202 7.6205C14.0577 7.0587 13.2952 6.74314 12.5002 6.74314C11.7052 6.74314 10.9427 7.0587 10.3802 7.6205L9.50023 8.5005C9.1024 8.89833 8.56284 9.12182 8.00023 9.12182C7.43762 9.12182 6.89805 8.89833 6.50023 8.5005C6.1024 8.10268 5.87891 7.56311 5.87891 7.0005C5.87891 6.43789 6.1024 5.89833 6.50023 5.5005L9.31023 2.6905C10.2225 1.78065 11.4121 1.20106 12.6909 1.04348C13.9696 0.885897 15.2644 1.15933 16.3702 1.8205L16.8402 2.1005C17.266 2.35749 17.7723 2.44662 18.2602 2.3505L20.0002 2.0005" stroke="#4CB7F7" stroke-width="2" stroke-linecap="round" stroke-linejoin="round"/>
<path d="M20 1.00049L21 12.0005H19" stroke="#4CB7F7" stroke-width="2" stroke-linecap="round" stroke-linejoin="round"/>
<path d="M2 1.00049L1 12.0005L7.5 18.5005C7.89782 18.8983 8.43739 19.1218 9 19.1218C9.56261 19.1218 10.1022 18.8983 10.5 18.5005C10.8978 18.1027 11.1213 17.5631 11.1213 17.0005C11.1213 16.4379 10.8978 15.8983 10.5 15.5005" stroke="#4CB7F7" stroke-width="2" stroke-linecap="round" stroke-linejoin="round"/>
<path d="M2 2.00049H10" stroke="#4CB7F7" stroke-width="2" stroke-linecap="round" stroke-linejoin="round"/>
</svg>
