<svg width="32" height="32" viewBox="0 0 32 32" fill="none" xmlns="http://www.w3.org/2000/svg">
<rect width="32" height="32" rx="16" fill="white"/>
<path d="M22.6598 19.7492V19.7458C22.5481 18.2402 21.1638 17.103 19.5669 17.2065C18.6837 17.2625 17.9231 17.6869 17.4328 18.3064L15.0248 17.1963C15.1131 16.901 15.151 16.5938 15.1275 16.2814C15.1059 15.964 15.0212 15.6619 14.895 15.3835L17.1192 13.9815C17.6924 14.5314 18.5089 14.8539 19.3902 14.7962C20.1581 14.747 20.8718 14.4109 21.3801 13.8643C22.4309 12.7271 22.3084 11.0008 21.1007 10.0095C20.5204 9.53088 19.7633 9.29325 18.9919 9.33908C17.3932 9.44601 16.1855 10.7479 16.2955 12.2535C16.3207 12.5726 16.4018 12.8731 16.528 13.1514L14.3074 14.5535C13.7343 14.0035 12.9196 13.681 12.04 13.7387C10.4376 13.8423 9.23001 15.1442 9.33996 16.6498C9.4445 18.1554 10.8324 19.2943 12.4311 19.1925C13.1989 19.1433 13.9127 18.8106 14.421 18.264C14.4678 18.208 14.5147 18.152 14.5598 18.0943L16.9678 19.201C16.8831 19.4946 16.8452 19.8019 16.8651 20.121C16.975 21.6266 18.3575 22.7638 19.9598 22.6603C21.5585 22.5567 22.7662 21.2548 22.6598 19.7492ZM19.0694 10.3338C19.5561 10.3032 20.0373 10.456 20.4068 10.7581C20.7763 11.0636 21.0016 11.4914 21.034 11.948C21.1043 12.9053 20.3365 13.7353 19.3199 13.8015C18.3052 13.8677 17.4256 13.1447 17.3553 12.1873C17.285 11.23 18.0528 10.4 19.0694 10.3338ZM12.3626 18.1978C11.346 18.264 10.4665 17.5409 10.3962 16.587C10.3259 15.6279 11.0883 14.7996 12.1067 14.7334C12.5951 14.6995 13.0782 14.8522 13.4441 15.1578C13.8136 15.4599 14.0389 15.8877 14.0749 16.3443C14.1452 17.3033 13.3774 18.1316 12.3626 18.1978ZM19.8859 21.6656C18.8729 21.7318 17.9916 21.0087 17.9213 20.0514C17.851 19.0957 18.6188 18.2674 19.6354 18.2012C20.6537 18.1384 21.5333 18.8581 21.6036 19.8154C21.6703 20.7745 20.9043 21.6028 19.8859 21.6656Z" fill="#8A8990" stroke="#8A8990" stroke-width="0.2"/>
</svg>
