<svg width="24" height="24" viewBox="0 0 24 24" fill="none" xmlns="http://www.w3.org/2000/svg">
<path d="M10.3333 18L9.53333 18.6C9.72805 18.8596 10.0367 19.0086 10.3611 18.9996C10.6855 18.9906 10.9854 18.8247 11.1654 18.5547L10.3333 18ZM6.8 11.6222C6.46863 11.1804 5.84183 11.0909 5.4 11.4222C4.95817 11.7536 4.86863 12.3804 5.2 12.8222L6 12.2222L6.8 11.6222ZM19.832 5.5547C20.1384 5.09517 20.0142 4.4743 19.5547 4.16795C19.0952 3.8616 18.4743 3.98577 18.1679 4.4453L19 5L19.832 5.5547ZM10.3333 18L11.1333 17.4L6.8 11.6222L6 12.2222L5.2 12.8222L9.53333 18.6L10.3333 18ZM19 5L18.1679 4.4453L9.50128 17.4453L10.3333 18L11.1654 18.5547L19.832 5.5547L19 5Z" fill="#4CB5F7"/>
</svg>
