<svg width="40" height="40" viewBox="0 0 40 40" fill="none" xmlns="http://www.w3.org/2000/svg">
<rect width="40" height="40" rx="20" fill="#C4C4CF" fill-opacity="0.5"/>
<path d="M23 29V24C23 23.7348 22.8946 23.4804 22.7071 23.2929C22.5196 23.1054 22.2652 23 22 23H18C17.7348 23 17.4804 23.1054 17.2929 23.2929C17.1054 23.4804 17 23.7348 17 24V29" stroke="white" stroke-width="2" stroke-linecap="round" stroke-linejoin="round"/>
<path d="M25.774 18.31C25.5655 18.1104 25.288 17.999 24.9995 17.999C24.7109 17.999 24.4334 18.1104 24.225 18.31C23.76 18.7535 23.142 19.001 22.4995 19.001C21.8569 19.001 21.2389 18.7535 20.774 18.31C20.5655 18.1107 20.2883 17.9995 20 17.9995C19.7116 17.9995 19.4344 18.1107 19.226 18.31C18.7609 18.7538 18.1428 19.0014 17.5 19.0014C16.8571 19.0014 16.239 18.7538 15.774 18.31C15.5655 18.1104 15.288 17.999 14.9995 17.999C14.7109 17.999 14.4334 18.1104 14.225 18.31C13.7758 18.7386 13.1832 18.9848 12.5626 19.0005C11.9419 19.0163 11.3376 18.8006 10.8673 18.3954C10.3969 17.9901 10.0941 17.4244 10.0179 16.8082C9.94173 16.1921 10.0975 15.5696 10.455 15.062L13.344 10.878C13.5273 10.6075 13.774 10.3861 14.0627 10.233C14.3514 10.0799 14.6732 9.99994 15 10H25C25.3257 9.99988 25.6466 10.0793 25.9347 10.2315C26.2228 10.3836 26.4694 10.6039 26.653 10.873L29.548 15.065C29.9055 15.573 30.0611 16.196 29.9844 16.8124C29.9077 17.4289 29.6042 17.9947 29.1331 18.3997C28.662 18.8046 28.057 19.0197 27.436 19.0029C26.815 18.9861 26.2225 18.7388 25.774 18.309" stroke="white" stroke-width="2" stroke-linecap="round" stroke-linejoin="round"/>
<path d="M12 18.9502V27.0002C12 27.5306 12.2107 28.0393 12.5858 28.4144C12.9609 28.7895 13.4696 29.0002 14 29.0002H26C26.5304 29.0002 27.0391 28.7895 27.4142 28.4144C27.7893 28.0393 28 27.5306 28 27.0002V18.9502" stroke="white" stroke-width="2" stroke-linecap="round" stroke-linejoin="round"/>
</svg>
