<svg width="32" height="30" viewBox="0 0 32 30" fill="none" xmlns="http://www.w3.org/2000/svg">
<path d="M23.0533 5.17522L22.96 9.91271C22.9467 10.5627 23.3867 11.4252 23.9467 11.8127L27.2534 14.1627C29.3734 15.6627 29.0267 17.5002 26.4934 18.2502L22.1867 19.5127C21.4667 19.7252 20.7067 20.4627 20.52 21.1502L19.4934 24.8252C18.68 27.7252 16.6533 28.0127 14.9733 25.4627L12.6267 21.9002C12.2 21.2502 11.1867 20.7627 10.3867 20.8002L5.93338 21.0127C2.74671 21.1627 1.84003 19.4377 3.92003 17.1627L6.56 14.2877C7.05334 13.7502 7.28 12.7502 7.05333 12.0752L5.70673 8.03771C4.92007 5.66271 6.33338 4.35023 8.85338 5.12523L12.7867 6.33773C13.4534 6.53773 14.4534 6.40022 15.0134 6.01272L19.1201 3.23772C21.3334 1.73772 23.1067 2.61272 23.0533 5.17522Z" fill="#ECEBF5"/>
<path opacity="0.4" d="M28.5871 25.5877L24.5471 21.8002C24.1604 21.4377 23.5204 21.4377 23.1338 21.8002C22.7471 22.1627 22.7471 22.7627 23.1338 23.1252L27.1738 26.9127C27.3738 27.1002 27.6271 27.1877 27.8804 27.1877C28.1337 27.1877 28.3871 27.1002 28.5871 26.9127C28.9738 26.5502 28.9738 25.9502 28.5871 25.5877Z" fill="#ECEBF5"/>
</svg>
