<svg width="259" height="184" viewBox="0 0 259 184" fill="none" xmlns="http://www.w3.org/2000/svg">
<g clip-path="url(#clip0_352_1319)">
<path d="M224 179C224 179 255.59 186.63 257 159" stroke="#0D47A1" stroke-width="4" stroke-miterlimit="10"/>
<path d="M35 181C35 181 3.41 188.63 2 161" stroke="#0D47A1" stroke-width="4" stroke-miterlimit="10"/>
<path d="M224 5.00006C224 5.00006 255.59 -2.62994 257 25.0001" stroke="#0D47A1" stroke-width="4" stroke-miterlimit="10"/>
<path d="M36 3.00006C36 3.00006 4.41 -4.62994 3 23.0001" stroke="#0D47A1" stroke-width="4" stroke-miterlimit="10"/>
</g>
<rect x="77" y="18" width="100" height="100" rx="50" fill="#00C950"/>
<path d="M146.602 64C147.515 68.4826 146.864 73.1428 144.758 77.2036C142.651 81.2643 139.216 84.4801 135.025 86.3146C130.834 88.1491 126.141 88.4915 121.729 87.2847C117.316 86.0779 113.45 83.3948 110.777 79.6828C108.103 75.9709 106.782 71.4545 107.035 66.8868C107.288 62.319 109.1 57.9762 112.167 54.5823C115.235 51.1885 119.373 48.9488 123.892 48.2369C128.411 47.5249 133.038 48.3837 137 50.67" stroke="white" stroke-width="5" stroke-linecap="round" stroke-linejoin="round"/>
<path d="M121 66L127 72L147 52" stroke="white" stroke-width="5" stroke-linecap="round" stroke-linejoin="round"/>
<path d="M86.0057 145.744L86.1977 146.752C85.6964 146.859 85.2324 146.939 84.8057 146.992C84.3897 147.056 83.995 147.088 83.6217 147.088C82.843 147.088 82.1657 146.965 81.5897 146.72C81.0244 146.485 80.587 146.133 80.2777 145.664C79.979 145.195 79.8297 144.629 79.8297 143.968C79.8297 143.307 79.979 142.741 80.2777 142.272C80.587 141.813 81.0244 141.467 81.5897 141.232C82.1657 140.987 82.8484 140.864 83.6377 140.864H86.2777V142H83.6377C82.7524 142 82.1017 142.165 81.6857 142.496C81.2804 142.837 81.0777 143.333 81.0777 143.984C81.0777 144.624 81.2804 145.109 81.6857 145.44C82.1017 145.781 82.747 145.952 83.6217 145.952C83.8884 145.952 84.2137 145.936 84.5977 145.904C84.9817 145.872 85.451 145.819 86.0057 145.744ZM80.7897 135.424L80.6457 134.4C81.083 134.293 81.563 134.203 82.0857 134.128C82.6084 134.043 83.115 134 83.6057 134C84.4164 134 85.1097 134.128 85.6857 134.384C86.2724 134.629 86.7204 134.992 87.0297 135.472C87.3497 135.952 87.5097 136.539 87.5097 137.232V142H86.2777V137.232C86.2777 136.539 86.059 136.021 85.6217 135.68C85.1844 135.328 84.523 135.152 83.6377 135.152C83.3604 135.152 82.9604 135.179 82.4377 135.232C81.915 135.275 81.3657 135.339 80.7897 135.424ZM91.0739 142V140.864H93.0259V142H91.0739ZM89.8419 142V130.528H91.0739V142H89.8419ZM93.0259 142V140.864C93.0899 140.864 93.1433 140.88 93.1859 140.912C93.2286 140.933 93.2606 140.971 93.2819 141.024C93.3033 141.067 93.3193 141.125 93.3299 141.2C93.3406 141.264 93.3459 141.339 93.3459 141.424C93.3459 141.509 93.3406 141.589 93.3299 141.664C93.3193 141.739 93.3033 141.803 93.2819 141.856C93.2606 141.899 93.2286 141.936 93.1859 141.968C93.1433 141.989 93.0899 142 93.0259 142ZM100.78 142V140.864H102.508V142H100.78ZM92.8597 142C92.7957 142 92.7424 141.989 92.6997 141.968C92.657 141.936 92.625 141.899 92.6037 141.856C92.5824 141.803 92.5664 141.739 92.5557 141.664C92.545 141.589 92.5397 141.509 92.5397 141.424C92.5397 141.307 92.5504 141.211 92.5717 141.136C92.5824 141.051 92.6144 140.987 92.6677 140.944C92.7104 140.891 92.7744 140.864 92.8597 140.864V142ZM92.8597 142V140.864H99.9157L99.5317 141.2V137.232C99.5317 136.539 99.313 136.021 98.8757 135.68C98.449 135.328 97.793 135.152 96.9077 135.152C96.6304 135.152 96.2304 135.179 95.7077 135.232C95.185 135.275 94.6357 135.339 94.0597 135.424L93.9157 134.4C94.353 134.293 94.833 134.203 95.3557 134.128C95.8784 134.043 96.385 134 96.8757 134C97.6864 134 98.3797 134.128 98.9557 134.384C99.5424 134.629 99.9904 134.992 100.3 135.472C100.62 135.952 100.78 136.539 100.78 137.232V142H92.8597ZM102.508 142V140.864C102.572 140.864 102.625 140.88 102.668 140.912C102.71 140.933 102.742 140.971 102.764 141.024C102.785 141.067 102.801 141.125 102.812 141.2C102.822 141.264 102.828 141.339 102.828 141.424C102.828 141.509 102.822 141.589 102.812 141.664C102.801 141.739 102.785 141.803 102.764 141.856C102.742 141.899 102.71 141.936 102.668 141.968C102.625 141.989 102.572 142 102.508 142ZM96.2517 144.88V143.44H97.4997V144.88H96.2517ZM105.311 142V140.864H107.039V142H105.311ZM102.335 142C102.271 142 102.218 141.989 102.175 141.968C102.133 141.936 102.101 141.899 102.079 141.856C102.058 141.803 102.042 141.739 102.031 141.664C102.021 141.589 102.015 141.509 102.015 141.424C102.015 141.307 102.026 141.211 102.047 141.136C102.058 141.051 102.09 140.987 102.143 140.944C102.186 140.891 102.25 140.864 102.335 140.864V142ZM102.335 142V140.864H104.639L104.063 141.328V134H105.311V142H102.335ZM107.039 142V140.864C107.103 140.864 107.157 140.88 107.199 140.912C107.242 140.933 107.274 140.971 107.295 141.024C107.317 141.067 107.333 141.125 107.343 141.2C107.354 141.264 107.359 141.339 107.359 141.424C107.359 141.509 107.354 141.589 107.343 141.664C107.333 141.739 107.317 141.803 107.295 141.856C107.274 141.899 107.242 141.936 107.199 141.968C107.157 141.989 107.103 142 107.039 142ZM104.063 132.56V131.12H105.311V132.56H104.063ZM106.873 142V140.864H109.177L108.601 141.328V134H109.849V142H106.873ZM106.873 142C106.809 142 106.756 141.989 106.713 141.968C106.671 141.936 106.639 141.899 106.617 141.856C106.596 141.803 106.58 141.739 106.569 141.664C106.559 141.589 106.553 141.509 106.553 141.424C106.553 141.307 106.564 141.211 106.585 141.136C106.596 141.051 106.628 140.987 106.681 140.944C106.724 140.891 106.788 140.864 106.873 140.864V142ZM108.601 144.88V143.44H109.849V144.88H108.601ZM122.645 142V140.864H124.373V142H122.645ZM121.141 145.744L121.333 146.752C120.831 146.859 120.367 146.939 119.941 146.992C119.525 147.056 119.13 147.088 118.757 147.088C117.978 147.088 117.301 146.965 116.725 146.72C116.159 146.485 115.722 146.133 115.413 145.664C115.114 145.195 114.965 144.629 114.965 143.968C114.965 143.307 115.114 142.741 115.413 142.272C115.722 141.813 116.159 141.467 116.725 141.232C117.301 140.987 117.983 140.864 118.773 140.864H121.413V142H118.773C117.887 142 117.237 142.165 116.821 142.496C116.415 142.837 116.213 143.333 116.213 143.984C116.213 144.624 116.415 145.109 116.821 145.44C117.237 145.781 117.882 145.952 118.757 145.952C119.023 145.952 119.349 145.936 119.733 145.904C120.117 145.872 120.586 145.819 121.141 145.744ZM115.925 135.424L115.781 134.4C116.218 134.293 116.698 134.203 117.221 134.128C117.743 134.043 118.25 134 118.741 134C119.551 134 120.245 134.128 120.821 134.384C121.407 134.629 121.855 134.992 122.165 135.472C122.485 135.952 122.645 136.539 122.645 137.232V142H121.413V137.232C121.413 136.539 121.194 136.021 120.757 135.68C120.319 135.328 119.658 135.152 118.773 135.152C118.495 135.152 118.095 135.179 117.573 135.232C117.05 135.275 116.501 135.339 115.925 135.424ZM124.373 142V140.864C124.437 140.864 124.49 140.88 124.533 140.912C124.575 140.933 124.607 140.971 124.629 141.024C124.65 141.067 124.666 141.125 124.677 141.2C124.687 141.264 124.693 141.339 124.693 141.424C124.693 141.509 124.687 141.589 124.677 141.664C124.666 141.739 124.65 141.803 124.629 141.856C124.607 141.899 124.575 141.936 124.533 141.968C124.49 141.989 124.437 142 124.373 142ZM136.239 142V140.864H137.967V142H136.239ZM124.207 142C124.143 142 124.089 141.989 124.047 141.968C124.004 141.936 123.972 141.899 123.951 141.856C123.929 141.803 123.913 141.739 123.903 141.664C123.892 141.589 123.887 141.509 123.887 141.424C123.887 141.307 123.897 141.211 123.919 141.136C123.929 141.051 123.961 140.987 124.015 140.944C124.057 140.891 124.121 140.864 124.207 140.864V142ZM132.623 142C132.26 142 131.903 141.931 131.551 141.792C131.209 141.653 130.879 141.435 130.559 141.136L131.375 140.288C131.62 140.491 131.839 140.64 132.031 140.736C132.223 140.821 132.42 140.864 132.623 140.864H135.471L134.991 141.376V137.552C134.991 137.36 134.969 137.088 134.927 136.736C134.895 136.384 134.841 135.989 134.767 135.552C134.703 135.104 134.623 134.656 134.527 134.208L135.743 134C135.817 134.373 135.892 134.789 135.967 135.248C136.041 135.707 136.105 136.144 136.159 136.56C136.212 136.965 136.239 137.296 136.239 137.552V142H132.623ZM124.207 142V140.864H126.543L126.223 141.184V135.6H127.455V142H124.207ZM127.455 142V140.864H129.263C129.625 140.864 129.897 140.811 130.079 140.704C130.271 140.597 130.404 140.384 130.479 140.064C130.553 139.744 130.591 139.275 130.591 138.656V134.8H131.839V138.656C131.839 139.488 131.748 140.149 131.567 140.64C131.396 141.131 131.124 141.483 130.751 141.696C130.377 141.899 129.881 142 129.263 142H127.455ZM137.967 142V140.864C138.031 140.864 138.084 140.88 138.127 140.912C138.169 140.933 138.201 140.971 138.223 141.024C138.244 141.067 138.26 141.125 138.271 141.2C138.281 141.264 138.287 141.339 138.287 141.424C138.287 141.509 138.281 141.589 138.271 141.664C138.26 141.739 138.244 141.803 138.223 141.856C138.201 141.899 138.169 141.936 138.127 141.968C138.084 141.989 138.031 142 137.967 142ZM146.879 142V140.864H148.607V142H146.879ZM137.807 142C137.743 142 137.69 141.989 137.647 141.968C137.605 141.936 137.573 141.899 137.551 141.856C137.53 141.803 137.514 141.739 137.503 141.664C137.493 141.589 137.487 141.509 137.487 141.424C137.487 141.307 137.498 141.211 137.519 141.136C137.53 141.051 137.562 140.987 137.615 140.944C137.658 140.891 137.722 140.864 137.807 140.864V142ZM137.807 142V140.864H146.559L145.631 141.52V138.08C145.631 137.333 145.546 136.747 145.375 136.32C145.205 135.893 144.911 135.589 144.495 135.408C144.09 135.227 143.535 135.136 142.831 135.136C142.383 135.136 141.935 135.168 141.487 135.232C141.05 135.296 140.709 135.381 140.463 135.488L141.215 134.72C141.151 134.976 141.087 135.301 141.023 135.696C140.959 136.08 140.906 136.496 140.863 136.944C140.821 137.392 140.799 137.84 140.799 138.288C140.799 138.747 140.821 139.195 140.863 139.632C140.906 140.069 140.954 140.448 141.007 140.768C141.061 141.088 141.103 141.312 141.135 141.44L139.951 141.776C139.909 141.637 139.855 141.397 139.791 141.056C139.738 140.715 139.685 140.304 139.631 139.824C139.589 139.344 139.567 138.832 139.567 138.288C139.567 137.765 139.589 137.259 139.631 136.768C139.685 136.267 139.743 135.813 139.807 135.408C139.882 135.003 139.951 134.677 140.015 134.432C140.25 134.336 140.623 134.24 141.135 134.144C141.647 134.048 142.213 134 142.831 134C143.727 134 144.474 134.133 145.071 134.4C145.679 134.667 146.133 135.099 146.431 135.696C146.73 136.283 146.879 137.077 146.879 138.08V142H137.807ZM148.607 142V140.864C148.671 140.864 148.725 140.88 148.767 140.912C148.81 140.933 148.842 140.971 148.863 141.024C148.885 141.067 148.901 141.125 148.911 141.2C148.922 141.264 148.927 141.339 148.927 141.424C148.927 141.509 148.922 141.589 148.911 141.664C148.901 141.739 148.885 141.803 148.863 141.856C148.842 141.899 148.81 141.936 148.767 141.968C148.725 141.989 148.671 142 148.607 142ZM150.375 142V130.528H151.623V142H150.375ZM148.439 142V140.864H150.375V142H148.439ZM148.439 142C148.375 142 148.322 141.989 148.279 141.968C148.236 141.936 148.204 141.899 148.183 141.856C148.162 141.803 148.146 141.739 148.135 141.664C148.124 141.589 148.119 141.509 148.119 141.424C148.119 141.307 148.13 141.211 148.151 141.136C148.162 141.051 148.194 140.987 148.247 140.944C148.29 140.891 148.354 140.864 148.439 140.864V142ZM154.216 142V130.528H155.448V142H154.216ZM168.979 142V140.864H170.707V142H168.979ZM161.203 147.312C161.096 146.704 161 146.128 160.915 145.584C160.84 145.04 160.803 144.576 160.803 144.192C160.803 143.499 160.92 142.901 161.155 142.4C161.4 141.909 161.747 141.531 162.195 141.264C162.653 140.997 163.197 140.864 163.827 140.864C164.008 140.864 164.275 140.864 164.627 140.864C164.979 140.864 165.384 140.864 165.843 140.864C166.301 140.864 166.776 140.864 167.267 140.864C167.757 140.864 168.221 140.864 168.659 140.864L167.731 141.68V138.08C167.731 137.333 167.645 136.747 167.475 136.32C167.304 135.893 167.011 135.589 166.595 135.408C166.189 135.227 165.635 135.136 164.931 135.136C164.483 135.136 164.035 135.168 163.587 135.232C163.149 135.296 162.808 135.381 162.563 135.488L163.315 134.72C163.251 134.976 163.187 135.301 163.123 135.696C163.059 136.08 163.005 136.496 162.963 136.944C162.931 137.392 162.915 137.84 162.915 138.288C162.915 138.747 162.931 139.195 162.963 139.632C163.005 140.069 163.053 140.448 163.107 140.768C163.16 141.088 163.203 141.312 163.235 141.44L162.051 141.776C162.008 141.637 161.955 141.397 161.891 141.056C161.837 140.715 161.784 140.304 161.731 139.824C161.688 139.344 161.667 138.832 161.667 138.288C161.667 137.765 161.688 137.259 161.731 136.768C161.784 136.267 161.843 135.813 161.907 135.408C161.981 135.003 162.051 134.677 162.115 134.432C162.349 134.336 162.723 134.24 163.235 134.144C163.747 134.048 164.312 134 164.931 134C165.464 134 165.944 134.048 166.371 134.144C166.808 134.229 167.187 134.373 167.507 134.576C167.837 134.779 168.109 135.04 168.323 135.36C168.547 135.669 168.712 136.053 168.819 136.512C168.925 136.96 168.979 137.483 168.979 138.08V142C168.531 142 168.045 142 167.523 142C167.011 142 166.504 142 166.003 142C165.512 142 165.069 142 164.675 142C164.291 142 164.008 142 163.827 142C163.656 142 163.469 142.021 163.267 142.064C163.064 142.117 162.867 142.213 162.675 142.352C162.493 142.501 162.344 142.72 162.227 143.008C162.109 143.307 162.051 143.701 162.051 144.192C162.051 144.597 162.088 145.061 162.163 145.584C162.237 146.107 162.323 146.683 162.419 147.312H161.203ZM170.707 142V140.864C170.771 140.864 170.824 140.88 170.867 140.912C170.909 140.933 170.941 140.971 170.963 141.024C170.984 141.067 171 141.125 171.011 141.2C171.021 141.264 171.027 141.339 171.027 141.424C171.027 141.509 171.021 141.589 171.011 141.664C171 141.739 170.984 141.803 170.963 141.856C170.941 141.899 170.909 141.936 170.867 141.968C170.824 141.989 170.771 142 170.707 142ZM170.545 142V140.864H172.849L172.273 141.328V134H173.521V142H170.545ZM170.545 142C170.481 142 170.427 141.989 170.385 141.968C170.342 141.936 170.31 141.899 170.289 141.856C170.267 141.803 170.251 141.739 170.241 141.664C170.23 141.589 170.225 141.509 170.225 141.424C170.225 141.307 170.235 141.211 170.257 141.136C170.267 141.051 170.299 140.987 170.353 140.944C170.395 140.891 170.459 140.864 170.545 140.864V142ZM171.185 132.56V131.12H172.433V132.56H171.185ZM173.377 132.56V131.12H174.625V132.56H173.377Z" fill="#0D47A1"/>
<defs>
<clipPath id="clip0_352_1319">
<rect width="258.99" height="183.94" fill="white"/>
</clipPath>
</defs>
</svg>
