<svg width="40" height="40" viewBox="0 0 40 40" fill="none" xmlns="http://www.w3.org/2000/svg">
<circle cx="20" cy="20" r="19.5" fill="#EAF6FF" stroke="#EAF6FF"/>
<path d="M10.9917 24.3417C11.1387 24.7126 11.1715 25.119 11.0857 25.5087L10.0207 28.7987C9.98638 28.9655 9.99525 29.1384 10.0465 29.3008C10.0977 29.4633 10.1896 29.61 10.3134 29.727C10.4372 29.844 10.5888 29.9274 10.7539 29.9693C10.919 30.0113 11.0921 30.0104 11.2567 29.9667L14.6697 28.9687C15.0374 28.8958 15.4182 28.9276 15.7687 29.0607C17.9041 30.0579 20.3231 30.2689 22.5988 29.6564C24.8746 29.0439 26.861 27.6473 28.2074 25.7131C29.5538 23.7788 30.1738 21.4311 29.958 19.0842C29.7422 16.7374 28.7044 14.5422 27.0278 12.8859C25.3511 11.2296 23.1434 10.2187 20.7941 10.0316C18.4448 9.84445 16.1048 10.4931 14.1871 11.863C12.2694 13.233 10.8972 15.2362 10.3126 17.5193C9.72795 19.8024 9.96846 22.2186 10.9917 24.3417Z" stroke="#4CB7F7" stroke-width="1.5" stroke-linecap="round" stroke-linejoin="round"/>
<path d="M16 20H16.01" stroke="#4CB7F7" stroke-width="1.5" stroke-linecap="round" stroke-linejoin="round"/>
<path d="M20 20H20.01" stroke="#4CB7F7" stroke-width="1.5" stroke-linecap="round" stroke-linejoin="round"/>
<path d="M24 20H24.01" stroke="#4CB7F7" stroke-width="1.5" stroke-linecap="round" stroke-linejoin="round"/>
</svg>
