<svg width="24" height="24" viewBox="0 0 24 24" fill="none" xmlns="http://www.w3.org/2000/svg">
<path d="M9.6713 4.13615C9.7264 3.55649 9.99564 3.0182 10.4264 2.62643C10.8572 2.23467 11.4185 2.01758 12.0008 2.01758C12.5831 2.01758 13.1444 2.23467 13.5752 2.62643C14.006 3.0182 14.2752 3.55649 14.3303 4.13615C14.3634 4.51061 14.4863 4.87157 14.6884 5.18849C14.8906 5.50541 15.1662 5.76896 15.4918 5.95683C15.8174 6.1447 16.1834 6.25135 16.559 6.26777C16.9346 6.28419 17.3085 6.20989 17.6493 6.05115C18.1784 5.81093 18.778 5.77617 19.3313 5.95364C19.8846 6.1311 20.3521 6.5081 20.6428 7.01126C20.9335 7.51441 21.0266 8.10772 20.9039 8.67572C20.7813 9.24372 20.4517 9.74577 19.9793 10.0842C19.6717 10.3 19.4206 10.5868 19.2472 10.9202C19.0739 11.2536 18.9833 11.6239 18.9833 11.9997C18.9833 12.3754 19.0739 12.7457 19.2472 13.0791C19.4206 13.4125 19.6717 13.6993 19.9793 13.9152C20.4517 14.2535 20.7813 14.7556 20.9039 15.3236C21.0266 15.8916 20.9335 16.4849 20.6428 16.988C20.3521 17.4912 19.8846 17.8682 19.3313 18.0457C18.778 18.2231 18.1784 18.1884 17.6493 17.9482C17.3085 17.7894 16.9346 17.7151 16.559 17.7315C16.1834 17.7479 15.8174 17.8546 15.4918 18.0425C15.1662 18.2303 14.8906 18.4939 14.6884 18.8108C14.4863 19.1277 14.3634 19.4887 14.3303 19.8632C14.2752 20.4428 14.006 20.9811 13.5752 21.3729C13.1444 21.7646 12.5831 21.9817 12.0008 21.9817C11.4185 21.9817 10.8572 21.7646 10.4264 21.3729C9.99564 20.9811 9.7264 20.4428 9.6713 19.8632C9.63825 19.4886 9.5154 19.1275 9.31317 18.8104C9.11094 18.4934 8.83528 18.2298 8.50954 18.0419C8.1838 17.854 7.81757 17.7474 7.44188 17.7311C7.06619 17.7147 6.69211 17.7892 6.3513 17.9482C5.82219 18.1884 5.22263 18.2231 4.6693 18.0457C4.11598 17.8682 3.64848 17.4912 3.35779 16.988C3.0671 16.4849 2.97402 15.8916 3.09666 15.3236C3.21931 14.7556 3.54891 14.2535 4.0213 13.9152C4.32892 13.6993 4.58003 13.4125 4.75339 13.0791C4.92675 12.7457 5.01726 12.3754 5.01726 11.9997C5.01726 11.6239 4.92675 11.2536 4.75339 10.9202C4.58003 10.5868 4.32892 10.3 4.0213 10.0842C3.54957 9.7456 3.22055 9.24375 3.09821 8.67613C2.97586 8.10852 3.06891 7.51569 3.35929 7.01286C3.64966 6.51004 4.11662 6.13313 4.66939 5.95539C5.22217 5.77766 5.82129 5.81179 6.3503 6.05115C6.69106 6.20989 7.06505 6.28419 7.44061 6.26777C7.81616 6.25135 8.18224 6.1447 8.50784 5.95683C8.83345 5.76896 9.109 5.50541 9.31117 5.18849C9.51334 4.87157 9.63619 4.51061 9.6693 4.13615" stroke="#9DB2CE" stroke-linecap="round" stroke-linejoin="round"/>
<path d="M12 15C13.6569 15 15 13.6569 15 12C15 10.3431 13.6569 9 12 9C10.3431 9 9 10.3431 9 12C9 13.6569 10.3431 15 12 15Z" stroke="#9DB2CE" stroke-linecap="round" stroke-linejoin="round"/>
</svg>
