<svg width="40" height="40" viewBox="0 0 40 40" fill="none" xmlns="http://www.w3.org/2000/svg">
<circle cx="20" cy="20" r="19.5" fill="#EAF6FF" stroke="#EAF6FF"/>
<path d="M22 10C24 10 25 11.01 25 13.03V20.08C25 22.07 23.59 22.84 21.86 21.8L20.54 21C20.24 20.82 19.76 20.82 19.46 21L18.14 21.8C16.41 22.84 15 22.07 15 20.08V13.03C15 11.01 16 10 18 10H22Z" stroke="#4CB7F7" stroke-width="1.5" stroke-linecap="round" stroke-linejoin="round"/>
<path d="M14.82 12.9909C11.41 13.5609 10 15.6609 10 19.9009V22.9309C10 27.9809 12 30.0009 17 30.0009H23C28 30.0009 30 27.9809 30 22.9309V19.9009C30 15.5909 28.54 13.4809 25 12.9609" stroke="#4CB7F7" stroke-width="1.5" stroke-linecap="round" stroke-linejoin="round"/>
</svg>
