<svg width="25" height="29" viewBox="0 0 25 29" fill="none" xmlns="http://www.w3.org/2000/svg">
<path fill-rule="evenodd" clip-rule="evenodd" d="M8.26672 0.199251H16.2667V2.86592H8.26672V0.199251ZM13.6 9.5332V17.5332H10.9333V9.5332H13.6ZM21.6401 8.70555L23.5334 6.81221C22.9601 6.13221 22.3334 5.49221 21.6534 4.93221L19.7601 6.82555C17.6934 5.17221 15.0934 4.18555 12.2667 4.18555C5.64006 4.18555 0.266724 9.55888 0.266724 16.1855C0.266724 22.8122 5.62672 28.1855 12.2667 28.1855C18.9067 28.1855 24.2667 22.8122 24.2667 16.1855C24.2667 13.3722 23.2801 10.7722 21.6401 8.70555ZM2.93335 16.1986C2.93335 21.3586 7.10668 25.5319 12.2667 25.5319C17.4267 25.5319 21.6 21.3586 21.6 16.1986C21.6 11.0386 17.4267 6.86523 12.2667 6.86523C7.10668 6.86523 2.93335 11.0386 2.93335 16.1986Z" fill="#001D4F"/>
</svg>
