<svg width="20" height="24" viewBox="0 0 20 24" fill="none" xmlns="http://www.w3.org/2000/svg">
<path d="M12.9593 20.639C13.3053 20.9208 13.3601 21.4332 13.0818 21.7835C12.876 22.0424 12.6382 22.2742 12.3862 22.4642C11.5373 23.1303 10.458 23.4323 9.38619 23.3047C8.31341 23.1769 7.33484 22.6289 6.66702 21.7804C6.3903 21.4288 6.44754 20.9167 6.79487 20.6366C7.14221 20.3565 7.6481 20.4145 7.92482 20.7661C8.32757 21.2778 8.92114 21.6101 9.57413 21.6879C10.2281 21.7658 10.8859 21.5817 11.413 21.1683C11.5684 21.051 11.7081 20.9148 11.8287 20.763C12.1071 20.4128 12.6133 20.3573 12.9593 20.639ZM1.92748 8.16637L1.94185 7.47123C1.95211 7.1739 1.968 6.89789 1.99132 6.62779C2.34097 2.85199 5.94492 0 9.87559 0H9.9588C13.8874 0 17.4924 2.85 17.8539 6.63293C17.8747 6.8734 17.8836 7.08701 17.8863 7.38741L17.8873 8.30646C17.8882 8.39017 17.8896 8.4638 17.8918 8.53245L17.9025 8.7614L17.9545 8.9797C18.1187 9.58769 18.4072 10.1561 18.8023 10.6496L18.9781 10.8564L19.0501 10.9488C19.5239 11.657 19.7946 12.481 19.8333 13.3685L19.8322 13.839C19.7991 14.8901 19.4132 15.9053 18.7061 16.7512C17.7696 17.7451 16.5006 18.3625 15.1519 18.4867C11.669 18.8649 8.155 18.8649 4.68179 18.4877C3.32379 18.357 2.05851 17.7414 1.08107 16.7094C0.360289 15.8306 -0.0228493 14.7243 0.0010546 13.6062L0.00204129 13.3282C0.0436832 12.4781 0.312709 11.6548 0.780924 10.9436L0.85929 10.8427C1.40612 10.2433 1.77997 9.50956 1.94219 8.71857L1.92464 8.78961L1.92748 8.16637ZM9.9588 1.62791H9.87559C6.7276 1.62791 3.85938 3.89768 3.59295 6.77457C3.57931 6.93266 3.56844 7.09575 3.55994 7.2674L3.5412 7.81152L3.53359 8.88401L3.51681 9.04945C3.29518 10.1302 2.78517 11.1311 2.04084 11.9471L2.09832 11.8805L1.99552 12.0506C1.80295 12.3976 1.67871 12.7744 1.62962 13.1463L1.60924 13.3685L1.60906 13.6237C1.5933 14.3666 1.84434 15.0916 2.2793 15.6252C2.95028 16.3315 3.85796 16.7732 4.84363 16.8681C8.2125 17.2339 11.6115 17.2339 14.9933 16.8668C15.9683 16.777 16.8753 16.3356 17.5098 15.6644C17.9899 15.0885 18.2437 14.3613 18.2251 13.5958L18.2261 13.4052C18.2015 12.855 18.0262 12.3215 17.7186 11.8617L17.7364 11.8913L17.5755 11.7027C17.0209 11.0181 16.618 10.2241 16.3937 9.37296L16.3179 9.05121L16.3029 8.9431C16.2916 8.78515 16.285 8.64479 16.2814 8.47599L16.2783 7.42058C16.2761 7.15218 16.2688 6.97152 16.2525 6.78214C15.9768 3.89754 13.1059 1.62791 9.9588 1.62791Z" fill="#2B88CC"/>
</svg>
