<svg width="22" height="24" viewBox="0 0 22 24" fill="none" xmlns="http://www.w3.org/2000/svg">
<path d="M15.5065 0.333313C19.2351 0.333313 21.4646 2.57331 21.4996 6.32065V17.5895C21.4996 21.3893 19.2643 23.6666 15.5065 23.6666H6.49397C6.0133 23.6666 5.55713 23.6293 5.1278 23.5558L4.87347 23.508C2.1073 22.9328 0.499634 20.8141 0.499634 17.5895V6.41048C0.499634 6.02081 0.522967 5.64748 0.569634 5.29048C0.9768 2.15798 3.1293 0.333313 6.49397 0.333313H15.5065ZM15.496 2.03315H6.49397C3.62863 2.03315 2.17613 3.50665 2.17613 6.41048V17.5895C2.17613 20.4933 3.62863 21.9668 6.49397 21.9668H15.496C18.3601 21.9668 19.8033 20.4933 19.8033 17.5895V6.41048C19.8033 3.50665 18.3601 2.03315 15.496 2.03315ZM15.1915 16.095C15.6511 16.095 16.0233 16.473 16.0233 16.9396C16.0233 17.4063 15.6511 17.7843 15.1915 17.7843H6.77863C6.31897 17.7843 5.94563 17.4063 5.94563 16.9396C5.94563 16.473 6.31897 16.095 6.77863 16.095H15.1915ZM15.1915 11.1495C15.5123 11.1145 15.8261 11.2685 15.9976 11.545C16.1691 11.8238 16.1691 12.1761 15.9976 12.455C15.8261 12.7315 15.5123 12.8855 15.1915 12.8505H6.77863C6.35163 12.8015 6.02847 12.4363 6.02847 12C6.02847 11.5636 6.35163 11.1973 6.77863 11.1495H15.1915ZM9.9893 6.21565C10.4163 6.26348 10.7395 6.62981 10.7395 7.06615C10.7395 7.50131 10.4163 7.86765 9.9893 7.91548H6.78913C6.36097 7.86765 6.0378 7.50131 6.0378 7.06615C6.0378 6.62981 6.36097 6.26348 6.78913 6.21565H9.9893Z" fill="#5C616F"/>
</svg>
