<svg width="32" height="32" viewBox="0 0 32 32" fill="none" xmlns="http://www.w3.org/2000/svg">
<g clip-path="url(#clip0_2222_6991)">
<path d="M32 0H0V32H32V0Z" fill="#25D366"/>
<path fill-rule="evenodd" clip-rule="evenodd" d="M23.333 8.5415C21.458 6.6665 18.958 5.6665 16.333 5.6665C10.833 5.6665 6.33301 10.1665 6.33301 15.6665C6.33301 17.4165 6.83302 19.1665 7.70802 20.6665L6.33301 25.6665L11.583 24.2915C13.083 25.0415 14.708 25.5415 16.333 25.5415C21.833 25.5415 26.333 21.0415 26.333 15.5415C26.333 12.9165 25.208 10.4165 23.333 8.5415ZM16.333 23.9165C14.833 23.9165 13.333 23.5415 12.083 22.7915L11.833 22.6665L8.708 23.5415L9.58302 20.5415L9.333 20.1665C8.458 18.7915 8.083 17.2915 8.083 15.7915C8.083 11.2915 11.833 7.5415 16.333 7.5415C18.583 7.5415 20.583 8.4165 22.208 9.9165C23.833 11.5415 24.583 13.5415 24.583 15.7915C24.583 20.1665 20.958 23.9165 16.333 23.9165ZM20.833 17.6665C20.583 17.5415 19.333 16.9165 19.083 16.9165C18.833 16.7915 18.708 16.7915 18.583 17.0415C18.458 17.2915 17.958 17.7915 17.833 18.0415C17.708 18.1665 17.583 18.1665 17.333 18.1665C17.083 18.0415 16.333 17.7915 15.333 16.9165C14.583 16.2915 14.083 15.4165 13.958 15.1665C13.833 14.9165 13.958 14.7915 14.083 14.6665C14.208 14.5415 14.333 14.4165 14.458 14.2915C14.583 14.1665 14.583 14.0415 14.708 13.9165C14.833 13.7915 14.708 13.6665 14.708 13.5415C14.708 13.4165 14.208 12.1665 13.958 11.6665C13.833 11.2915 13.583 11.2915 13.458 11.2915C13.333 11.2915 13.208 11.2915 12.958 11.2915C12.833 11.2915 12.583 11.2915 12.333 11.5415C12.083 11.7915 11.458 12.4165 11.458 13.6665C11.458 14.9165 12.333 16.0415 12.458 16.2915C12.583 16.4165 14.208 19.0415 16.708 20.0415C18.833 20.9165 19.208 20.6665 19.708 20.6665C20.208 20.6665 21.208 20.0415 21.333 19.5415C21.583 18.9165 21.583 18.4165 21.458 18.4165C21.333 17.7915 21.083 17.7915 20.833 17.6665Z" fill="white"/>
</g>
<defs>
<clipPath id="clip0_2222_6991">
<rect width="32" height="32" rx="10" fill="white"/>
</clipPath>
</defs>
</svg>
